<svg width="330" height="204" viewBox="0 0 330 204" fill="none" xmlns="http://www.w3.org/2000/svg">
<path d="M97.4668 21C96.7962 21 96.2852 20.9154 95.9336 20.7461C95.5885 20.5768 95.3542 20.3001 95.2305 19.916C95.1133 19.5319 95.0547 19.0208 95.0547 18.3828V9.61328C95.0547 8.96224 95.1133 8.44792 95.2305 8.07031C95.3542 7.6862 95.5885 7.41276 95.9336 7.25C96.2852 7.08073 96.7962 6.99609 97.4668 6.99609H100.465C101.865 6.99609 103.089 7.20443 104.137 7.62109C105.191 8.03776 106.012 8.74414 106.598 9.74023C107.184 10.7298 107.477 12.0905 107.477 13.8223C107.477 15.554 107.184 16.9473 106.598 18.002C106.012 19.0501 105.191 19.8118 104.137 20.2871C103.089 20.7624 101.865 21 100.465 21H97.4668ZM99.3223 9.56445C98.8926 9.56445 98.5996 9.6556 98.4434 9.83789C98.2871 10.0202 98.209 10.3327 98.209 10.7754V17.2207C98.209 17.6569 98.2871 17.9694 98.4434 18.1582C98.5996 18.347 98.8926 18.4414 99.3223 18.4414H99.7715C101.165 18.4414 102.242 18.0996 103.004 17.416C103.772 16.7324 104.156 15.5475 104.156 13.8613C104.156 12.735 103.98 11.8626 103.629 11.2441C103.284 10.6191 102.783 10.1829 102.125 9.93555C101.467 9.68815 100.676 9.56445 99.752 9.56445H99.3223ZM115.924 21.2441C114.57 21.2441 113.391 20.9837 112.389 20.4629C111.386 19.9421 110.608 19.1576 110.055 18.1094C109.508 17.0612 109.234 15.7526 109.234 14.1836C109.234 11.6901 109.843 9.83138 111.061 8.60742C112.278 7.37695 113.974 6.76172 116.148 6.76172C118.186 6.76172 119.798 7.36393 120.982 8.56836C122.167 9.76628 122.76 11.5436 122.76 13.9004C122.76 15.5671 122.483 16.944 121.93 18.0312C121.376 19.112 120.589 19.9193 119.566 20.4531C118.544 20.9805 117.33 21.2441 115.924 21.2441ZM115.982 18.6074C117.154 18.6074 118.023 18.1875 118.59 17.3477C119.156 16.5078 119.439 15.4173 119.439 14.0762C119.439 12.5202 119.173 11.3516 118.639 10.5703C118.105 9.78906 117.245 9.39844 116.061 9.39844C113.723 9.39844 112.555 10.9382 112.555 14.0176C112.555 15.3913 112.835 16.5013 113.395 17.3477C113.961 18.1875 114.824 18.6074 115.982 18.6074ZM127.623 21C126.952 21 126.441 20.9154 126.09 20.7461C125.745 20.5768 125.51 20.3001 125.387 19.916C125.27 19.5319 125.211 19.0208 125.211 18.3828V9.61328C125.211 8.96224 125.27 8.44792 125.387 8.07031C125.51 7.6862 125.745 7.41276 126.09 7.25C126.441 7.08073 126.952 6.99609 127.623 6.99609H132.213C132.369 6.99609 132.486 7.02214 132.564 7.07422C132.734 7.19141 132.91 7.33138 133.092 7.49414C133.274 7.6569 133.466 7.85221 133.668 8.08008C133.733 8.16471 133.766 8.23307 133.766 8.28516C133.766 8.34375 133.733 8.40885 133.668 8.48047C133.466 8.70833 133.274 8.90365 133.092 9.06641C132.91 9.22917 132.734 9.36914 132.564 9.48633C132.473 9.53841 132.356 9.56445 132.213 9.56445H129.479C129.049 9.56445 128.756 9.6556 128.6 9.83789C128.443 10.0202 128.365 10.3327 128.365 10.7754V12.6699H131.871C132.027 12.6699 132.145 12.696 132.223 12.748C132.392 12.8652 132.568 13.0052 132.75 13.168C132.932 13.3307 133.124 13.526 133.326 13.7539C133.391 13.8385 133.424 13.9069 133.424 13.959C133.424 14.0176 133.391 14.0827 133.326 14.1543C133.124 14.3822 132.932 14.5775 132.75 14.7402C132.568 14.903 132.392 15.043 132.223 15.1602C132.132 15.2122 132.014 15.2383 131.871 15.2383H128.365V17.2109C128.365 17.6471 128.443 17.9596 128.6 18.1484C128.756 18.3372 129.049 18.4316 129.479 18.4316H132.535C132.691 18.4316 132.809 18.4577 132.887 18.5098C133.056 18.627 133.232 18.7669 133.414 18.9297C133.596 19.0924 133.788 19.2878 133.99 19.5156C134.055 19.6003 134.088 19.6686 134.088 19.7207C134.088 19.7793 134.055 19.8444 133.99 19.916C133.788 20.1439 133.596 20.3392 133.414 20.502C133.232 20.6647 133.056 20.8047 132.887 20.9219C132.796 20.974 132.678 21 132.535 21H127.623ZM147.555 18.6074C148.03 18.6074 148.401 18.5586 148.668 18.4609C148.941 18.3633 149.153 18.2428 149.303 18.0996C149.452 17.9564 149.583 17.8132 149.693 17.6699C149.798 17.5397 149.882 17.4421 149.947 17.377C150.019 17.3118 150.117 17.2663 150.24 17.2402C150.344 17.2077 150.51 17.1882 150.738 17.1816C150.973 17.1686 151.204 17.1621 151.432 17.1621C151.666 17.1621 151.829 17.1686 151.92 17.1816C152.057 17.1882 152.151 17.2142 152.203 17.2598C152.255 17.3053 152.288 17.403 152.301 17.5527C152.32 17.7611 152.33 18.0085 152.33 18.2949C152.337 18.5814 152.333 18.8288 152.32 19.0371C152.314 19.1022 152.301 19.1576 152.281 19.2031C152.268 19.2487 152.236 19.3171 152.184 19.4082C152.118 19.5124 151.992 19.6654 151.803 19.8672C151.614 20.0625 151.337 20.2676 150.973 20.4824C150.608 20.6908 150.136 20.8698 149.557 21.0195C148.984 21.1693 148.277 21.2441 147.438 21.2441C146.539 21.2441 145.699 21.1302 144.918 20.9023C144.137 20.668 143.45 20.2773 142.857 19.7305C142.271 19.1836 141.812 18.4447 141.48 17.5137C141.155 16.5827 140.992 15.4206 140.992 14.0273C140.992 12.4779 141.259 11.1628 141.793 10.082C142.333 8.99479 143.098 8.16797 144.088 7.60156C145.077 7.03516 146.249 6.75195 147.604 6.75195C148.554 6.75195 149.316 6.84961 149.889 7.04492C150.468 7.24023 150.908 7.47135 151.207 7.73828C151.507 7.9987 151.718 8.22656 151.842 8.42188C151.887 8.49349 151.92 8.55859 151.939 8.61719C151.959 8.66927 151.972 8.75391 151.979 8.87109C151.998 9.02734 152.001 9.25521 151.988 9.55469C151.982 9.85417 151.959 10.1178 151.92 10.3457C151.894 10.4889 151.852 10.5833 151.793 10.6289C151.767 10.6549 151.721 10.6777 151.656 10.6973C151.591 10.7168 151.493 10.7266 151.363 10.7266C151.155 10.7266 150.921 10.7201 150.66 10.707C150.4 10.6875 150.204 10.668 150.074 10.6484C149.918 10.6224 149.804 10.5866 149.732 10.541C149.661 10.4889 149.589 10.4108 149.518 10.3066C149.4 10.1374 149.199 9.94206 148.912 9.7207C148.626 9.49935 148.154 9.38867 147.496 9.38867C146.572 9.38867 145.81 9.74674 145.211 10.4629C144.612 11.1725 144.312 12.3249 144.312 13.9199C144.312 15.5085 144.625 16.6868 145.25 17.4551C145.882 18.2233 146.65 18.6074 147.555 18.6074ZM160.494 21.2441C159.14 21.2441 157.962 20.9837 156.959 20.4629C155.956 19.9421 155.178 19.1576 154.625 18.1094C154.078 17.0612 153.805 15.7526 153.805 14.1836C153.805 11.6901 154.413 9.83138 155.631 8.60742C156.848 7.37695 158.544 6.76172 160.719 6.76172C162.757 6.76172 164.368 7.36393 165.553 8.56836C166.738 9.76628 167.33 11.5436 167.33 13.9004C167.33 15.5671 167.053 16.944 166.5 18.0312C165.947 19.112 165.159 19.9193 164.137 20.4531C163.115 20.9805 161.9 21.2441 160.494 21.2441ZM160.553 18.6074C161.725 18.6074 162.594 18.1875 163.16 17.3477C163.727 16.5078 164.01 15.4173 164.01 14.0762C164.01 12.5202 163.743 11.3516 163.209 10.5703C162.675 9.78906 161.816 9.39844 160.631 9.39844C158.294 9.39844 157.125 10.9382 157.125 14.0176C157.125 15.3913 157.405 16.5013 157.965 17.3477C158.531 18.1875 159.394 18.6074 160.553 18.6074ZM177.711 15.3945C177.802 15.043 177.9 14.6979 178.004 14.3594C178.115 14.0143 178.248 13.6302 178.404 13.207C178.541 12.8294 178.707 12.3965 178.902 11.9082C179.098 11.4134 179.303 10.9121 179.518 10.4043C179.739 9.89648 179.954 9.42448 180.162 8.98828C180.37 8.55208 180.559 8.20378 180.729 7.94336C180.937 7.62435 181.161 7.38672 181.402 7.23047C181.65 7.07422 182.011 6.99609 182.486 6.99609H183.766C184.104 6.99609 184.387 7.04818 184.615 7.15234C184.85 7.25 185.016 7.48763 185.113 7.86523C185.185 8.14518 185.253 8.55534 185.318 9.0957C185.383 9.63607 185.439 10.3848 185.484 11.3418C185.53 12.2988 185.566 13.5293 185.592 15.0332C185.618 16.5306 185.631 18.3828 185.631 20.5898C185.631 20.707 185.592 20.8047 185.514 20.8828C185.436 20.9609 185.341 21 185.23 21H183.004C182.893 21 182.799 20.9609 182.721 20.8828C182.643 20.8047 182.604 20.7038 182.604 20.5801C182.604 18.8613 182.604 17.403 182.604 16.2051C182.604 15.0072 182.6 14.0143 182.594 13.2266C182.587 12.4388 182.577 11.8138 182.564 11.3516C182.558 10.8828 182.545 10.5215 182.525 10.2676H182.467C182.122 11.0618 181.754 11.9473 181.363 12.9238C180.973 13.8939 180.592 14.8965 180.221 15.9316C179.85 16.9603 179.518 17.9661 179.225 18.9492C179.14 19.2422 179.033 19.4473 178.902 19.5645C178.779 19.6751 178.492 19.7305 178.043 19.7305H176.92C176.536 19.7305 176.279 19.6816 176.148 19.584C176.025 19.4863 175.917 19.2747 175.826 18.9492C175.611 18.207 175.374 17.4225 175.113 16.5957C174.853 15.7689 174.583 14.9583 174.303 14.1641C174.029 13.3633 173.762 12.6276 173.502 11.957C173.248 11.2799 173.02 10.7168 172.818 10.2676H172.76C172.708 11.0358 172.662 11.9701 172.623 13.0703C172.584 14.1706 172.551 15.3652 172.525 16.6543C172.506 17.9434 172.493 19.2585 172.486 20.5996C172.486 20.7168 172.447 20.8145 172.369 20.8926C172.291 20.9642 172.197 21 172.086 21H170.084C169.973 21 169.879 20.9609 169.801 20.8828C169.723 20.8047 169.684 20.7038 169.684 20.5801C169.69 17.11 169.758 14.3398 169.889 12.2695C170.025 10.1992 170.172 8.8125 170.328 8.10938C170.432 7.64714 170.615 7.34766 170.875 7.21094C171.142 7.06771 171.445 6.99609 171.783 6.99609H173.365C173.723 6.99609 173.984 7.0612 174.146 7.19141C174.316 7.3151 174.521 7.55924 174.762 7.92383C174.905 8.13867 175.074 8.46094 175.27 8.89062C175.471 9.32031 175.68 9.79883 175.895 10.3262C176.109 10.847 176.311 11.3646 176.5 11.8789C176.695 12.3867 176.855 12.8294 176.979 13.207C177.109 13.5911 177.229 13.9655 177.34 14.3301C177.451 14.6882 177.548 15.043 177.633 15.3945H177.711ZM199.498 16.3223C199.329 16.3223 199.186 16.2799 199.068 16.1953C198.945 16.1107 198.798 15.9902 198.629 15.834C198.46 15.6777 198.271 15.4857 198.062 15.2578C197.984 15.1667 197.945 15.0853 197.945 15.0137C197.945 14.9421 197.984 14.8607 198.062 14.7695C198.466 14.3138 198.834 13.9785 199.166 13.7637C199.244 13.7116 199.355 13.6855 199.498 13.6855C199.941 13.6855 200.322 13.5195 200.641 13.1875C200.966 12.8555 201.122 12.3184 201.109 11.5762C201.103 10.7754 200.904 10.2155 200.514 9.89648C200.13 9.57747 199.602 9.41797 198.932 9.41797H198.463C198.033 9.41797 197.74 9.50911 197.584 9.69141C197.428 9.8737 197.35 10.1862 197.35 10.6289V20.4824C197.35 20.6777 197.307 20.8145 197.223 20.8926C197.145 20.9642 197.008 21 196.812 21H194.732C194.537 21 194.397 20.9642 194.312 20.8926C194.234 20.8145 194.195 20.6777 194.195 20.4824V9.61328C194.195 8.96224 194.254 8.44792 194.371 8.07031C194.495 7.6862 194.729 7.41276 195.074 7.25C195.426 7.08073 195.937 6.99609 196.607 6.99609H198.932C200.8 6.99609 202.184 7.36393 203.082 8.09961C203.98 8.82878 204.43 9.94857 204.43 11.459C204.43 12.5918 204.192 13.5163 203.717 14.2324C203.248 14.9486 202.636 15.4759 201.881 15.8145C201.132 16.153 200.338 16.3223 199.498 16.3223ZM209.635 20.4824C209.635 20.6777 209.592 20.8145 209.508 20.8926C209.43 20.9642 209.293 21 209.098 21H207.018C206.822 21 206.682 20.9642 206.598 20.8926C206.52 20.8145 206.48 20.6777 206.48 20.4824V8.55859C206.48 8.36979 206.513 8.22656 206.578 8.12891C206.871 7.69922 207.281 7.24674 207.809 6.77148C207.906 6.69336 207.991 6.6543 208.062 6.6543C208.141 6.6543 208.222 6.69336 208.307 6.77148C208.593 7.01888 208.834 7.25651 209.029 7.48438C209.225 7.70573 209.394 7.92057 209.537 8.12891C209.602 8.23307 209.635 8.3763 209.635 8.55859V20.4824ZM217.867 15.5215C216.871 16.0684 216.168 16.6836 215.758 17.3672C215.354 18.0508 215.152 18.9102 215.152 19.9453V20.4824C215.152 20.6777 215.113 20.8145 215.035 20.8926C214.957 20.9642 214.824 21 214.635 21H212.604C212.421 21 212.288 20.9642 212.203 20.8926C212.125 20.8145 212.086 20.6777 212.086 20.4824V19.9453C212.086 18.9753 212.193 18.1549 212.408 17.4844C212.623 16.8073 212.978 16.2083 213.473 15.6875C213.974 15.1667 214.654 14.6556 215.514 14.1543C214.537 13.5944 213.769 12.9206 213.209 12.1328C212.656 11.3385 212.379 10.4629 212.379 9.50586V8.55859C212.379 8.36979 212.411 8.22656 212.477 8.12891C212.77 7.69922 213.18 7.24674 213.707 6.77148C213.805 6.69336 213.893 6.6543 213.971 6.6543C214.049 6.6543 214.13 6.69336 214.215 6.77148C214.501 7.01888 214.742 7.25651 214.938 7.48438C215.133 7.70573 215.302 7.92057 215.445 8.12891C215.51 8.23307 215.543 8.3763 215.543 8.55859V9.50586C215.543 10.0397 215.758 10.6029 216.188 11.1953C216.624 11.7878 217.219 12.2793 217.975 12.6699C218.723 12.2858 219.26 11.8236 219.586 11.2832C219.911 10.7428 220.074 10.1504 220.074 9.50586V8.55859C220.074 8.36979 220.107 8.22656 220.172 8.12891C220.452 7.70573 220.849 7.25326 221.363 6.77148C221.461 6.69336 221.542 6.6543 221.607 6.6543C221.686 6.6543 221.767 6.69336 221.852 6.77148C222.125 7.01888 222.356 7.25651 222.545 7.48438C222.74 7.70573 222.906 7.92057 223.043 8.12891C223.108 8.23307 223.141 8.3763 223.141 8.55859V9.50586C223.141 10.5801 222.877 11.485 222.35 12.2207C221.829 12.9564 221.161 13.5553 220.348 14.0176C221.116 14.4733 221.741 14.9648 222.223 15.4922C222.704 16.013 223.059 16.6315 223.287 17.3477C223.515 18.0573 223.629 18.9232 223.629 19.9453V20.4824C223.629 20.6777 223.587 20.8145 223.502 20.8926C223.424 20.9642 223.287 21 223.092 21H221.012C220.816 21 220.676 20.9642 220.592 20.8926C220.514 20.8145 220.475 20.6777 220.475 20.4824V19.9453C220.475 19.2487 220.41 18.6432 220.279 18.1289C220.156 17.6146 219.905 17.1523 219.527 16.7422C219.156 16.3255 218.603 15.9186 217.867 15.5215Z" fill="#EC6A00"/>
<path d="M74.6142 128.549L57.9133 111.848C57.3029 111.238 56.5816 111.127 56.1932 111.127C55.8048 111.127 55.0835 111.238 54.4732 111.848L37.7168 128.605C35.8303 130.491 32.8896 133.543 23.0688 133.543L43.6537 154.072C46.7747 157.189 51.0054 158.94 55.4164 158.94C59.8275 158.94 64.0582 157.189 67.1792 154.072L87.8195 133.487C82.7704 133.487 78.5536 132.489 74.6142 128.549ZM37.7168 78.3355L54.4732 95.0919C54.9171 95.5358 55.5829 95.8132 56.1932 95.8132C56.8036 95.8132 57.4694 95.5358 57.9133 95.0919L74.5032 78.502C78.4426 74.3961 82.9369 73.4528 87.986 73.4528L67.3457 52.868C64.2246 49.7509 59.994 48 55.5829 48C51.1719 48 46.9412 49.7509 43.8201 52.868L23.2353 73.3974C33.0006 73.3974 35.9968 76.6155 37.7168 78.3355Z" fill="#4ACCA3"/>
<path d="M106.017 91.541L93.5326 79.0015H86.5415C83.5454 79.0015 80.5492 80.2221 78.4963 82.386L61.8508 99.0315C60.2973 100.585 58.2443 101.362 56.1914 101.362C54.0774 101.332 52.054 100.499 50.5319 99.0315L33.7756 82.2196C31.6671 80.1112 28.7819 78.8905 25.7303 78.8905H17.574L4.86801 91.652C1.75087 94.773 0 99.0037 0 103.415C0 107.826 1.75087 112.056 4.86801 115.178L17.574 127.939H25.7858C28.7819 127.939 31.6671 126.718 33.831 124.61L50.5874 107.854C52.141 106.3 54.1939 105.523 56.2469 105.523C58.2998 105.523 60.3527 106.3 61.9063 107.854L78.6072 124.554C80.7156 126.663 83.6009 127.884 86.6525 127.884H93.6436L106.128 115.344C109.261 112.168 111.008 107.881 110.987 103.42C110.966 98.9586 109.179 94.6875 106.017 91.541Z" fill="#4ACCA3"/>
<path d="M134.953 105.086C135.333 105.086 135.63 105.047 135.844 104.969C136.062 104.891 136.232 104.794 136.352 104.68C136.471 104.565 136.576 104.451 136.664 104.336C136.747 104.232 136.815 104.154 136.867 104.102C136.924 104.049 137.003 104.013 137.102 103.992C137.185 103.966 137.318 103.951 137.5 103.945C137.688 103.935 137.872 103.93 138.055 103.93C138.242 103.93 138.372 103.935 138.445 103.945C138.555 103.951 138.63 103.971 138.672 104.008C138.714 104.044 138.74 104.122 138.75 104.242C138.766 104.409 138.773 104.607 138.773 104.836C138.779 105.065 138.776 105.263 138.766 105.43C138.76 105.482 138.75 105.526 138.734 105.562C138.724 105.599 138.698 105.654 138.656 105.727C138.604 105.81 138.503 105.932 138.352 106.094C138.201 106.25 137.979 106.414 137.688 106.586C137.396 106.753 137.018 106.896 136.555 107.016C136.096 107.135 135.531 107.195 134.859 107.195C134.141 107.195 133.469 107.104 132.844 106.922C132.219 106.734 131.669 106.422 131.195 105.984C130.727 105.547 130.359 104.956 130.094 104.211C129.833 103.466 129.703 102.536 129.703 101.422C129.703 100.182 129.917 99.1302 130.344 98.2656C130.776 97.3958 131.388 96.7344 132.18 96.2812C132.971 95.8281 133.909 95.6016 134.992 95.6016C135.753 95.6016 136.362 95.6797 136.82 95.8359C137.284 95.9922 137.635 96.1771 137.875 96.3906C138.115 96.599 138.284 96.7812 138.383 96.9375C138.419 96.9948 138.445 97.0469 138.461 97.0938C138.477 97.1354 138.487 97.2031 138.492 97.2969C138.508 97.4219 138.51 97.6042 138.5 97.8438C138.495 98.0833 138.477 98.2943 138.445 98.4766C138.424 98.5911 138.391 98.6667 138.344 98.7031C138.323 98.724 138.286 98.7422 138.234 98.7578C138.182 98.7734 138.104 98.7812 138 98.7812C137.833 98.7812 137.646 98.776 137.438 98.7656C137.229 98.75 137.073 98.7344 136.969 98.7188C136.844 98.6979 136.753 98.6693 136.695 98.6328C136.638 98.5911 136.581 98.5286 136.523 98.4453C136.43 98.3099 136.268 98.1536 136.039 97.9766C135.81 97.7995 135.432 97.7109 134.906 97.7109C134.167 97.7109 133.557 97.9974 133.078 98.5703C132.599 99.138 132.359 100.06 132.359 101.336C132.359 102.607 132.609 103.549 133.109 104.164C133.615 104.779 134.229 105.086 134.953 105.086ZM142.883 106.586C142.883 106.742 142.852 106.852 142.789 106.914C142.732 106.971 142.628 107 142.477 107H140.906C140.76 107 140.656 106.971 140.594 106.914C140.531 106.852 140.5 106.742 140.5 106.586V96.6875C140.5 96.3802 140.56 96.1562 140.68 96.0156C140.799 95.8698 141.01 95.7969 141.312 95.7969H142.039C142.305 95.7969 142.555 95.8333 142.789 95.9062C143.029 95.974 143.281 96.1302 143.547 96.375C143.818 96.6198 144.13 97 144.484 97.5156C144.844 98.026 145.276 98.724 145.781 99.6094C146.266 100.453 146.654 101.128 146.945 101.633C147.242 102.138 147.471 102.523 147.633 102.789C147.794 103.055 147.914 103.245 147.992 103.359C148.076 103.474 148.143 103.568 148.195 103.641V97.0469C148.195 96.8958 148.219 96.7812 148.266 96.7031C148.49 96.3594 148.799 95.9974 149.195 95.6172C149.273 95.5547 149.339 95.5234 149.391 95.5234C149.448 95.5234 149.51 95.5547 149.578 95.6172C149.792 95.8151 149.971 96.0052 150.117 96.1875C150.268 96.3646 150.398 96.5365 150.508 96.7031C150.555 96.7865 150.578 96.901 150.578 97.0469V106.352C150.578 106.586 150.534 106.753 150.445 106.852C150.357 106.951 150.195 107 149.961 107H149.211C148.987 107 148.758 106.964 148.523 106.891C148.289 106.812 148.023 106.641 147.727 106.375C147.43 106.104 147.078 105.685 146.672 105.117C146.266 104.549 145.776 103.773 145.203 102.789C144.719 101.951 144.331 101.284 144.039 100.789C143.753 100.294 143.534 99.9219 143.383 99.6719C143.232 99.4167 143.122 99.2396 143.055 99.1406C142.987 99.0365 142.93 98.9583 142.883 98.9062V106.586ZM157.32 103.258C157.185 103.258 157.07 103.224 156.977 103.156C156.878 103.089 156.76 102.992 156.625 102.867C156.49 102.742 156.339 102.589 156.172 102.406C156.109 102.333 156.078 102.268 156.078 102.211C156.078 102.154 156.109 102.089 156.172 102.016C156.495 101.651 156.789 101.383 157.055 101.211C157.117 101.169 157.206 101.148 157.32 101.148C157.674 101.148 157.979 101.016 158.234 100.75C158.495 100.484 158.62 100.055 158.609 99.4609C158.604 98.8203 158.445 98.3724 158.133 98.1172C157.826 97.862 157.404 97.7344 156.867 97.7344H156.492C156.148 97.7344 155.914 97.8073 155.789 97.9531C155.664 98.099 155.602 98.349 155.602 98.7031V106.586C155.602 106.742 155.568 106.852 155.5 106.914C155.438 106.971 155.328 107 155.172 107H153.508C153.352 107 153.24 106.971 153.172 106.914C153.109 106.852 153.078 106.742 153.078 106.586V97.8906C153.078 97.3698 153.125 96.9583 153.219 96.6562C153.318 96.349 153.505 96.1302 153.781 96C154.062 95.8646 154.471 95.7969 155.008 95.7969H156.867C158.362 95.7969 159.469 96.0911 160.188 96.6797C160.906 97.263 161.266 98.1589 161.266 99.3672C161.266 100.273 161.076 101.013 160.695 101.586C160.32 102.159 159.831 102.581 159.227 102.852C158.628 103.122 157.992 103.258 157.32 103.258ZM166.055 103.734C166.055 104.589 165.966 105.32 165.789 105.93C165.617 106.539 165.378 107.057 165.07 107.484C164.768 107.911 164.422 108.276 164.031 108.578C163.646 108.885 163.24 109.164 162.812 109.414C162.635 109.513 162.495 109.479 162.391 109.312L161.516 107.914C161.401 107.727 161.44 107.576 161.633 107.461C161.971 107.263 162.284 107.018 162.57 106.727C162.857 106.43 163.089 106.044 163.266 105.57C163.443 105.091 163.531 104.479 163.531 103.734V97.0469C163.531 96.8958 163.557 96.7812 163.609 96.7031C163.844 96.3594 164.172 95.9974 164.594 95.6172C164.672 95.5547 164.74 95.5234 164.797 95.5234C164.859 95.5234 164.924 95.5547 164.992 95.6172C165.221 95.8151 165.414 96.0052 165.57 96.1875C165.727 96.3646 165.862 96.5365 165.977 96.7031C166.029 96.7865 166.055 96.901 166.055 97.0469V103.734ZM173.109 103.672C172.948 103.672 172.867 103.591 172.867 103.43V102.031C172.867 101.87 172.948 101.789 173.109 101.789H180.625C180.786 101.789 180.867 101.87 180.867 102.031V103.43C180.867 103.591 180.786 103.672 180.625 103.672H173.109ZM191.883 106.586C191.883 106.742 191.849 106.852 191.781 106.914C191.719 106.971 191.609 107 191.453 107H189.844C189.688 107 189.576 106.971 189.508 106.914C189.445 106.852 189.414 106.742 189.414 106.586V98.4062L188.328 98.9531C188.224 99.0104 188.13 99.0339 188.047 99.0234C187.885 98.9974 187.708 98.9557 187.516 98.8984C187.328 98.8411 187.12 98.763 186.891 98.6641C186.812 98.6172 186.766 98.5755 186.75 98.5391C186.729 98.5026 186.729 98.4427 186.75 98.3594C186.87 97.901 187.013 97.526 187.18 97.2344C187.232 97.1615 187.307 97.1016 187.406 97.0547L190.391 95.5469H191.883V106.586ZM198.461 107.195C197.049 107.195 196.003 106.727 195.32 105.789C194.643 104.852 194.305 103.448 194.305 101.578C194.305 99.6354 194.672 98.1562 195.406 97.1406C196.141 96.1198 197.232 95.6094 198.68 95.6094C200.06 95.6094 201.081 96.0859 201.742 97.0391C202.409 97.9922 202.742 99.4193 202.742 101.32C202.742 102.43 202.602 103.43 202.32 104.32C202.039 105.206 201.583 105.906 200.953 106.422C200.328 106.938 199.497 107.195 198.461 107.195ZM198.539 105.227C199.128 105.227 199.555 104.904 199.82 104.258C200.091 103.612 200.227 102.659 200.227 101.398C200.227 100.138 200.094 99.1875 199.828 98.5469C199.568 97.901 199.148 97.5781 198.57 97.5781C197.956 97.5781 197.51 97.9115 197.234 98.5781C196.958 99.2396 196.82 100.219 196.82 101.516C196.82 102.74 196.956 103.664 197.227 104.289C197.503 104.914 197.94 105.227 198.539 105.227ZM203.992 105.586C203.992 105.513 204.016 105.451 204.062 105.398C204.109 105.341 204.169 105.266 204.242 105.172C204.404 104.99 204.589 104.799 204.797 104.602C205.01 104.398 205.224 104.203 205.438 104.016C205.573 103.906 205.674 103.852 205.742 103.852C205.805 103.852 205.909 103.906 206.055 104.016C206.508 104.401 206.901 104.786 207.234 105.172C207.307 105.26 207.367 105.333 207.414 105.391C207.461 105.448 207.484 105.513 207.484 105.586C207.484 105.659 207.458 105.724 207.406 105.781C207.359 105.839 207.299 105.917 207.227 106.016C207.07 106.193 206.888 106.38 206.68 106.578C206.477 106.776 206.268 106.969 206.055 107.156C205.919 107.266 205.815 107.32 205.742 107.32C205.68 107.32 205.573 107.266 205.422 107.156C205.193 106.969 204.979 106.776 204.781 106.578C204.583 106.375 204.404 106.18 204.242 105.992C204.169 105.904 204.109 105.833 204.062 105.781C204.016 105.724 203.992 105.659 203.992 105.586ZM212.367 106.586C212.367 106.742 212.333 106.852 212.266 106.914C212.203 106.971 212.094 107 211.938 107H210.328C210.172 107 210.06 106.971 209.992 106.914C209.93 106.852 209.898 106.742 209.898 106.586V98.4062L208.812 98.9531C208.708 99.0104 208.615 99.0339 208.531 99.0234C208.37 98.9974 208.193 98.9557 208 98.8984C207.812 98.8411 207.604 98.763 207.375 98.6641C207.297 98.6172 207.25 98.5755 207.234 98.5391C207.214 98.5026 207.214 98.4427 207.234 98.3594C207.354 97.901 207.497 97.526 207.664 97.2344C207.716 97.1615 207.792 97.1016 207.891 97.0547L210.875 95.5469H212.367V106.586ZM217.633 107.195C216.914 107.195 216.354 107.143 215.953 107.039C215.552 106.94 215.26 106.849 215.078 106.766C214.938 106.693 214.893 106.576 214.945 106.414L215.367 105.062C215.414 104.906 215.477 104.818 215.555 104.797C215.638 104.776 215.75 104.802 215.891 104.875C216.057 104.958 216.279 105.039 216.555 105.117C216.836 105.19 217.177 105.227 217.578 105.227C218.229 105.227 218.737 105.076 219.102 104.773C219.471 104.466 219.656 104.068 219.656 103.578C219.656 102.469 218.872 101.914 217.305 101.914C216.831 101.914 216.299 101.945 215.711 102.008C215.56 102.018 215.456 102.003 215.398 101.961C215.341 101.914 215.318 101.81 215.328 101.648L215.672 96.5781C215.708 96.0573 215.984 95.7969 216.5 95.7969H220.797C220.922 95.7969 221.016 95.8177 221.078 95.8594C221.214 95.9531 221.354 96.0651 221.5 96.1953C221.646 96.3255 221.799 96.4818 221.961 96.6641C222.013 96.7318 222.039 96.7839 222.039 96.8203C222.039 96.8672 222.013 96.9193 221.961 96.9766C221.799 97.1589 221.646 97.3151 221.5 97.4453C221.354 97.5755 221.214 97.6875 221.078 97.7812C221.005 97.8229 220.911 97.8438 220.797 97.8438H218.188C217.969 97.8438 217.815 97.8906 217.727 97.9844C217.638 98.0781 217.586 98.2266 217.57 98.4297L217.453 100.055C217.854 100.023 218.201 100.008 218.492 100.008C219.602 100.008 220.492 100.299 221.164 100.883C221.836 101.466 222.172 102.289 222.172 103.352C222.172 104.544 221.768 105.484 220.961 106.172C220.159 106.854 219.049 107.195 217.633 107.195ZM225.312 106.523C225.578 105.023 225.966 103.573 226.477 102.172C226.987 100.771 227.557 99.5391 228.188 98.4766C228.312 98.2682 228.349 98.112 228.297 98.0078C228.245 97.8984 228.07 97.8438 227.773 97.8438H224.633C224.508 97.8438 224.414 97.8229 224.352 97.7812C224.216 97.6875 224.076 97.5755 223.93 97.4453C223.789 97.3151 223.635 97.1589 223.469 96.9766C223.417 96.9089 223.391 96.8568 223.391 96.8203C223.391 96.7734 223.417 96.7214 223.469 96.6641C223.635 96.4818 223.789 96.3255 223.93 96.1953C224.076 96.0651 224.216 95.9531 224.352 95.8594C224.424 95.8177 224.518 95.7969 224.633 95.7969H230.141C230.62 95.7969 230.969 95.8776 231.188 96.0391C231.411 96.1953 231.523 96.4193 231.523 96.7109C231.523 96.9297 231.474 97.151 231.375 97.375C231.276 97.5938 231.128 97.8828 230.93 98.2422C230.211 99.5339 229.586 100.841 229.055 102.164C228.523 103.482 228.13 104.951 227.875 106.57C227.854 106.701 227.81 106.805 227.742 106.883C227.68 106.961 227.557 107 227.375 107H225.664C225.372 107 225.255 106.841 225.312 106.523ZM230.664 105.586C230.664 105.513 230.688 105.451 230.734 105.398C230.781 105.341 230.841 105.266 230.914 105.172C231.076 104.99 231.26 104.799 231.469 104.602C231.682 104.398 231.896 104.203 232.109 104.016C232.245 103.906 232.346 103.852 232.414 103.852C232.477 103.852 232.581 103.906 232.727 104.016C233.18 104.401 233.573 104.786 233.906 105.172C233.979 105.26 234.039 105.333 234.086 105.391C234.133 105.448 234.156 105.513 234.156 105.586C234.156 105.659 234.13 105.724 234.078 105.781C234.031 105.839 233.971 105.917 233.898 106.016C233.742 106.193 233.56 106.38 233.352 106.578C233.148 106.776 232.94 106.969 232.727 107.156C232.591 107.266 232.487 107.32 232.414 107.32C232.352 107.32 232.245 107.266 232.094 107.156C231.865 106.969 231.651 106.776 231.453 106.578C231.255 106.375 231.076 106.18 230.914 105.992C230.841 105.904 230.781 105.833 230.734 105.781C230.688 105.724 230.664 105.659 230.664 105.586ZM239.391 95.6094C240.245 95.6094 240.974 95.7786 241.578 96.1172C242.182 96.4557 242.643 97.0234 242.961 97.8203C243.284 98.612 243.445 99.6953 243.445 101.07C243.445 102.987 243.057 104.487 242.281 105.57C241.51 106.654 240.299 107.195 238.648 107.195C238.003 107.195 237.529 107.151 237.227 107.062C236.924 106.974 236.721 106.896 236.617 106.828C236.513 106.76 236.424 106.667 236.352 106.547C236.294 106.443 236.232 106.312 236.164 106.156C236.102 106 236.047 105.839 236 105.672C235.969 105.562 235.953 105.458 235.953 105.359C235.953 105.276 236.034 105.195 236.195 105.117C236.331 105.055 236.51 105 236.734 104.953C236.964 104.901 237.138 104.875 237.258 104.875C237.331 104.875 237.391 104.88 237.438 104.891C237.484 104.896 237.542 104.919 237.609 104.961C237.693 105.013 237.818 105.07 237.984 105.133C238.156 105.195 238.378 105.227 238.648 105.227C239.43 105.227 240.01 104.94 240.391 104.367C240.776 103.794 240.969 103.052 240.969 102.141H240.922C240.656 102.391 240.328 102.599 239.938 102.766C239.547 102.927 239.091 103.008 238.57 103.008C237.924 103.008 237.365 102.898 236.891 102.68C236.417 102.456 236.052 102.091 235.797 101.586C235.542 101.076 235.414 100.391 235.414 99.5312C235.414 98.6719 235.581 97.9505 235.914 97.3672C236.253 96.7839 236.721 96.3464 237.32 96.0547C237.919 95.7578 238.609 95.6094 239.391 95.6094ZM239.391 97.5781C238.943 97.5781 238.586 97.7318 238.32 98.0391C238.06 98.3411 237.93 98.7865 237.93 99.375C237.93 100.005 238.052 100.464 238.297 100.75C238.547 101.036 238.917 101.18 239.406 101.18C239.719 101.18 239.982 101.13 240.195 101.031C240.409 100.927 240.576 100.815 240.695 100.695C240.82 100.576 240.898 100.484 240.93 100.422C240.93 99.4427 240.797 98.724 240.531 98.2656C240.271 97.8073 239.891 97.5781 239.391 97.5781ZM247.852 107.195C247.003 107.195 246.333 107.125 245.844 106.984C245.354 106.839 244.995 106.703 244.766 106.578C244.609 106.5 244.57 106.372 244.648 106.195L245.188 104.922C245.245 104.786 245.307 104.711 245.375 104.695C245.443 104.68 245.536 104.701 245.656 104.758C245.865 104.857 246.143 104.961 246.492 105.07C246.846 105.174 247.26 105.227 247.734 105.227C248.323 105.227 248.789 105.104 249.133 104.859C249.482 104.615 249.656 104.25 249.656 103.766C249.656 103.266 249.438 102.888 249 102.633C248.568 102.372 247.971 102.242 247.211 102.242H247.031C246.906 102.242 246.812 102.221 246.75 102.18C246.615 102.091 246.474 101.987 246.328 101.867C246.188 101.742 246.034 101.591 245.867 101.414C245.815 101.346 245.789 101.294 245.789 101.258C245.789 101.211 245.815 101.159 245.867 101.102C246.034 100.924 246.188 100.776 246.328 100.656C246.474 100.531 246.615 100.424 246.75 100.336C246.823 100.294 246.917 100.273 247.031 100.273H247.133C248.591 100.273 249.32 99.8021 249.32 98.8594C249.32 98.0052 248.792 97.5781 247.734 97.5781C247.37 97.5781 247.034 97.625 246.727 97.7188C246.419 97.8125 246.172 97.9062 245.984 98C245.865 98.0573 245.771 98.0781 245.703 98.0625C245.641 98.0417 245.581 97.9688 245.523 97.8438L245 96.6484C244.927 96.4766 244.966 96.3464 245.117 96.2578C245.346 96.138 245.714 96 246.219 95.8438C246.724 95.6875 247.385 95.6094 248.203 95.6094C248.885 95.6094 249.5 95.7135 250.047 95.9219C250.594 96.1302 251.029 96.4401 251.352 96.8516C251.674 97.263 251.836 97.776 251.836 98.3906C251.836 99.8542 251.094 100.771 249.609 101.141V101.18C250.37 101.279 250.987 101.557 251.461 102.016C251.935 102.474 252.172 103.068 252.172 103.797C252.172 104.547 251.984 105.174 251.609 105.68C251.24 106.185 250.729 106.565 250.078 106.82C249.427 107.07 248.685 107.195 247.852 107.195ZM257.969 107.18C256.609 107.18 255.578 106.906 254.875 106.359C254.172 105.812 253.82 105.021 253.82 103.984C253.82 103.224 254.026 102.609 254.438 102.141C254.849 101.672 255.375 101.336 256.016 101.133V101.094C255.698 100.979 255.404 100.826 255.133 100.633C254.862 100.435 254.643 100.172 254.477 99.8438C254.31 99.5156 254.227 99.0964 254.227 98.5859C254.227 97.7266 254.539 97.0156 255.164 96.4531C255.794 95.8906 256.737 95.6094 257.992 95.6094C259.253 95.6094 260.198 95.8906 260.828 96.4531C261.464 97.0104 261.781 97.7109 261.781 98.5547C261.781 99.2318 261.615 99.7812 261.281 100.203C260.948 100.62 260.487 100.898 259.898 101.039V101.078C260.56 101.229 261.094 101.547 261.5 102.031C261.911 102.516 262.117 103.159 262.117 103.961C262.117 104.914 261.766 105.69 261.062 106.289C260.359 106.883 259.328 107.18 257.969 107.18ZM258.008 100.234C258.378 100.234 258.68 100.107 258.914 99.8516C259.148 99.5911 259.266 99.263 259.266 98.8672C259.266 98.4609 259.151 98.1328 258.922 97.8828C258.693 97.6276 258.388 97.5 258.008 97.5C257.612 97.5 257.302 97.6302 257.078 97.8906C256.854 98.1458 256.742 98.4714 256.742 98.8672C256.742 99.263 256.862 99.5911 257.102 99.8516C257.341 100.107 257.643 100.234 258.008 100.234ZM257.977 105.289C258.456 105.289 258.846 105.133 259.148 104.82C259.451 104.508 259.602 104.133 259.602 103.695C259.602 103.242 259.453 102.867 259.156 102.57C258.865 102.268 258.471 102.117 257.977 102.117C257.503 102.117 257.109 102.26 256.797 102.547C256.49 102.828 256.336 103.211 256.336 103.695C256.336 104.143 256.484 104.521 256.781 104.828C257.083 105.135 257.482 105.289 257.977 105.289ZM263 108.438C262.807 108.359 262.75 108.221 262.828 108.023L267.945 95.7422C268.023 95.5443 268.164 95.487 268.367 95.5703L269.664 96.1172C269.747 96.1536 269.805 96.2109 269.836 96.2891C269.867 96.3672 269.865 96.4479 269.828 96.5312L264.703 108.789C264.667 108.872 264.609 108.93 264.531 108.961C264.458 108.997 264.38 108.997 264.297 108.961L263 108.438ZM274.852 107.195C273.44 107.195 272.393 106.727 271.711 105.789C271.034 104.852 270.695 103.448 270.695 101.578C270.695 99.6354 271.062 98.1562 271.797 97.1406C272.531 96.1198 273.622 95.6094 275.07 95.6094C276.451 95.6094 277.471 96.0859 278.133 97.0391C278.799 97.9922 279.133 99.4193 279.133 101.32C279.133 102.43 278.992 103.43 278.711 104.32C278.43 105.206 277.974 105.906 277.344 106.422C276.719 106.938 275.888 107.195 274.852 107.195ZM274.93 105.227C275.518 105.227 275.945 104.904 276.211 104.258C276.482 103.612 276.617 102.659 276.617 101.398C276.617 100.138 276.484 99.1875 276.219 98.5469C275.958 97.901 275.539 97.5781 274.961 97.5781C274.346 97.5781 273.901 97.9115 273.625 98.5781C273.349 99.2396 273.211 100.219 273.211 101.516C273.211 102.74 273.346 103.664 273.617 104.289C273.893 104.914 274.331 105.227 274.93 105.227ZM284.773 107.195C283.362 107.195 282.315 106.727 281.633 105.789C280.956 104.852 280.617 103.448 280.617 101.578C280.617 99.6354 280.984 98.1562 281.719 97.1406C282.453 96.1198 283.544 95.6094 284.992 95.6094C286.372 95.6094 287.393 96.0859 288.055 97.0391C288.721 97.9922 289.055 99.4193 289.055 101.32C289.055 102.43 288.914 103.43 288.633 104.32C288.352 105.206 287.896 105.906 287.266 106.422C286.641 106.938 285.81 107.195 284.773 107.195ZM284.852 105.227C285.44 105.227 285.867 104.904 286.133 104.258C286.404 103.612 286.539 102.659 286.539 101.398C286.539 100.138 286.406 99.1875 286.141 98.5469C285.88 97.901 285.461 97.5781 284.883 97.5781C284.268 97.5781 283.823 97.9115 283.547 98.5781C283.271 99.2396 283.133 100.219 283.133 101.516C283.133 102.74 283.268 103.664 283.539 104.289C283.815 104.914 284.253 105.227 284.852 105.227ZM294.695 107.195C293.284 107.195 292.237 106.727 291.555 105.789C290.878 104.852 290.539 103.448 290.539 101.578C290.539 99.6354 290.906 98.1562 291.641 97.1406C292.375 96.1198 293.466 95.6094 294.914 95.6094C296.294 95.6094 297.315 96.0859 297.977 97.0391C298.643 97.9922 298.977 99.4193 298.977 101.32C298.977 102.43 298.836 103.43 298.555 104.32C298.273 105.206 297.818 105.906 297.188 106.422C296.562 106.938 295.732 107.195 294.695 107.195ZM294.773 105.227C295.362 105.227 295.789 104.904 296.055 104.258C296.326 103.612 296.461 102.659 296.461 101.398C296.461 100.138 296.328 99.1875 296.062 98.5469C295.802 97.901 295.383 97.5781 294.805 97.5781C294.19 97.5781 293.745 97.9115 293.469 98.5781C293.193 99.2396 293.055 100.219 293.055 101.516C293.055 102.74 293.19 103.664 293.461 104.289C293.737 104.914 294.174 105.227 294.773 105.227ZM305.18 106.586C305.18 106.742 305.146 106.852 305.078 106.914C305.016 106.971 304.906 107 304.75 107H303.141C302.984 107 302.872 106.971 302.805 106.914C302.742 106.852 302.711 106.742 302.711 106.586V98.4062L301.625 98.9531C301.521 99.0104 301.427 99.0339 301.344 99.0234C301.182 98.9974 301.005 98.9557 300.812 98.8984C300.625 98.8411 300.417 98.763 300.188 98.6641C300.109 98.6172 300.062 98.5755 300.047 98.5391C300.026 98.5026 300.026 98.4427 300.047 98.3594C300.167 97.901 300.31 97.526 300.477 97.2344C300.529 97.1615 300.604 97.1016 300.703 97.0547L303.688 95.5469H305.18V106.586ZM308.078 103.672C307.917 103.672 307.836 103.591 307.836 103.43V102.031C307.836 101.87 307.917 101.789 308.078 101.789H311.867C312.029 101.789 312.109 101.87 312.109 102.031V103.43C312.109 103.591 312.029 103.672 311.867 103.672H308.078ZM314.234 106.523C314.5 105.023 314.888 103.573 315.398 102.172C315.909 100.771 316.479 99.5391 317.109 98.4766C317.234 98.2682 317.271 98.112 317.219 98.0078C317.167 97.8984 316.992 97.8438 316.695 97.8438H313.555C313.43 97.8438 313.336 97.8229 313.273 97.7812C313.138 97.6875 312.997 97.5755 312.852 97.4453C312.711 97.3151 312.557 97.1589 312.391 96.9766C312.339 96.9089 312.312 96.8568 312.312 96.8203C312.312 96.7734 312.339 96.7214 312.391 96.6641C312.557 96.4818 312.711 96.3255 312.852 96.1953C312.997 96.0651 313.138 95.9531 313.273 95.8594C313.346 95.8177 313.44 95.7969 313.555 95.7969H319.062C319.542 95.7969 319.891 95.8776 320.109 96.0391C320.333 96.1953 320.445 96.4193 320.445 96.7109C320.445 96.9297 320.396 97.151 320.297 97.375C320.198 97.5938 320.049 97.8828 319.852 98.2422C319.133 99.5339 318.508 100.841 317.977 102.164C317.445 103.482 317.052 104.951 316.797 106.57C316.776 106.701 316.732 106.805 316.664 106.883C316.602 106.961 316.479 107 316.297 107H314.586C314.294 107 314.177 106.841 314.234 106.523ZM324.539 107.195C323.69 107.195 323.021 107.125 322.531 106.984C322.042 106.839 321.682 106.703 321.453 106.578C321.297 106.5 321.258 106.372 321.336 106.195L321.875 104.922C321.932 104.786 321.995 104.711 322.062 104.695C322.13 104.68 322.224 104.701 322.344 104.758C322.552 104.857 322.831 104.961 323.18 105.07C323.534 105.174 323.948 105.227 324.422 105.227C325.01 105.227 325.477 105.104 325.82 104.859C326.169 104.615 326.344 104.25 326.344 103.766C326.344 103.266 326.125 102.888 325.688 102.633C325.255 102.372 324.659 102.242 323.898 102.242H323.719C323.594 102.242 323.5 102.221 323.438 102.18C323.302 102.091 323.161 101.987 323.016 101.867C322.875 101.742 322.721 101.591 322.555 101.414C322.503 101.346 322.477 101.294 322.477 101.258C322.477 101.211 322.503 101.159 322.555 101.102C322.721 100.924 322.875 100.776 323.016 100.656C323.161 100.531 323.302 100.424 323.438 100.336C323.51 100.294 323.604 100.273 323.719 100.273H323.82C325.279 100.273 326.008 99.8021 326.008 98.8594C326.008 98.0052 325.479 97.5781 324.422 97.5781C324.057 97.5781 323.721 97.625 323.414 97.7188C323.107 97.8125 322.859 97.9062 322.672 98C322.552 98.0573 322.458 98.0781 322.391 98.0625C322.328 98.0417 322.268 97.9688 322.211 97.8438L321.688 96.6484C321.615 96.4766 321.654 96.3464 321.805 96.2578C322.034 96.138 322.401 96 322.906 95.8438C323.411 95.6875 324.073 95.6094 324.891 95.6094C325.573 95.6094 326.188 95.7135 326.734 95.9219C327.281 96.1302 327.716 96.4401 328.039 96.8516C328.362 97.263 328.523 97.776 328.523 98.3906C328.523 99.8542 327.781 100.771 326.297 101.141V101.18C327.057 101.279 327.674 101.557 328.148 102.016C328.622 102.474 328.859 103.068 328.859 103.797C328.859 104.547 328.672 105.174 328.297 105.68C327.927 106.185 327.417 106.565 326.766 106.82C326.115 107.07 325.372 107.195 324.539 107.195Z" fill="#411D00"/>
<line x1="312" y1="203.5" x2="13" y2="203.5" stroke="#EC6A00"/>
</svg>
