<svg width="337" height="459" viewBox="0 0 337 459" fill="none" xmlns="http://www.w3.org/2000/svg">
<path d="M201.74 0.916504C212.856 0.918878 223.516 5.33664 231.375 13.1981L323.885 105.708C331.747 113.567 336.164 124.227 336.167 135.343V378.166C336.167 389.283 331.751 399.945 323.89 407.806C316.029 415.667 305.367 420.083 294.25 420.083H42.7502C31.6332 420.083 20.9715 415.667 13.1106 407.806C5.2497 399.945 0.833496 389.283 0.833496 378.166V42.8332C0.833496 31.7162 5.2497 21.0545 13.1106 13.1936C20.9715 5.33271 31.6332 0.916504 42.7502 0.916504H201.74ZM168.5 42.8332H42.7502V378.166H294.25V168.583H199.938C191.6 168.583 183.604 165.271 177.708 159.375C171.812 153.48 168.5 145.483 168.5 137.146V42.8332ZM201.824 224.269C205.754 220.337 211.085 218.126 216.645 218.124C222.204 218.122 227.537 220.329 231.469 224.259C235.402 228.189 237.613 233.52 237.615 239.08C237.616 244.639 235.41 249.972 231.48 253.905L166.279 319.127C164.138 321.269 161.596 322.968 158.798 324.127C156 325.286 153.001 325.883 149.973 325.883C146.945 325.883 143.946 325.286 141.148 324.127C138.35 322.968 135.808 321.269 133.667 319.127L105.52 290.959C101.703 287.006 99.5902 281.712 99.6379 276.217C99.6857 270.722 101.89 265.465 105.776 261.579C109.662 257.693 114.918 255.489 120.413 255.441C125.909 255.394 131.203 257.506 135.155 261.324L149.973 276.141L201.824 224.269ZM210.417 51.5099V126.666H285.573L210.417 51.5099Z" fill="#FF943C"/>
</svg>
