<svg width="1920" height="1059" viewBox="0 0 1920 1059" fill="none" xmlns="http://www.w3.org/2000/svg">
<path d="M994.694 355.357C1457.7 265.953 1304.64 -251.749 1919.89 152.289V949.792L4.09056e-05 949.792L6.6603e-07 489.505L208.355 228.593C497.217 -133.133 531.687 444.761 994.694 355.357Z" fill="#FFD4B0"/>
<path d="M994.694 424.521C1457.7 335.116 1304.64 -222.114 1919.89 181.923V1058.09L0.000285046 1058.09L0.000237967 519.575L208.355 304.169C507.163 -4.75137 531.687 513.925 994.694 424.521Z" fill="#FFB77B"/>
<path d="M1042.44 499.182C1521.41 409.894 1283.43 -197.954 1919.89 205.561V1058.09L0.000285046 1058.09L0 590.188L228.987 378.987C541.532 90.7168 563.468 588.471 1042.44 499.182Z" fill="#FF943C"/>
</svg>
