<svg width="351" height="206" viewBox="0 0 351 206" fill="none" xmlns="http://www.w3.org/2000/svg">
<path d="M56.082 82.9648C56.082 83.3555 56.0039 83.6289 55.8477 83.7852C55.7044 83.9284 55.444 84 55.0664 84H51.1406C50.776 84 50.5156 83.9284 50.3594 83.7852C50.2031 83.6289 50.125 83.3555 50.125 82.9648V58.2188C50.125 57.4505 50.2747 56.8906 50.5742 56.5391C50.8737 56.1745 51.401 55.9922 52.1562 55.9922H53.9727C54.6367 55.9922 55.2617 56.0833 55.8477 56.2656C56.4466 56.4349 57.0781 56.8255 57.7422 57.4375C58.4193 58.0495 59.2005 59 60.0859 60.2891C60.9844 61.5651 62.0651 63.3099 63.3281 65.5234C64.5391 67.6328 65.5091 69.319 66.2383 70.582C66.9805 71.8451 67.5534 72.8086 67.957 73.4727C68.3607 74.1367 68.6602 74.612 68.8555 74.8984C69.0638 75.1849 69.2331 75.4193 69.3633 75.6016V59.1172C69.3633 58.7396 69.4219 58.4531 69.5391 58.2578C70.099 57.3984 70.8737 56.4935 71.8633 55.543C72.0586 55.3867 72.2214 55.3086 72.3516 55.3086C72.4948 55.3086 72.651 55.3867 72.8203 55.543C73.3542 56.0378 73.8034 56.513 74.168 56.9688C74.5456 57.4115 74.8711 57.8411 75.1445 58.2578C75.2617 58.4661 75.3203 58.7526 75.3203 59.1172V82.3789C75.3203 82.9648 75.2096 83.3815 74.9883 83.6289C74.7669 83.8763 74.3633 84 73.7773 84H71.9023C71.3424 84 70.7695 83.9089 70.1836 83.7266C69.5977 83.5312 68.9336 83.1016 68.1914 82.4375C67.4492 81.7604 66.5703 80.7122 65.5547 79.293C64.5391 77.8737 63.3151 75.9336 61.8828 73.4727C60.6719 71.3763 59.7018 69.7096 58.9727 68.4727C58.2565 67.2357 57.7096 66.3047 57.332 65.6797C56.9544 65.0417 56.681 64.599 56.5117 64.3516C56.3424 64.0911 56.1992 63.8958 56.082 63.7656V82.9648ZM90.0859 84.4883C86.8047 84.4883 84.207 83.6159 82.293 81.8711C80.3789 80.1263 79.4219 77.5286 79.4219 74.0781C79.4219 70.5365 80.4115 67.8932 82.3906 66.1484C84.3828 64.3906 87.0391 63.5117 90.3594 63.5117C93.5625 63.5117 96.1276 64.3776 98.0547 66.1094C99.9818 67.8281 100.945 70.3672 100.945 73.7266C100.945 77.2292 99.9818 79.8984 98.0547 81.7344C96.1276 83.5703 93.4714 84.4883 90.0859 84.4883ZM90.2812 79.7617C91.7135 79.7617 92.7943 79.319 93.5234 78.4336C94.2526 77.5352 94.6172 76.0052 94.6172 73.8438C94.6172 71.7865 94.2461 70.3411 93.5039 69.5078C92.7747 68.6615 91.6875 68.2383 90.2422 68.2383C88.849 68.2383 87.7487 68.694 86.9414 69.6055C86.1471 70.5039 85.75 71.9688 85.75 74C85.75 76.1224 86.1276 77.6133 86.8828 78.4727C87.651 79.332 88.7839 79.7617 90.2812 79.7617ZM110.711 84.4883C109.318 84.4883 108.159 84.3711 107.234 84.1367C106.323 83.9023 105.587 83.6224 105.027 83.2969C104.48 82.9583 104.051 82.6523 103.738 82.3789C103.504 82.1576 103.478 81.9102 103.66 81.6367L105.652 78.6875C105.939 78.2708 106.264 78.2448 106.629 78.6094C107.007 78.974 107.514 79.332 108.152 79.6836C108.803 80.0221 109.611 80.1914 110.574 80.1914C111.434 80.1914 112.137 80.0482 112.684 79.7617C113.243 79.4622 113.523 79.0326 113.523 78.4727C113.523 78.082 113.4 77.763 113.152 77.5156C112.905 77.2682 112.469 77.0143 111.844 76.7539C111.219 76.4935 110.346 76.1615 109.227 75.7578C107.573 75.1589 106.323 74.4362 105.477 73.5898C104.63 72.7435 104.207 71.5065 104.207 69.8789C104.207 68.3815 104.617 67.1641 105.438 66.2266C106.271 65.2891 107.332 64.6055 108.621 64.1758C109.923 63.7331 111.277 63.5117 112.684 63.5117C114.467 63.5117 115.717 63.681 116.434 64.0195C117.163 64.3451 117.632 64.599 117.84 64.7812C118.035 64.9505 118.172 65.1458 118.25 65.3672C118.419 65.875 118.549 66.5456 118.641 67.3789C118.693 67.8607 118.569 68.1797 118.27 68.3359C118.113 68.4271 117.866 68.5247 117.527 68.6289C117.189 68.7331 116.85 68.8242 116.512 68.9023C116.173 68.9805 115.919 69.0195 115.75 69.0195C115.698 69.0195 115.639 69.0065 115.574 68.9805C115.522 68.9414 115.424 68.8568 115.281 68.7266C115.112 68.5573 114.819 68.362 114.402 68.1406C113.999 67.9193 113.439 67.8086 112.723 67.8086C112.02 67.8086 111.427 67.9258 110.945 68.1602C110.477 68.3815 110.242 68.7786 110.242 69.3516C110.242 69.9766 110.542 70.4453 111.141 70.7578C111.753 71.0703 112.755 71.474 114.148 71.9688C115.242 72.3464 116.193 72.763 117 73.2188C117.82 73.6615 118.452 74.2474 118.895 74.9766C119.337 75.6927 119.559 76.6628 119.559 77.8867C119.559 79.4753 119.122 80.7578 118.25 81.7344C117.391 82.6979 116.284 83.401 114.93 83.8438C113.589 84.2734 112.182 84.4883 110.711 84.4883ZM128.953 84.4883C127.56 84.4883 126.401 84.3711 125.477 84.1367C124.565 83.9023 123.829 83.6224 123.27 83.2969C122.723 82.9583 122.293 82.6523 121.98 82.3789C121.746 82.1576 121.72 81.9102 121.902 81.6367L123.895 78.6875C124.181 78.2708 124.507 78.2448 124.871 78.6094C125.249 78.974 125.757 79.332 126.395 79.6836C127.046 80.0221 127.853 80.1914 128.816 80.1914C129.676 80.1914 130.379 80.0482 130.926 79.7617C131.486 79.4622 131.766 79.0326 131.766 78.4727C131.766 78.082 131.642 77.763 131.395 77.5156C131.147 77.2682 130.711 77.0143 130.086 76.7539C129.461 76.4935 128.589 76.1615 127.469 75.7578C125.815 75.1589 124.565 74.4362 123.719 73.5898C122.872 72.7435 122.449 71.5065 122.449 69.8789C122.449 68.3815 122.859 67.1641 123.68 66.2266C124.513 65.2891 125.574 64.6055 126.863 64.1758C128.165 63.7331 129.52 63.5117 130.926 63.5117C132.71 63.5117 133.96 63.681 134.676 64.0195C135.405 64.3451 135.874 64.599 136.082 64.7812C136.277 64.9505 136.414 65.1458 136.492 65.3672C136.661 65.875 136.792 66.5456 136.883 67.3789C136.935 67.8607 136.811 68.1797 136.512 68.3359C136.355 68.4271 136.108 68.5247 135.77 68.6289C135.431 68.7331 135.092 68.8242 134.754 68.9023C134.415 68.9805 134.161 69.0195 133.992 69.0195C133.94 69.0195 133.882 69.0065 133.816 68.9805C133.764 68.9414 133.667 68.8568 133.523 68.7266C133.354 68.5573 133.061 68.362 132.645 68.1406C132.241 67.9193 131.681 67.8086 130.965 67.8086C130.262 67.8086 129.669 67.9258 129.188 68.1602C128.719 68.3815 128.484 68.7786 128.484 69.3516C128.484 69.9766 128.784 70.4453 129.383 70.7578C129.995 71.0703 130.997 71.474 132.391 71.9688C133.484 72.3464 134.435 72.763 135.242 73.2188C136.062 73.6615 136.694 74.2474 137.137 74.9766C137.579 75.6927 137.801 76.6628 137.801 77.8867C137.801 79.4753 137.365 80.7578 136.492 81.7344C135.633 82.6979 134.526 83.401 133.172 83.8438C131.831 84.2734 130.424 84.4883 128.953 84.4883ZM146.805 84.4883C144.891 84.4883 143.367 83.9544 142.234 82.8867C141.115 81.806 140.555 80.3216 140.555 78.4336C140.555 77.457 140.73 76.5521 141.082 75.7188C141.447 74.8724 142.072 74.1302 142.957 73.4922C143.855 72.8411 145.105 72.3203 146.707 71.9297C148.322 71.5391 150.379 71.3112 152.879 71.2461C152.879 70.0612 152.579 69.2083 151.98 68.6875C151.395 68.1667 150.509 67.9062 149.324 67.9062C148.257 67.9062 147.384 68.0885 146.707 68.4531C146.03 68.8177 145.607 69.0651 145.438 69.1953C145.255 69.3516 145.034 69.4102 144.773 69.3711C144.422 69.319 144.044 69.2279 143.641 69.0977C143.25 68.9674 142.827 68.8177 142.371 68.6484C142.306 68.6224 142.234 68.5833 142.156 68.5312C142.078 68.4661 142.033 68.375 142.02 68.2578C142.02 68.1927 142.026 68.1146 142.039 68.0234C142.052 67.9193 142.085 67.737 142.137 67.4766C142.189 67.2161 142.267 66.8971 142.371 66.5195C142.475 66.1289 142.573 65.8294 142.664 65.6211C142.781 65.3997 142.977 65.1914 143.25 64.9961C143.471 64.8138 144.142 64.5208 145.262 64.1172C146.382 63.7135 148.003 63.5117 150.125 63.5117C155.971 63.5117 158.895 66.3568 158.895 72.0469V83.1016C158.895 83.349 158.823 83.5638 158.68 83.7461C158.549 83.9154 158.322 84 157.996 84H155.066C154.858 84 154.669 83.974 154.5 83.9219C154.344 83.8568 154.194 83.7396 154.051 83.5703L152.84 82.0078H152.703C152.104 82.8802 151.297 83.5117 150.281 83.9023C149.279 84.293 148.12 84.4883 146.805 84.4883ZM148.953 79.957C150.151 79.957 151.056 79.651 151.668 79.0391C152.28 78.4271 152.671 77.7956 152.84 77.1445V74.9766C151.03 74.9766 149.669 75.1198 148.758 75.4062C147.859 75.6797 147.26 76.0443 146.961 76.5C146.661 76.9427 146.512 77.4245 146.512 77.9453C146.512 78.7005 146.746 79.2279 147.215 79.5273C147.684 79.8138 148.263 79.957 148.953 79.957ZM180.535 84C179.194 84 178.172 83.8307 177.469 83.4922C176.779 83.1536 176.31 82.6003 176.062 81.832C175.828 81.0638 175.711 80.0417 175.711 78.7656V61.2266C175.711 59.9245 175.828 58.8958 176.062 58.1406C176.31 57.3724 176.779 56.8255 177.469 56.5C178.172 56.1615 179.194 55.9922 180.535 55.9922H189.715C190.027 55.9922 190.262 56.0443 190.418 56.1484C190.757 56.3828 191.108 56.6628 191.473 56.9883C191.837 57.3138 192.221 57.7044 192.625 58.1602C192.755 58.3294 192.82 58.4661 192.82 58.5703C192.82 58.6875 192.755 58.8177 192.625 58.9609C192.221 59.4167 191.837 59.8073 191.473 60.1328C191.108 60.4583 190.757 60.7383 190.418 60.9727C190.236 61.0768 190.001 61.1289 189.715 61.1289H184.246C183.387 61.1289 182.801 61.3112 182.488 61.6758C182.176 62.0404 182.02 62.6654 182.02 63.5508V67.3398H189.031C189.344 67.3398 189.578 67.3919 189.734 67.4961C190.073 67.7305 190.424 68.0104 190.789 68.3359C191.154 68.6615 191.538 69.0521 191.941 69.5078C192.072 69.6771 192.137 69.8138 192.137 69.918C192.137 70.0352 192.072 70.1654 191.941 70.3086C191.538 70.7643 191.154 71.1549 190.789 71.4805C190.424 71.806 190.073 72.0859 189.734 72.3203C189.552 72.4245 189.318 72.4766 189.031 72.4766H182.02V76.4219C182.02 77.2943 182.176 77.9193 182.488 78.2969C182.801 78.6745 183.387 78.8633 184.246 78.8633H190.359C190.672 78.8633 190.906 78.9154 191.062 79.0195C191.401 79.2539 191.753 79.5339 192.117 79.8594C192.482 80.1849 192.866 80.5755 193.27 81.0312C193.4 81.2005 193.465 81.3372 193.465 81.4414C193.465 81.5586 193.4 81.6888 193.27 81.832C192.866 82.2878 192.482 82.6784 192.117 83.0039C191.753 83.3294 191.401 83.6094 191.062 83.8438C190.88 83.9479 190.646 84 190.359 84H180.535ZM207.215 63.4922C208.908 63.4922 210.327 63.6159 211.473 63.8633C212.632 64.1107 213.602 64.4167 214.383 64.7812C215.164 65.1458 215.848 65.5104 216.434 65.875V90.6797C216.434 90.9922 216.368 91.2331 216.238 91.4023C215.691 92.1185 214.891 92.8932 213.836 93.7266C213.654 93.8568 213.491 93.9219 213.348 93.9219C213.191 93.9219 213.029 93.8568 212.859 93.7266C212.299 93.2969 211.824 92.8932 211.434 92.5156C211.056 92.138 210.73 91.7669 210.457 91.4023C210.327 91.2331 210.262 90.9922 210.262 90.6797V82.0078H210.184C209.897 82.3724 209.526 82.7435 209.07 83.1211C208.615 83.4987 208.022 83.8177 207.293 84.0781C206.577 84.3385 205.652 84.4688 204.52 84.4688C202.553 84.4688 200.939 84.0456 199.676 83.1992C198.426 82.3398 197.501 81.1615 196.902 79.6641C196.316 78.1667 196.023 76.4609 196.023 74.5469C196.023 72.4505 196.368 70.569 197.059 68.9023C197.749 67.2357 198.908 65.9206 200.535 64.957C202.163 63.9805 204.389 63.4922 207.215 63.4922ZM207 68.2188C205.49 68.2188 204.337 68.7266 203.543 69.7422C202.749 70.7578 202.352 72.3333 202.352 74.4688C202.352 77.8151 203.732 79.4883 206.492 79.4883C207.573 79.4883 208.4 79.2669 208.973 78.8242C209.546 78.3815 209.975 77.8216 210.262 77.1445V69.0781C209.975 68.8698 209.572 68.6745 209.051 68.4922C208.53 68.3099 207.846 68.2188 207 68.2188ZM228.68 84.4883C224.044 84.4883 221.727 81.6823 221.727 76.0703L221.707 66.1484C221.707 65.8359 221.772 65.5951 221.902 65.4258C222.449 64.7096 223.25 63.9349 224.305 63.1016C224.487 62.9714 224.65 62.9062 224.793 62.9062C224.962 62.9062 225.125 62.9714 225.281 63.1016C225.841 63.5312 226.31 63.9349 226.688 64.3125C227.078 64.6901 227.41 65.0612 227.684 65.4258C227.814 65.5951 227.879 65.8359 227.879 66.1484V75.5234C227.879 78.349 228.999 79.7617 231.238 79.7617C232.345 79.7617 233.23 79.3776 233.895 78.6094C234.559 77.8281 234.891 76.7734 234.891 75.4453V66.1484C234.891 65.8359 234.956 65.5951 235.086 65.4258C235.633 64.7096 236.434 63.9349 237.488 63.1016C237.671 62.9714 237.833 62.9062 237.977 62.9062C238.146 62.9062 238.309 62.9714 238.465 63.1016C239.025 63.5312 239.493 63.9349 239.871 64.3125C240.262 64.6901 240.594 65.0612 240.867 65.4258C240.997 65.5951 241.062 65.8359 241.062 66.1484V83.1016C241.062 83.349 240.978 83.5638 240.809 83.7461C240.639 83.9154 240.424 84 240.164 84H237.234C237.026 84 236.837 83.974 236.668 83.9219C236.512 83.8568 236.362 83.7396 236.219 83.5703L235.008 82.0078H234.871C234.663 82.3073 234.337 82.6523 233.895 83.043C233.465 83.4336 232.833 83.7721 232 84.0586C231.18 84.3451 230.073 84.4883 228.68 84.4883ZM245.457 57.4375C245.457 57.2682 245.509 57.1185 245.613 56.9883C245.717 56.8581 245.854 56.6888 246.023 56.4805C246.388 56.0638 246.811 55.6276 247.293 55.1719C247.775 54.7031 248.263 54.2539 248.758 53.8242C249.07 53.5768 249.305 53.4531 249.461 53.4531C249.617 53.4531 249.858 53.5768 250.184 53.8242C251.238 54.7357 252.137 55.6211 252.879 56.4805C253.048 56.6758 253.185 56.8451 253.289 56.9883C253.406 57.1185 253.465 57.2682 253.465 57.4375C253.465 57.6068 253.406 57.7565 253.289 57.8867C253.185 58.0169 253.042 58.1927 252.859 58.4141C252.508 58.8177 252.098 59.2539 251.629 59.7227C251.16 60.1784 250.678 60.6146 250.184 61.0312C250.001 61.1875 249.858 61.2917 249.754 61.3438C249.65 61.3828 249.552 61.4023 249.461 61.4023C249.37 61.4023 249.272 61.3828 249.168 61.3438C249.077 61.2917 248.927 61.1875 248.719 61.0312C248.198 60.6146 247.71 60.1784 247.254 59.7227C246.798 59.2539 246.388 58.8047 246.023 58.375C245.854 58.1667 245.717 58.0039 245.613 57.8867C245.509 57.7565 245.457 57.6068 245.457 57.4375ZM252.527 82.9648C252.527 83.3555 252.443 83.6289 252.273 83.7852C252.117 83.9284 251.844 84 251.453 84H247.43C247.039 84 246.759 83.9284 246.59 83.7852C246.434 83.6289 246.355 83.3555 246.355 82.9648V65.0352C246.355 64.6445 246.434 64.3776 246.59 64.2344C246.759 64.0781 247.039 64 247.43 64H251.453C251.844 64 252.117 64.0781 252.273 64.2344C252.443 64.3776 252.527 64.6445 252.527 65.0352V82.9648ZM270.281 63.5117C272.182 63.5117 273.745 63.9414 274.969 64.8008C276.206 65.6471 277.124 66.819 277.723 68.3164C278.335 69.8008 278.641 71.5065 278.641 73.4336C278.641 75.5169 278.283 77.3919 277.566 79.0586C276.863 80.7253 275.822 82.0469 274.441 83.0234C273.061 84 271.349 84.4883 269.305 84.4883C268.25 84.4883 267.378 84.3646 266.688 84.1172C266.01 83.8828 265.464 83.6029 265.047 83.2773C264.643 82.9388 264.324 82.6328 264.09 82.3594H264.012V90.6797C264.012 90.9922 263.947 91.2331 263.816 91.4023C263.27 92.1185 262.469 92.8932 261.414 93.7266C261.232 93.8568 261.069 93.9219 260.926 93.9219C260.77 93.9219 260.607 93.8568 260.438 93.7266C259.878 93.2969 259.402 92.8932 259.012 92.5156C258.634 92.138 258.309 91.7669 258.035 91.4023C257.905 91.2331 257.84 90.9922 257.84 90.6797V66.5977C257.84 66.2852 257.905 66.0443 258.035 65.875C258.309 65.5104 258.634 65.1393 259.012 64.7617C259.402 64.3841 259.878 63.9805 260.438 63.5508C260.607 63.4206 260.783 63.3555 260.965 63.3555C261.134 63.3555 261.31 63.4206 261.492 63.5508C262.039 63.9805 262.508 64.3906 262.898 64.7812C263.289 65.1719 263.634 65.5755 263.934 65.9922H264.031C264.253 65.7188 264.591 65.3867 265.047 64.9961C265.503 64.6055 266.147 64.2604 266.98 63.9609C267.827 63.6615 268.927 63.5117 270.281 63.5117ZM267.879 79.5078C269.285 79.5078 270.372 79.0195 271.141 78.043C271.922 77.0534 272.312 75.6276 272.312 73.7656C272.312 70.25 270.867 68.4922 267.977 68.4922C266.753 68.4922 265.848 68.7461 265.262 69.2539C264.676 69.7487 264.259 70.276 264.012 70.8359V75.0742C264.012 76.3372 264.337 77.3919 264.988 78.2383C265.639 79.0846 266.603 79.5078 267.879 79.5078ZM292.645 84.4883C290.444 84.4883 288.53 84.1367 286.902 83.4336C285.275 82.7174 284.012 81.6107 283.113 80.1133C282.215 78.6159 281.766 76.6823 281.766 74.3125C281.766 70.7578 282.677 68.069 284.5 66.2461C286.323 64.4232 288.745 63.5117 291.766 63.5117C293.732 63.5117 295.392 63.8633 296.746 64.5664C298.113 65.2695 299.148 66.2396 299.852 67.4766C300.568 68.7135 300.926 70.1263 300.926 71.7148C300.926 73.2643 300.529 74.3451 299.734 74.957C298.94 75.569 297.781 75.875 296.258 75.875H287.879C287.983 77.2161 288.471 78.2383 289.344 78.9414C290.229 79.6445 291.427 79.9961 292.938 79.9961C294.135 79.9961 295.092 79.8203 295.809 79.4688C296.538 79.1042 297.046 78.8177 297.332 78.6094C297.579 78.4271 297.859 78.3424 298.172 78.3555C298.419 78.3555 298.771 78.4076 299.227 78.5117C299.695 78.6029 300.158 78.7786 300.613 79.0391C300.939 79.2083 301.102 79.4427 301.102 79.7422C301.102 79.9115 301.069 80.1523 301.004 80.4648C300.965 80.6471 300.9 80.9141 300.809 81.2656C300.717 81.6042 300.6 81.9232 300.457 82.2227C300.379 82.3659 300.255 82.5026 300.086 82.6328C299.826 82.8151 299.402 83.056 298.816 83.3555C298.243 83.6549 297.456 83.9154 296.453 84.1367C295.451 84.3711 294.181 84.4883 292.645 84.4883ZM287.84 71.8711H294.207C294.871 71.8711 295.203 71.5651 295.203 70.9531C295.203 70.0286 294.91 69.2539 294.324 68.6289C293.751 67.9909 292.885 67.6719 291.727 67.6719C290.464 67.6719 289.533 68.0755 288.934 68.8828C288.348 69.6901 287.983 70.6862 287.84 71.8711Z" fill="#EC6A00"/>
<path d="M53.8652 118.322C53.696 118.322 53.5527 118.28 53.4355 118.195C53.3118 118.111 53.1654 117.99 52.9961 117.834C52.8268 117.678 52.638 117.486 52.4297 117.258C52.3516 117.167 52.3125 117.085 52.3125 117.014C52.3125 116.942 52.3516 116.861 52.4297 116.77C52.8333 116.314 53.2012 115.979 53.5332 115.764C53.6113 115.712 53.722 115.686 53.8652 115.686C54.3079 115.686 54.6888 115.52 55.0078 115.188C55.3333 114.855 55.4896 114.318 55.4766 113.576C55.4701 112.775 55.2715 112.215 54.8809 111.896C54.4967 111.577 53.9694 111.418 53.2988 111.418H52.8301C52.4004 111.418 52.1074 111.509 51.9512 111.691C51.7949 111.874 51.7168 112.186 51.7168 112.629V122.482C51.7168 122.678 51.6745 122.814 51.5898 122.893C51.5117 122.964 51.375 123 51.1797 123H49.0996C48.9043 123 48.7643 122.964 48.6797 122.893C48.6016 122.814 48.5625 122.678 48.5625 122.482V111.613C48.5625 110.962 48.6211 110.448 48.7383 110.07C48.862 109.686 49.0964 109.413 49.4414 109.25C49.793 109.081 50.304 108.996 50.9746 108.996H53.2988C55.1673 108.996 56.5508 109.364 57.4492 110.1C58.3477 110.829 58.7969 111.949 58.7969 113.459C58.7969 114.592 58.5592 115.516 58.084 116.232C57.6152 116.949 57.0033 117.476 56.248 117.814C55.4993 118.153 54.7051 118.322 53.8652 118.322ZM63.3965 114.855H63.4355C63.9238 113.501 64.8027 112.824 66.0723 112.824C66.235 112.824 66.3685 112.834 66.4727 112.854C66.5768 112.867 66.6484 112.88 66.6875 112.893C66.7852 112.925 66.834 113 66.834 113.117V115.471C66.834 115.673 66.7168 115.728 66.4824 115.637C66.4043 115.604 66.2904 115.572 66.1406 115.539C65.9974 115.5 65.7956 115.48 65.5352 115.48C64.8646 115.48 64.3405 115.728 63.9629 116.223C63.5853 116.711 63.3965 117.378 63.3965 118.225V122.482C63.3965 122.678 63.3542 122.814 63.2695 122.893C63.1914 122.964 63.0547 123 62.8594 123H60.8477C60.6523 123 60.5124 122.964 60.4277 122.893C60.3496 122.814 60.3105 122.678 60.3105 122.482V114.299C60.3105 114.143 60.3431 114.022 60.4082 113.938C60.5449 113.755 60.7077 113.57 60.8965 113.381C61.0918 113.192 61.3294 112.99 61.6094 112.775C61.6615 112.736 61.7135 112.71 61.7656 112.697C61.8177 112.684 61.8633 112.678 61.9023 112.678C61.9935 112.678 62.0846 112.71 62.1758 112.775C62.7161 113.199 63.0938 113.56 63.3086 113.859C63.3672 113.938 63.3965 114.029 63.3965 114.133V114.855ZM73.0938 123.244C71.4531 123.244 70.1543 122.808 69.1973 121.936C68.2402 121.063 67.7617 119.764 67.7617 118.039C67.7617 116.268 68.2565 114.947 69.2461 114.074C70.2422 113.195 71.5703 112.756 73.2305 112.756C74.832 112.756 76.1146 113.189 77.0781 114.055C78.0417 114.914 78.5234 116.184 78.5234 117.863C78.5234 119.615 78.0417 120.949 77.0781 121.867C76.1146 122.785 74.7865 123.244 73.0938 123.244ZM73.1914 120.881C73.9076 120.881 74.4479 120.66 74.8125 120.217C75.1771 119.768 75.3594 119.003 75.3594 117.922C75.3594 116.893 75.1738 116.171 74.8027 115.754C74.4382 115.331 73.8945 115.119 73.1719 115.119C72.4753 115.119 71.9251 115.347 71.5215 115.803C71.1243 116.252 70.9258 116.984 70.9258 118C70.9258 119.061 71.1146 119.807 71.4922 120.236C71.8763 120.666 72.4427 120.881 73.1914 120.881ZM84.3047 122.482C84.3047 122.678 84.2624 122.814 84.1777 122.893C84.0996 122.964 83.9629 123 83.7676 123H81.7559C81.5605 123 81.4206 122.964 81.3359 122.893C81.2578 122.814 81.2188 122.678 81.2188 122.482V115.275H80.0664C79.8711 115.275 79.7344 115.236 79.6562 115.158C79.5846 115.074 79.5488 114.934 79.5488 114.738V113.537C79.5488 113.342 79.5846 113.205 79.6562 113.127C79.7344 113.042 79.8711 113 80.0664 113H81.2188V111.76C81.2188 110.972 81.375 110.295 81.6875 109.729C82.0065 109.162 82.4329 108.726 82.9668 108.42C83.5072 108.114 84.1061 107.961 84.7637 107.961C85.0697 107.961 85.3008 107.974 85.457 108C85.6198 108.026 85.7402 108.065 85.8184 108.117C86.0723 108.26 86.4238 108.553 86.873 108.996C86.9447 109.074 86.9805 109.152 86.9805 109.23C86.9805 109.315 86.9251 109.413 86.8145 109.523C86.6191 109.725 86.4336 109.898 86.2578 110.041C86.082 110.178 85.9388 110.282 85.8281 110.354C85.7305 110.412 85.6426 110.448 85.5645 110.461C85.4928 110.467 85.3919 110.471 85.2617 110.471C84.6237 110.471 84.3047 110.959 84.3047 111.936V113H86.0723C86.2676 113 86.401 113.042 86.4727 113.127C86.5508 113.205 86.5898 113.342 86.5898 113.537V114.738C86.5898 114.934 86.5508 115.074 86.4727 115.158C86.401 115.236 86.2676 115.275 86.0723 115.275H84.3047V122.482ZM87.6152 109.719C87.6152 109.634 87.6413 109.559 87.6934 109.494C87.7454 109.429 87.8138 109.344 87.8984 109.24C88.0807 109.032 88.2923 108.814 88.5332 108.586C88.7741 108.352 89.0182 108.127 89.2656 107.912C89.4219 107.788 89.5391 107.727 89.6172 107.727C89.6953 107.727 89.8158 107.788 89.9785 107.912C90.5059 108.368 90.9551 108.811 91.3262 109.24C91.4108 109.338 91.4792 109.423 91.5312 109.494C91.5898 109.559 91.6191 109.634 91.6191 109.719C91.6191 109.803 91.5898 109.878 91.5312 109.943C91.4792 110.008 91.4076 110.096 91.3164 110.207C91.1406 110.409 90.9355 110.627 90.7012 110.861C90.4668 111.089 90.2259 111.307 89.9785 111.516C89.8874 111.594 89.8158 111.646 89.7637 111.672C89.7116 111.691 89.6628 111.701 89.6172 111.701C89.5716 111.701 89.5228 111.691 89.4707 111.672C89.4251 111.646 89.3503 111.594 89.2461 111.516C88.9857 111.307 88.7415 111.089 88.5137 110.861C88.2858 110.627 88.0807 110.402 87.8984 110.188C87.8138 110.083 87.7454 110.002 87.6934 109.943C87.6413 109.878 87.6152 109.803 87.6152 109.719ZM91.1504 122.482C91.1504 122.678 91.1081 122.814 91.0234 122.893C90.9453 122.964 90.8086 123 90.6133 123H88.6016C88.4062 123 88.2663 122.964 88.1816 122.893C88.1035 122.814 88.0645 122.678 88.0645 122.482V113.518C88.0645 113.322 88.1035 113.189 88.1816 113.117C88.2663 113.039 88.4062 113 88.6016 113H90.6133C90.8086 113 90.9453 113.039 91.0234 113.117C91.1081 113.189 91.1504 113.322 91.1504 113.518V122.482ZM96.5898 123.244C95.8932 123.244 95.3138 123.186 94.8516 123.068C94.3958 122.951 94.028 122.811 93.748 122.648C93.4746 122.479 93.2598 122.326 93.1035 122.189C92.9863 122.079 92.9733 121.955 93.0645 121.818L94.0605 120.344C94.2038 120.135 94.3665 120.122 94.5488 120.305C94.7376 120.487 94.9915 120.666 95.3105 120.842C95.6361 121.011 96.0397 121.096 96.5215 121.096C96.9512 121.096 97.3027 121.024 97.5762 120.881C97.8561 120.731 97.9961 120.516 97.9961 120.236C97.9961 120.041 97.9342 119.882 97.8105 119.758C97.6868 119.634 97.4688 119.507 97.1562 119.377C96.8438 119.247 96.4076 119.081 95.8477 118.879C95.0208 118.579 94.3958 118.218 93.9727 117.795C93.5495 117.372 93.3379 116.753 93.3379 115.939C93.3379 115.191 93.543 114.582 93.9531 114.113C94.3698 113.645 94.9004 113.303 95.5449 113.088C96.196 112.867 96.873 112.756 97.5762 112.756C98.4681 112.756 99.0931 112.84 99.4512 113.01C99.8158 113.173 100.05 113.299 100.154 113.391C100.252 113.475 100.32 113.573 100.359 113.684C100.444 113.938 100.509 114.273 100.555 114.689C100.581 114.93 100.519 115.09 100.369 115.168C100.291 115.214 100.167 115.262 99.998 115.314C99.8288 115.367 99.6595 115.412 99.4902 115.451C99.321 115.49 99.194 115.51 99.1094 115.51C99.0833 115.51 99.054 115.503 99.0215 115.49C98.9954 115.471 98.9466 115.428 98.875 115.363C98.7904 115.279 98.6439 115.181 98.4355 115.07C98.2337 114.96 97.9538 114.904 97.5957 114.904C97.2441 114.904 96.9479 114.963 96.707 115.08C96.4727 115.191 96.3555 115.389 96.3555 115.676C96.3555 115.988 96.5052 116.223 96.8047 116.379C97.1107 116.535 97.612 116.737 98.3086 116.984C98.8555 117.173 99.3307 117.382 99.7344 117.609C100.145 117.831 100.46 118.124 100.682 118.488C100.903 118.846 101.014 119.331 101.014 119.943C101.014 120.738 100.796 121.379 100.359 121.867C99.9297 122.349 99.3763 122.701 98.6992 122.922C98.0286 123.137 97.3255 123.244 96.5898 123.244ZM105.711 123.244C105.014 123.244 104.435 123.186 103.973 123.068C103.517 122.951 103.149 122.811 102.869 122.648C102.596 122.479 102.381 122.326 102.225 122.189C102.107 122.079 102.094 121.955 102.186 121.818L103.182 120.344C103.325 120.135 103.488 120.122 103.67 120.305C103.859 120.487 104.113 120.666 104.432 120.842C104.757 121.011 105.161 121.096 105.643 121.096C106.072 121.096 106.424 121.024 106.697 120.881C106.977 120.731 107.117 120.516 107.117 120.236C107.117 120.041 107.055 119.882 106.932 119.758C106.808 119.634 106.59 119.507 106.277 119.377C105.965 119.247 105.529 119.081 104.969 118.879C104.142 118.579 103.517 118.218 103.094 117.795C102.671 117.372 102.459 116.753 102.459 115.939C102.459 115.191 102.664 114.582 103.074 114.113C103.491 113.645 104.021 113.303 104.666 113.088C105.317 112.867 105.994 112.756 106.697 112.756C107.589 112.756 108.214 112.84 108.572 113.01C108.937 113.173 109.171 113.299 109.275 113.391C109.373 113.475 109.441 113.573 109.48 113.684C109.565 113.938 109.63 114.273 109.676 114.689C109.702 114.93 109.64 115.09 109.49 115.168C109.412 115.214 109.288 115.262 109.119 115.314C108.95 115.367 108.781 115.412 108.611 115.451C108.442 115.49 108.315 115.51 108.23 115.51C108.204 115.51 108.175 115.503 108.143 115.49C108.117 115.471 108.068 115.428 107.996 115.363C107.911 115.279 107.765 115.181 107.557 115.07C107.355 114.96 107.075 114.904 106.717 114.904C106.365 114.904 106.069 114.963 105.828 115.08C105.594 115.191 105.477 115.389 105.477 115.676C105.477 115.988 105.626 116.223 105.926 116.379C106.232 116.535 106.733 116.737 107.43 116.984C107.977 117.173 108.452 117.382 108.855 117.609C109.266 117.831 109.581 118.124 109.803 118.488C110.024 118.846 110.135 119.331 110.135 119.943C110.135 120.738 109.917 121.379 109.48 121.867C109.051 122.349 108.497 122.701 107.82 122.922C107.15 123.137 106.447 123.244 105.711 123.244ZM111.6 109.719C111.6 109.634 111.626 109.559 111.678 109.494C111.73 109.429 111.798 109.344 111.883 109.24C112.065 109.032 112.277 108.814 112.518 108.586C112.758 108.352 113.003 108.127 113.25 107.912C113.406 107.788 113.523 107.727 113.602 107.727C113.68 107.727 113.8 107.788 113.963 107.912C114.49 108.368 114.939 108.811 115.311 109.24C115.395 109.338 115.464 109.423 115.516 109.494C115.574 109.559 115.604 109.634 115.604 109.719C115.604 109.803 115.574 109.878 115.516 109.943C115.464 110.008 115.392 110.096 115.301 110.207C115.125 110.409 114.92 110.627 114.686 110.861C114.451 111.089 114.21 111.307 113.963 111.516C113.872 111.594 113.8 111.646 113.748 111.672C113.696 111.691 113.647 111.701 113.602 111.701C113.556 111.701 113.507 111.691 113.455 111.672C113.41 111.646 113.335 111.594 113.23 111.516C112.97 111.307 112.726 111.089 112.498 110.861C112.27 110.627 112.065 110.402 111.883 110.188C111.798 110.083 111.73 110.002 111.678 109.943C111.626 109.878 111.6 109.803 111.6 109.719ZM115.135 122.482C115.135 122.678 115.092 122.814 115.008 122.893C114.93 122.964 114.793 123 114.598 123H112.586C112.391 123 112.251 122.964 112.166 122.893C112.088 122.814 112.049 122.678 112.049 122.482V113.518C112.049 113.322 112.088 113.189 112.166 113.117C112.251 113.039 112.391 113 112.586 113H114.598C114.793 113 114.93 113.039 115.008 113.117C115.092 113.189 115.135 113.322 115.135 113.518V122.482ZM122.586 123.244C120.945 123.244 119.646 122.808 118.689 121.936C117.732 121.063 117.254 119.764 117.254 118.039C117.254 116.268 117.749 114.947 118.738 114.074C119.734 113.195 121.062 112.756 122.723 112.756C124.324 112.756 125.607 113.189 126.57 114.055C127.534 114.914 128.016 116.184 128.016 117.863C128.016 119.615 127.534 120.949 126.57 121.867C125.607 122.785 124.279 123.244 122.586 123.244ZM122.684 120.881C123.4 120.881 123.94 120.66 124.305 120.217C124.669 119.768 124.852 119.003 124.852 117.922C124.852 116.893 124.666 116.171 124.295 115.754C123.93 115.331 123.387 115.119 122.664 115.119C121.967 115.119 121.417 115.347 121.014 115.803C120.617 116.252 120.418 116.984 120.418 118C120.418 119.061 120.607 119.807 120.984 120.236C121.368 120.666 121.935 120.881 122.684 120.881ZM139.783 116.779V122.482C139.783 122.678 139.741 122.814 139.656 122.893C139.578 122.964 139.441 123 139.246 123H137.234C137.039 123 136.899 122.964 136.814 122.893C136.736 122.814 136.697 122.678 136.697 122.482V117.287C136.697 116.577 136.548 116.06 136.248 115.734C135.949 115.409 135.542 115.246 135.027 115.246C134.513 115.246 134.116 115.357 133.836 115.578C133.562 115.799 133.351 116.079 133.201 116.418V122.482C133.201 122.678 133.159 122.814 133.074 122.893C132.996 122.964 132.859 123 132.664 123H130.652C130.457 123 130.317 122.964 130.232 122.893C130.154 122.814 130.115 122.678 130.115 122.482V114.299C130.115 114.143 130.148 114.022 130.213 113.938C130.35 113.755 130.512 113.57 130.701 113.381C130.896 113.192 131.134 112.99 131.414 112.775C131.499 112.71 131.58 112.678 131.658 112.678C131.73 112.678 131.811 112.71 131.902 112.775C132.176 112.99 132.41 113.195 132.605 113.391C132.801 113.586 132.973 113.788 133.123 113.996H133.172C133.283 113.853 133.449 113.687 133.67 113.498C133.891 113.303 134.201 113.13 134.598 112.98C135.001 112.831 135.516 112.756 136.141 112.756C136.753 112.756 137.335 112.88 137.889 113.127C138.442 113.374 138.895 113.791 139.246 114.377C139.604 114.963 139.783 115.764 139.783 116.779ZM145.008 123.244C144.051 123.244 143.289 122.977 142.723 122.443C142.163 121.903 141.883 121.161 141.883 120.217C141.883 119.729 141.971 119.276 142.146 118.859C142.329 118.436 142.641 118.065 143.084 117.746C143.533 117.421 144.158 117.16 144.959 116.965C145.766 116.77 146.795 116.656 148.045 116.623C148.045 116.031 147.895 115.604 147.596 115.344C147.303 115.083 146.86 114.953 146.268 114.953C145.734 114.953 145.298 115.044 144.959 115.227C144.62 115.409 144.409 115.533 144.324 115.598C144.233 115.676 144.122 115.705 143.992 115.686C143.816 115.66 143.628 115.614 143.426 115.549C143.23 115.484 143.019 115.409 142.791 115.324C142.758 115.311 142.723 115.292 142.684 115.266C142.645 115.233 142.622 115.188 142.615 115.129C142.615 115.096 142.618 115.057 142.625 115.012C142.632 114.96 142.648 114.868 142.674 114.738C142.7 114.608 142.739 114.449 142.791 114.26C142.843 114.064 142.892 113.915 142.938 113.811C142.996 113.7 143.094 113.596 143.23 113.498C143.341 113.407 143.676 113.26 144.236 113.059C144.796 112.857 145.607 112.756 146.668 112.756C149.591 112.756 151.053 114.178 151.053 117.023V122.551C151.053 122.674 151.017 122.782 150.945 122.873C150.88 122.958 150.766 123 150.604 123H149.139C149.035 123 148.94 122.987 148.855 122.961C148.777 122.928 148.702 122.87 148.631 122.785L148.025 122.004H147.957C147.658 122.44 147.254 122.756 146.746 122.951C146.245 123.146 145.665 123.244 145.008 123.244ZM146.082 120.979C146.681 120.979 147.133 120.826 147.439 120.52C147.745 120.214 147.941 119.898 148.025 119.572V118.488C147.12 118.488 146.44 118.56 145.984 118.703C145.535 118.84 145.236 119.022 145.086 119.25C144.936 119.471 144.861 119.712 144.861 119.973C144.861 120.35 144.979 120.614 145.213 120.764C145.447 120.907 145.737 120.979 146.082 120.979ZM153.24 109.719C153.24 109.634 153.266 109.559 153.318 109.494C153.37 109.429 153.439 109.344 153.523 109.24C153.706 109.032 153.917 108.814 154.158 108.586C154.399 108.352 154.643 108.127 154.891 107.912C155.047 107.788 155.164 107.727 155.242 107.727C155.32 107.727 155.441 107.788 155.604 107.912C156.131 108.368 156.58 108.811 156.951 109.24C157.036 109.338 157.104 109.423 157.156 109.494C157.215 109.559 157.244 109.634 157.244 109.719C157.244 109.803 157.215 109.878 157.156 109.943C157.104 110.008 157.033 110.096 156.941 110.207C156.766 110.409 156.561 110.627 156.326 110.861C156.092 111.089 155.851 111.307 155.604 111.516C155.512 111.594 155.441 111.646 155.389 111.672C155.337 111.691 155.288 111.701 155.242 111.701C155.197 111.701 155.148 111.691 155.096 111.672C155.05 111.646 154.975 111.594 154.871 111.516C154.611 111.307 154.367 111.089 154.139 110.861C153.911 110.627 153.706 110.402 153.523 110.188C153.439 110.083 153.37 110.002 153.318 109.943C153.266 109.878 153.24 109.803 153.24 109.719ZM156.775 122.482C156.775 122.678 156.733 122.814 156.648 122.893C156.57 122.964 156.434 123 156.238 123H154.227C154.031 123 153.891 122.964 153.807 122.893C153.729 122.814 153.689 122.678 153.689 122.482V113.518C153.689 113.322 153.729 113.189 153.807 113.117C153.891 113.039 154.031 113 154.227 113H156.238C156.434 113 156.57 113.039 156.648 113.117C156.733 113.189 156.775 113.322 156.775 113.518V122.482ZM162.215 123.244C161.518 123.244 160.939 123.186 160.477 123.068C160.021 122.951 159.653 122.811 159.373 122.648C159.1 122.479 158.885 122.326 158.729 122.189C158.611 122.079 158.598 121.955 158.689 121.818L159.686 120.344C159.829 120.135 159.992 120.122 160.174 120.305C160.363 120.487 160.617 120.666 160.936 120.842C161.261 121.011 161.665 121.096 162.146 121.096C162.576 121.096 162.928 121.024 163.201 120.881C163.481 120.731 163.621 120.516 163.621 120.236C163.621 120.041 163.559 119.882 163.436 119.758C163.312 119.634 163.094 119.507 162.781 119.377C162.469 119.247 162.033 119.081 161.473 118.879C160.646 118.579 160.021 118.218 159.598 117.795C159.174 117.372 158.963 116.753 158.963 115.939C158.963 115.191 159.168 114.582 159.578 114.113C159.995 113.645 160.525 113.303 161.17 113.088C161.821 112.867 162.498 112.756 163.201 112.756C164.093 112.756 164.718 112.84 165.076 113.01C165.441 113.173 165.675 113.299 165.779 113.391C165.877 113.475 165.945 113.573 165.984 113.684C166.069 113.938 166.134 114.273 166.18 114.689C166.206 114.93 166.144 115.09 165.994 115.168C165.916 115.214 165.792 115.262 165.623 115.314C165.454 115.367 165.285 115.412 165.115 115.451C164.946 115.49 164.819 115.51 164.734 115.51C164.708 115.51 164.679 115.503 164.646 115.49C164.62 115.471 164.572 115.428 164.5 115.363C164.415 115.279 164.269 115.181 164.061 115.07C163.859 114.96 163.579 114.904 163.221 114.904C162.869 114.904 162.573 114.963 162.332 115.08C162.098 115.191 161.98 115.389 161.98 115.676C161.98 115.988 162.13 116.223 162.43 116.379C162.736 116.535 163.237 116.737 163.934 116.984C164.48 117.173 164.956 117.382 165.359 117.609C165.77 117.831 166.085 118.124 166.307 118.488C166.528 118.846 166.639 119.331 166.639 119.943C166.639 120.738 166.421 121.379 165.984 121.867C165.555 122.349 165.001 122.701 164.324 122.922C163.654 123.137 162.951 123.244 162.215 123.244ZM179.061 112.756C179.835 112.756 180.398 112.821 180.75 112.951C181.102 113.075 181.323 113.173 181.414 113.244C181.557 113.335 181.668 113.452 181.746 113.596C181.792 113.667 181.844 113.791 181.902 113.967C181.961 114.143 182.003 114.335 182.029 114.543C182.062 114.706 182.065 114.823 182.039 114.895C182.013 114.96 181.932 115.041 181.795 115.139C181.639 115.243 181.466 115.337 181.277 115.422C181.095 115.5 180.945 115.555 180.828 115.588C180.73 115.614 180.656 115.62 180.604 115.607C180.551 115.594 180.48 115.555 180.389 115.49C180.285 115.419 180.138 115.34 179.949 115.256C179.76 115.165 179.5 115.119 179.168 115.119C178.745 115.119 178.341 115.223 177.957 115.432C177.579 115.64 177.27 115.952 177.029 116.369C176.795 116.786 176.678 117.307 176.678 117.932C176.678 118.869 176.922 119.595 177.41 120.109C177.905 120.624 178.566 120.881 179.393 120.881C179.816 120.881 180.167 120.839 180.447 120.754C180.727 120.663 180.949 120.572 181.111 120.48C181.242 120.409 181.339 120.393 181.404 120.432C181.476 120.464 181.531 120.526 181.57 120.617L182.283 122.229C182.355 122.398 182.316 122.518 182.166 122.59C181.925 122.714 181.528 122.854 180.975 123.01C180.421 123.166 179.738 123.244 178.924 123.244C177.29 123.244 175.984 122.811 175.008 121.945C174.031 121.073 173.543 119.771 173.543 118.039C173.543 116.932 173.768 115.985 174.217 115.197C174.666 114.41 175.304 113.807 176.131 113.391C176.958 112.967 177.934 112.756 179.061 112.756ZM186.473 123.244C185.516 123.244 184.754 122.977 184.188 122.443C183.628 121.903 183.348 121.161 183.348 120.217C183.348 119.729 183.436 119.276 183.611 118.859C183.794 118.436 184.106 118.065 184.549 117.746C184.998 117.421 185.623 117.16 186.424 116.965C187.231 116.77 188.26 116.656 189.51 116.623C189.51 116.031 189.36 115.604 189.061 115.344C188.768 115.083 188.325 114.953 187.732 114.953C187.199 114.953 186.762 115.044 186.424 115.227C186.085 115.409 185.874 115.533 185.789 115.598C185.698 115.676 185.587 115.705 185.457 115.686C185.281 115.66 185.092 115.614 184.891 115.549C184.695 115.484 184.484 115.409 184.256 115.324C184.223 115.311 184.188 115.292 184.148 115.266C184.109 115.233 184.087 115.188 184.08 115.129C184.08 115.096 184.083 115.057 184.09 115.012C184.096 114.96 184.113 114.868 184.139 114.738C184.165 114.608 184.204 114.449 184.256 114.26C184.308 114.064 184.357 113.915 184.402 113.811C184.461 113.7 184.559 113.596 184.695 113.498C184.806 113.407 185.141 113.26 185.701 113.059C186.261 112.857 187.072 112.756 188.133 112.756C191.056 112.756 192.518 114.178 192.518 117.023V122.551C192.518 122.674 192.482 122.782 192.41 122.873C192.345 122.958 192.231 123 192.068 123H190.604C190.499 123 190.405 122.987 190.32 122.961C190.242 122.928 190.167 122.87 190.096 122.785L189.49 122.004H189.422C189.122 122.44 188.719 122.756 188.211 122.951C187.71 123.146 187.13 123.244 186.473 123.244ZM187.547 120.979C188.146 120.979 188.598 120.826 188.904 120.52C189.21 120.214 189.406 119.898 189.49 119.572V118.488C188.585 118.488 187.905 118.56 187.449 118.703C187 118.84 186.701 119.022 186.551 119.25C186.401 119.471 186.326 119.712 186.326 119.973C186.326 120.35 186.443 120.614 186.678 120.764C186.912 120.907 187.202 120.979 187.547 120.979ZM201.277 112.756C202.228 112.756 203.009 112.971 203.621 113.4C204.24 113.824 204.699 114.41 204.998 115.158C205.304 115.9 205.457 116.753 205.457 117.717C205.457 118.758 205.278 119.696 204.92 120.529C204.568 121.363 204.048 122.023 203.357 122.512C202.667 123 201.811 123.244 200.789 123.244C200.262 123.244 199.826 123.182 199.48 123.059C199.142 122.941 198.868 122.801 198.66 122.639C198.458 122.469 198.299 122.316 198.182 122.18H198.143V126.34C198.143 126.496 198.11 126.617 198.045 126.701C197.771 127.059 197.371 127.447 196.844 127.863C196.753 127.928 196.671 127.961 196.6 127.961C196.521 127.961 196.44 127.928 196.355 127.863C196.076 127.648 195.838 127.447 195.643 127.258C195.454 127.069 195.291 126.883 195.154 126.701C195.089 126.617 195.057 126.496 195.057 126.34V114.299C195.057 114.143 195.089 114.022 195.154 113.938C195.291 113.755 195.454 113.57 195.643 113.381C195.838 113.192 196.076 112.99 196.355 112.775C196.44 112.71 196.528 112.678 196.619 112.678C196.704 112.678 196.792 112.71 196.883 112.775C197.156 112.99 197.391 113.195 197.586 113.391C197.781 113.586 197.954 113.788 198.104 113.996H198.152C198.263 113.859 198.432 113.693 198.66 113.498C198.888 113.303 199.21 113.13 199.627 112.98C200.05 112.831 200.6 112.756 201.277 112.756ZM200.076 120.754C200.779 120.754 201.323 120.51 201.707 120.021C202.098 119.527 202.293 118.814 202.293 117.883C202.293 116.125 201.57 115.246 200.125 115.246C199.513 115.246 199.061 115.373 198.768 115.627C198.475 115.874 198.266 116.138 198.143 116.418V118.537C198.143 119.169 198.305 119.696 198.631 120.119C198.956 120.542 199.438 120.754 200.076 120.754ZM210.145 123.244C209.188 123.244 208.426 122.977 207.859 122.443C207.299 121.903 207.02 121.161 207.02 120.217C207.02 119.729 207.107 119.276 207.283 118.859C207.465 118.436 207.778 118.065 208.221 117.746C208.67 117.421 209.295 117.16 210.096 116.965C210.903 116.77 211.932 116.656 213.182 116.623C213.182 116.031 213.032 115.604 212.732 115.344C212.439 115.083 211.997 114.953 211.404 114.953C210.87 114.953 210.434 115.044 210.096 115.227C209.757 115.409 209.546 115.533 209.461 115.598C209.37 115.676 209.259 115.705 209.129 115.686C208.953 115.66 208.764 115.614 208.562 115.549C208.367 115.484 208.156 115.409 207.928 115.324C207.895 115.311 207.859 115.292 207.82 115.266C207.781 115.233 207.758 115.188 207.752 115.129C207.752 115.096 207.755 115.057 207.762 115.012C207.768 114.96 207.785 114.868 207.811 114.738C207.837 114.608 207.876 114.449 207.928 114.26C207.98 114.064 208.029 113.915 208.074 113.811C208.133 113.7 208.23 113.596 208.367 113.498C208.478 113.407 208.813 113.26 209.373 113.059C209.933 112.857 210.743 112.756 211.805 112.756C214.728 112.756 216.189 114.178 216.189 117.023V122.551C216.189 122.674 216.154 122.782 216.082 122.873C216.017 122.958 215.903 123 215.74 123H214.275C214.171 123 214.077 122.987 213.992 122.961C213.914 122.928 213.839 122.87 213.768 122.785L213.162 122.004H213.094C212.794 122.44 212.391 122.756 211.883 122.951C211.382 123.146 210.802 123.244 210.145 123.244ZM211.219 120.979C211.818 120.979 212.27 120.826 212.576 120.52C212.882 120.214 213.077 119.898 213.162 119.572V118.488C212.257 118.488 211.577 118.56 211.121 118.703C210.672 118.84 210.372 119.022 210.223 119.25C210.073 119.471 209.998 119.712 209.998 119.973C209.998 120.35 210.115 120.614 210.35 120.764C210.584 120.907 210.874 120.979 211.219 120.979ZM223.807 112.756C224.581 112.756 225.145 112.821 225.496 112.951C225.848 113.075 226.069 113.173 226.16 113.244C226.303 113.335 226.414 113.452 226.492 113.596C226.538 113.667 226.59 113.791 226.648 113.967C226.707 114.143 226.749 114.335 226.775 114.543C226.808 114.706 226.811 114.823 226.785 114.895C226.759 114.96 226.678 115.041 226.541 115.139C226.385 115.243 226.212 115.337 226.023 115.422C225.841 115.5 225.691 115.555 225.574 115.588C225.477 115.614 225.402 115.62 225.35 115.607C225.298 115.594 225.226 115.555 225.135 115.49C225.031 115.419 224.884 115.34 224.695 115.256C224.507 115.165 224.246 115.119 223.914 115.119C223.491 115.119 223.087 115.223 222.703 115.432C222.326 115.64 222.016 115.952 221.775 116.369C221.541 116.786 221.424 117.307 221.424 117.932C221.424 118.869 221.668 119.595 222.156 120.109C222.651 120.624 223.312 120.881 224.139 120.881C224.562 120.881 224.913 120.839 225.193 120.754C225.473 120.663 225.695 120.572 225.857 120.48C225.988 120.409 226.085 120.393 226.15 120.432C226.222 120.464 226.277 120.526 226.316 120.617L227.029 122.229C227.101 122.398 227.062 122.518 226.912 122.59C226.671 122.714 226.274 122.854 225.721 123.01C225.167 123.166 224.484 123.244 223.67 123.244C222.036 123.244 220.73 122.811 219.754 121.945C218.777 121.073 218.289 119.771 218.289 118.039C218.289 116.932 218.514 115.985 218.963 115.197C219.412 114.41 220.05 113.807 220.877 113.391C221.704 112.967 222.68 112.756 223.807 112.756ZM228.182 109.719C228.182 109.634 228.208 109.559 228.26 109.494C228.312 109.429 228.38 109.344 228.465 109.24C228.647 109.032 228.859 108.814 229.1 108.586C229.34 108.352 229.585 108.127 229.832 107.912C229.988 107.788 230.105 107.727 230.184 107.727C230.262 107.727 230.382 107.788 230.545 107.912C231.072 108.368 231.521 108.811 231.893 109.24C231.977 109.338 232.046 109.423 232.098 109.494C232.156 109.559 232.186 109.634 232.186 109.719C232.186 109.803 232.156 109.878 232.098 109.943C232.046 110.008 231.974 110.096 231.883 110.207C231.707 110.409 231.502 110.627 231.268 110.861C231.033 111.089 230.792 111.307 230.545 111.516C230.454 111.594 230.382 111.646 230.33 111.672C230.278 111.691 230.229 111.701 230.184 111.701C230.138 111.701 230.089 111.691 230.037 111.672C229.992 111.646 229.917 111.594 229.812 111.516C229.552 111.307 229.308 111.089 229.08 110.861C228.852 110.627 228.647 110.402 228.465 110.188C228.38 110.083 228.312 110.002 228.26 109.943C228.208 109.878 228.182 109.803 228.182 109.719ZM231.717 122.482C231.717 122.678 231.674 122.814 231.59 122.893C231.512 122.964 231.375 123 231.18 123H229.168C228.973 123 228.833 122.964 228.748 122.893C228.67 122.814 228.631 122.678 228.631 122.482V113.518C228.631 113.322 228.67 113.189 228.748 113.117C228.833 113.039 228.973 113 229.168 113H231.18C231.375 113 231.512 113.039 231.59 113.117C231.674 113.189 231.717 113.322 231.717 113.518V122.482ZM238.328 123.244C236.154 123.244 235.066 122.115 235.066 119.855V115.275H233.963C233.768 115.275 233.631 115.236 233.553 115.158C233.481 115.074 233.445 114.934 233.445 114.738V113.537C233.445 113.342 233.481 113.205 233.553 113.127C233.631 113.042 233.768 113 233.963 113H235.066V111.428C235.066 111.271 235.099 111.151 235.164 111.066C235.438 110.708 235.838 110.321 236.365 109.904C236.456 109.839 236.538 109.807 236.609 109.807C236.688 109.807 236.766 109.839 236.844 109.904C237.124 110.119 237.358 110.321 237.547 110.51C237.742 110.699 237.908 110.884 238.045 111.066C238.11 111.151 238.143 111.271 238.143 111.428V113H239.871C240.066 113 240.2 113.042 240.271 113.127C240.35 113.205 240.389 113.342 240.389 113.537V114.738C240.389 114.934 240.35 115.074 240.271 115.158C240.2 115.236 240.066 115.275 239.871 115.275H238.143V119.318C238.143 120.36 238.52 120.881 239.275 120.881C239.393 120.881 239.5 120.871 239.598 120.852C239.695 120.826 239.78 120.799 239.852 120.773C239.988 120.721 240.083 120.702 240.135 120.715C240.193 120.728 240.245 120.799 240.291 120.93L240.857 122.443C240.916 122.606 240.877 122.723 240.74 122.795C240.643 122.84 240.405 122.925 240.027 123.049C239.656 123.179 239.09 123.244 238.328 123.244ZM245.086 123.244C244.129 123.244 243.367 122.977 242.801 122.443C242.241 121.903 241.961 121.161 241.961 120.217C241.961 119.729 242.049 119.276 242.225 118.859C242.407 118.436 242.719 118.065 243.162 117.746C243.611 117.421 244.236 117.16 245.037 116.965C245.844 116.77 246.873 116.656 248.123 116.623C248.123 116.031 247.973 115.604 247.674 115.344C247.381 115.083 246.938 114.953 246.346 114.953C245.812 114.953 245.376 115.044 245.037 115.227C244.699 115.409 244.487 115.533 244.402 115.598C244.311 115.676 244.201 115.705 244.07 115.686C243.895 115.66 243.706 115.614 243.504 115.549C243.309 115.484 243.097 115.409 242.869 115.324C242.837 115.311 242.801 115.292 242.762 115.266C242.723 115.233 242.7 115.188 242.693 115.129C242.693 115.096 242.697 115.057 242.703 115.012C242.71 114.96 242.726 114.868 242.752 114.738C242.778 114.608 242.817 114.449 242.869 114.26C242.921 114.064 242.97 113.915 243.016 113.811C243.074 113.7 243.172 113.596 243.309 113.498C243.419 113.407 243.755 113.26 244.314 113.059C244.874 112.857 245.685 112.756 246.746 112.756C249.669 112.756 251.131 114.178 251.131 117.023V122.551C251.131 122.674 251.095 122.782 251.023 122.873C250.958 122.958 250.844 123 250.682 123H249.217C249.113 123 249.018 122.987 248.934 122.961C248.855 122.928 248.781 122.87 248.709 122.785L248.104 122.004H248.035C247.736 122.44 247.332 122.756 246.824 122.951C246.323 123.146 245.743 123.244 245.086 123.244ZM246.16 120.979C246.759 120.979 247.212 120.826 247.518 120.52C247.824 120.214 248.019 119.898 248.104 119.572V118.488C247.199 118.488 246.518 118.56 246.062 118.703C245.613 118.84 245.314 119.022 245.164 119.25C245.014 119.471 244.939 119.712 244.939 119.973C244.939 120.35 245.057 120.614 245.291 120.764C245.525 120.907 245.815 120.979 246.16 120.979ZM257.303 123.244C256.437 123.244 255.698 123.033 255.086 122.609C254.48 122.18 254.018 121.59 253.699 120.842C253.387 120.087 253.23 119.217 253.23 118.234C253.23 116.939 253.458 115.891 253.914 115.09C254.376 114.283 255.024 113.69 255.857 113.312C256.697 112.935 257.687 112.746 258.826 112.746C259.217 112.746 259.539 112.766 259.793 112.805C260.053 112.844 260.239 112.88 260.35 112.912V109.27C260.35 109.113 260.382 108.993 260.447 108.908C260.721 108.55 261.121 108.163 261.648 107.746C261.74 107.681 261.821 107.648 261.893 107.648C261.977 107.648 262.059 107.681 262.137 107.746C262.417 107.961 262.651 108.163 262.84 108.352C263.035 108.54 263.201 108.726 263.338 108.908C263.403 108.993 263.436 109.113 263.436 109.27V122.551C263.436 122.674 263.393 122.782 263.309 122.873C263.224 122.958 263.117 123 262.986 123H261.531C261.427 123 261.333 122.987 261.248 122.961C261.17 122.928 261.095 122.87 261.023 122.785L260.418 122.004H260.35C260.265 122.134 260.112 122.3 259.891 122.502C259.676 122.697 259.36 122.87 258.943 123.02C258.533 123.169 257.986 123.244 257.303 123.244ZM258.25 120.744C258.836 120.744 259.295 120.633 259.627 120.412C259.965 120.191 260.206 119.911 260.35 119.572V115.48C260.245 115.415 260.073 115.337 259.832 115.246C259.591 115.155 259.253 115.109 258.816 115.109C258.009 115.109 257.404 115.373 257 115.9C256.596 116.428 256.395 117.137 256.395 118.029C256.395 118.954 256.564 119.637 256.902 120.08C257.241 120.523 257.69 120.744 258.25 120.744ZM270.867 123.244C269.227 123.244 267.928 122.808 266.971 121.936C266.014 121.063 265.535 119.764 265.535 118.039C265.535 116.268 266.03 114.947 267.02 114.074C268.016 113.195 269.344 112.756 271.004 112.756C272.605 112.756 273.888 113.189 274.852 114.055C275.815 114.914 276.297 116.184 276.297 117.863C276.297 119.615 275.815 120.949 274.852 121.867C273.888 122.785 272.56 123.244 270.867 123.244ZM270.965 120.881C271.681 120.881 272.221 120.66 272.586 120.217C272.951 119.768 273.133 119.003 273.133 117.922C273.133 116.893 272.947 116.171 272.576 115.754C272.212 115.331 271.668 115.119 270.945 115.119C270.249 115.119 269.699 115.347 269.295 115.803C268.898 116.252 268.699 116.984 268.699 118C268.699 119.061 268.888 119.807 269.266 120.236C269.65 120.666 270.216 120.881 270.965 120.881ZM281.18 123.244C280.483 123.244 279.904 123.186 279.441 123.068C278.986 122.951 278.618 122.811 278.338 122.648C278.064 122.479 277.85 122.326 277.693 122.189C277.576 122.079 277.563 121.955 277.654 121.818L278.65 120.344C278.794 120.135 278.956 120.122 279.139 120.305C279.327 120.487 279.581 120.666 279.9 120.842C280.226 121.011 280.63 121.096 281.111 121.096C281.541 121.096 281.893 121.024 282.166 120.881C282.446 120.731 282.586 120.516 282.586 120.236C282.586 120.041 282.524 119.882 282.4 119.758C282.277 119.634 282.059 119.507 281.746 119.377C281.434 119.247 280.997 119.081 280.438 118.879C279.611 118.579 278.986 118.218 278.562 117.795C278.139 117.372 277.928 116.753 277.928 115.939C277.928 115.191 278.133 114.582 278.543 114.113C278.96 113.645 279.49 113.303 280.135 113.088C280.786 112.867 281.463 112.756 282.166 112.756C283.058 112.756 283.683 112.84 284.041 113.01C284.406 113.173 284.64 113.299 284.744 113.391C284.842 113.475 284.91 113.573 284.949 113.684C285.034 113.938 285.099 114.273 285.145 114.689C285.171 114.93 285.109 115.09 284.959 115.168C284.881 115.214 284.757 115.262 284.588 115.314C284.419 115.367 284.249 115.412 284.08 115.451C283.911 115.49 283.784 115.51 283.699 115.51C283.673 115.51 283.644 115.503 283.611 115.49C283.585 115.471 283.536 115.428 283.465 115.363C283.38 115.279 283.234 115.181 283.025 115.07C282.824 114.96 282.544 114.904 282.186 114.904C281.834 114.904 281.538 114.963 281.297 115.08C281.062 115.191 280.945 115.389 280.945 115.676C280.945 115.988 281.095 116.223 281.395 116.379C281.701 116.535 282.202 116.737 282.898 116.984C283.445 117.173 283.921 117.382 284.324 117.609C284.734 117.831 285.05 118.124 285.271 118.488C285.493 118.846 285.604 119.331 285.604 119.943C285.604 120.738 285.385 121.379 284.949 121.867C284.52 122.349 283.966 122.701 283.289 122.922C282.618 123.137 281.915 123.244 281.18 123.244ZM297.947 123.244C296.847 123.244 295.89 123.068 295.076 122.717C294.262 122.359 293.631 121.805 293.182 121.057C292.732 120.308 292.508 119.341 292.508 118.156C292.508 116.379 292.964 115.035 293.875 114.123C294.786 113.212 295.997 112.756 297.508 112.756C298.491 112.756 299.321 112.932 299.998 113.283C300.682 113.635 301.199 114.12 301.551 114.738C301.909 115.357 302.088 116.063 302.088 116.857C302.088 117.632 301.889 118.173 301.492 118.479C301.095 118.785 300.516 118.938 299.754 118.938H295.564C295.617 119.608 295.861 120.119 296.297 120.471C296.74 120.822 297.339 120.998 298.094 120.998C298.693 120.998 299.171 120.91 299.529 120.734C299.894 120.552 300.148 120.409 300.291 120.305C300.415 120.214 300.555 120.171 300.711 120.178C300.835 120.178 301.01 120.204 301.238 120.256C301.473 120.301 301.704 120.389 301.932 120.52C302.094 120.604 302.176 120.721 302.176 120.871C302.176 120.956 302.16 121.076 302.127 121.232C302.107 121.324 302.075 121.457 302.029 121.633C301.984 121.802 301.925 121.962 301.854 122.111C301.814 122.183 301.753 122.251 301.668 122.316C301.538 122.408 301.326 122.528 301.033 122.678C300.747 122.827 300.353 122.958 299.852 123.068C299.35 123.186 298.715 123.244 297.947 123.244ZM295.545 116.936H298.729C299.061 116.936 299.227 116.783 299.227 116.477C299.227 116.014 299.08 115.627 298.787 115.314C298.501 114.995 298.068 114.836 297.488 114.836C296.857 114.836 296.391 115.038 296.092 115.441C295.799 115.845 295.617 116.343 295.545 116.936ZM51.8535 149.244C50.9876 149.244 50.2487 149.033 49.6367 148.609C49.0312 148.18 48.569 147.59 48.25 146.842C47.9375 146.087 47.7812 145.217 47.7812 144.234C47.7812 142.939 48.0091 141.891 48.4648 141.09C48.9271 140.283 49.5749 139.69 50.4082 139.312C51.248 138.935 52.2376 138.746 53.377 138.746C53.7676 138.746 54.0898 138.766 54.3438 138.805C54.6042 138.844 54.7897 138.88 54.9004 138.912V135.27C54.9004 135.113 54.9329 134.993 54.998 134.908C55.2715 134.55 55.6719 134.163 56.1992 133.746C56.2904 133.681 56.3717 133.648 56.4434 133.648C56.528 133.648 56.6094 133.681 56.6875 133.746C56.9674 133.961 57.2018 134.163 57.3906 134.352C57.5859 134.54 57.752 134.726 57.8887 134.908C57.9538 134.993 57.9863 135.113 57.9863 135.27V148.551C57.9863 148.674 57.944 148.782 57.8594 148.873C57.7747 148.958 57.6673 149 57.5371 149H56.082C55.9779 149 55.8835 148.987 55.7988 148.961C55.7207 148.928 55.6458 148.87 55.5742 148.785L54.9688 148.004H54.9004C54.8158 148.134 54.6628 148.3 54.4414 148.502C54.2266 148.697 53.9108 148.87 53.4941 149.02C53.084 149.169 52.5371 149.244 51.8535 149.244ZM52.8008 146.744C53.3867 146.744 53.8457 146.633 54.1777 146.412C54.5163 146.191 54.7572 145.911 54.9004 145.572V141.48C54.7962 141.415 54.6237 141.337 54.3828 141.246C54.1419 141.155 53.8034 141.109 53.3672 141.109C52.5599 141.109 51.9544 141.373 51.5508 141.9C51.1471 142.428 50.9453 143.137 50.9453 144.029C50.9453 144.954 51.1146 145.637 51.4531 146.08C51.7917 146.523 52.2409 146.744 52.8008 146.744ZM65.5254 149.244C64.4251 149.244 63.4681 149.068 62.6543 148.717C61.8405 148.359 61.209 147.805 60.7598 147.057C60.3105 146.308 60.0859 145.341 60.0859 144.156C60.0859 142.379 60.5417 141.035 61.4531 140.123C62.3646 139.212 63.5755 138.756 65.0859 138.756C66.069 138.756 66.8991 138.932 67.5762 139.283C68.2598 139.635 68.7773 140.12 69.1289 140.738C69.487 141.357 69.666 142.063 69.666 142.857C69.666 143.632 69.4674 144.173 69.0703 144.479C68.6732 144.785 68.0938 144.938 67.332 144.938H63.1426C63.1947 145.608 63.4388 146.119 63.875 146.471C64.3177 146.822 64.9167 146.998 65.6719 146.998C66.2708 146.998 66.7493 146.91 67.1074 146.734C67.472 146.552 67.7259 146.409 67.8691 146.305C67.9928 146.214 68.1328 146.171 68.2891 146.178C68.4128 146.178 68.5885 146.204 68.8164 146.256C69.0508 146.301 69.2819 146.389 69.5098 146.52C69.6725 146.604 69.7539 146.721 69.7539 146.871C69.7539 146.956 69.7376 147.076 69.7051 147.232C69.6855 147.324 69.653 147.457 69.6074 147.633C69.5618 147.802 69.5033 147.962 69.4316 148.111C69.3926 148.183 69.3307 148.251 69.2461 148.316C69.1159 148.408 68.9043 148.528 68.6113 148.678C68.3249 148.827 67.931 148.958 67.4297 149.068C66.9284 149.186 66.2936 149.244 65.5254 149.244ZM63.123 142.936H66.3066C66.6387 142.936 66.8047 142.783 66.8047 142.477C66.8047 142.014 66.6582 141.627 66.3652 141.314C66.0788 140.995 65.6458 140.836 65.0664 140.836C64.4349 140.836 63.9694 141.038 63.6699 141.441C63.377 141.845 63.1947 142.343 63.123 142.936ZM75.3496 149.244C74.4837 149.244 73.7448 149.033 73.1328 148.609C72.5273 148.18 72.0651 147.59 71.7461 146.842C71.4336 146.087 71.2773 145.217 71.2773 144.234C71.2773 142.939 71.5052 141.891 71.9609 141.09C72.4232 140.283 73.071 139.69 73.9043 139.312C74.7441 138.935 75.7337 138.746 76.873 138.746C77.2637 138.746 77.5859 138.766 77.8398 138.805C78.1003 138.844 78.2858 138.88 78.3965 138.912V135.27C78.3965 135.113 78.429 134.993 78.4941 134.908C78.7676 134.55 79.168 134.163 79.6953 133.746C79.7865 133.681 79.8678 133.648 79.9395 133.648C80.0241 133.648 80.1055 133.681 80.1836 133.746C80.4635 133.961 80.6979 134.163 80.8867 134.352C81.082 134.54 81.248 134.726 81.3848 134.908C81.4499 134.993 81.4824 135.113 81.4824 135.27V148.551C81.4824 148.674 81.4401 148.782 81.3555 148.873C81.2708 148.958 81.1634 149 81.0332 149H79.5781C79.474 149 79.3796 148.987 79.2949 148.961C79.2168 148.928 79.1419 148.87 79.0703 148.785L78.4648 148.004H78.3965C78.3118 148.134 78.1589 148.3 77.9375 148.502C77.7227 148.697 77.4069 148.87 76.9902 149.02C76.5801 149.169 76.0332 149.244 75.3496 149.244ZM76.2969 146.744C76.8828 146.744 77.3418 146.633 77.6738 146.412C78.0124 146.191 78.2533 145.911 78.3965 145.572V141.48C78.2923 141.415 78.1198 141.337 77.8789 141.246C77.638 141.155 77.2995 141.109 76.8633 141.109C76.056 141.109 75.4505 141.373 75.0469 141.9C74.6432 142.428 74.4414 143.137 74.4414 144.029C74.4414 144.954 74.6107 145.637 74.9492 146.08C75.2878 146.523 75.737 146.744 76.2969 146.744ZM83.6699 135.719C83.6699 135.634 83.696 135.559 83.748 135.494C83.8001 135.429 83.8685 135.344 83.9531 135.24C84.1354 135.032 84.347 134.814 84.5879 134.586C84.8288 134.352 85.0729 134.127 85.3203 133.912C85.4766 133.788 85.5938 133.727 85.6719 133.727C85.75 133.727 85.8704 133.788 86.0332 133.912C86.5605 134.368 87.0098 134.811 87.3809 135.24C87.4655 135.338 87.5339 135.423 87.5859 135.494C87.6445 135.559 87.6738 135.634 87.6738 135.719C87.6738 135.803 87.6445 135.878 87.5859 135.943C87.5339 136.008 87.4622 136.096 87.3711 136.207C87.1953 136.409 86.9902 136.627 86.7559 136.861C86.5215 137.089 86.2806 137.307 86.0332 137.516C85.9421 137.594 85.8704 137.646 85.8184 137.672C85.7663 137.691 85.7174 137.701 85.6719 137.701C85.6263 137.701 85.5775 137.691 85.5254 137.672C85.4798 137.646 85.4049 137.594 85.3008 137.516C85.0404 137.307 84.7962 137.089 84.5684 136.861C84.3405 136.627 84.1354 136.402 83.9531 136.188C83.8685 136.083 83.8001 136.002 83.748 135.943C83.696 135.878 83.6699 135.803 83.6699 135.719ZM87.2051 148.482C87.2051 148.678 87.1628 148.814 87.0781 148.893C87 148.964 86.8633 149 86.668 149H84.6562C84.4609 149 84.321 148.964 84.2363 148.893C84.1582 148.814 84.1191 148.678 84.1191 148.482V139.518C84.1191 139.322 84.1582 139.189 84.2363 139.117C84.321 139.039 84.4609 139 84.6562 139H86.668C86.8633 139 87 139.039 87.0781 139.117C87.1628 139.189 87.2051 139.322 87.2051 139.518V148.482ZM94.8418 138.756C95.6165 138.756 96.1797 138.821 96.5312 138.951C96.8828 139.075 97.1042 139.173 97.1953 139.244C97.3385 139.335 97.4492 139.452 97.5273 139.596C97.5729 139.667 97.625 139.791 97.6836 139.967C97.7422 140.143 97.7845 140.335 97.8105 140.543C97.8431 140.706 97.8464 140.823 97.8203 140.895C97.7943 140.96 97.7129 141.041 97.5762 141.139C97.4199 141.243 97.2474 141.337 97.0586 141.422C96.8763 141.5 96.7266 141.555 96.6094 141.588C96.5117 141.614 96.4368 141.62 96.3848 141.607C96.3327 141.594 96.2611 141.555 96.1699 141.49C96.0658 141.419 95.9193 141.34 95.7305 141.256C95.5417 141.165 95.2812 141.119 94.9492 141.119C94.526 141.119 94.1224 141.223 93.7383 141.432C93.3607 141.64 93.0514 141.952 92.8105 142.369C92.5762 142.786 92.459 143.307 92.459 143.932C92.459 144.869 92.7031 145.595 93.1914 146.109C93.6862 146.624 94.347 146.881 95.1738 146.881C95.597 146.881 95.9486 146.839 96.2285 146.754C96.5085 146.663 96.7298 146.572 96.8926 146.48C97.0228 146.409 97.1204 146.393 97.1855 146.432C97.2572 146.464 97.3125 146.526 97.3516 146.617L98.0645 148.229C98.1361 148.398 98.097 148.518 97.9473 148.59C97.7064 148.714 97.3092 148.854 96.7559 149.01C96.2025 149.166 95.5189 149.244 94.7051 149.244C93.071 149.244 91.7656 148.811 90.7891 147.945C89.8125 147.073 89.3242 145.771 89.3242 144.039C89.3242 142.932 89.5488 141.985 89.998 141.197C90.4473 140.41 91.0853 139.807 91.9121 139.391C92.7389 138.967 93.7155 138.756 94.8418 138.756ZM102.254 149.244C101.297 149.244 100.535 148.977 99.9688 148.443C99.4089 147.903 99.1289 147.161 99.1289 146.217C99.1289 145.729 99.2168 145.276 99.3926 144.859C99.5749 144.436 99.8874 144.065 100.33 143.746C100.779 143.421 101.404 143.16 102.205 142.965C103.012 142.77 104.041 142.656 105.291 142.623C105.291 142.031 105.141 141.604 104.842 141.344C104.549 141.083 104.106 140.953 103.514 140.953C102.98 140.953 102.544 141.044 102.205 141.227C101.867 141.409 101.655 141.533 101.57 141.598C101.479 141.676 101.368 141.705 101.238 141.686C101.062 141.66 100.874 141.614 100.672 141.549C100.477 141.484 100.265 141.409 100.037 141.324C100.005 141.311 99.9688 141.292 99.9297 141.266C99.8906 141.233 99.8678 141.188 99.8613 141.129C99.8613 141.096 99.8646 141.057 99.8711 141.012C99.8776 140.96 99.8939 140.868 99.9199 140.738C99.946 140.608 99.985 140.449 100.037 140.26C100.089 140.064 100.138 139.915 100.184 139.811C100.242 139.7 100.34 139.596 100.477 139.498C100.587 139.407 100.923 139.26 101.482 139.059C102.042 138.857 102.853 138.756 103.914 138.756C106.837 138.756 108.299 140.178 108.299 143.023V148.551C108.299 148.674 108.263 148.782 108.191 148.873C108.126 148.958 108.012 149 107.85 149H106.385C106.281 149 106.186 148.987 106.102 148.961C106.023 148.928 105.949 148.87 105.877 148.785L105.271 148.004H105.203C104.904 148.44 104.5 148.756 103.992 148.951C103.491 149.146 102.911 149.244 102.254 149.244ZM103.328 146.979C103.927 146.979 104.38 146.826 104.686 146.52C104.992 146.214 105.187 145.898 105.271 145.572V144.488C104.367 144.488 103.686 144.56 103.23 144.703C102.781 144.84 102.482 145.022 102.332 145.25C102.182 145.471 102.107 145.712 102.107 145.973C102.107 146.35 102.225 146.614 102.459 146.764C102.693 146.907 102.983 146.979 103.328 146.979ZM114.471 149.244C113.605 149.244 112.866 149.033 112.254 148.609C111.648 148.18 111.186 147.59 110.867 146.842C110.555 146.087 110.398 145.217 110.398 144.234C110.398 142.939 110.626 141.891 111.082 141.09C111.544 140.283 112.192 139.69 113.025 139.312C113.865 138.935 114.855 138.746 115.994 138.746C116.385 138.746 116.707 138.766 116.961 138.805C117.221 138.844 117.407 138.88 117.518 138.912V135.27C117.518 135.113 117.55 134.993 117.615 134.908C117.889 134.55 118.289 134.163 118.816 133.746C118.908 133.681 118.989 133.648 119.061 133.648C119.145 133.648 119.227 133.681 119.305 133.746C119.585 133.961 119.819 134.163 120.008 134.352C120.203 134.54 120.369 134.726 120.506 134.908C120.571 134.993 120.604 135.113 120.604 135.27V148.551C120.604 148.674 120.561 148.782 120.477 148.873C120.392 148.958 120.285 149 120.154 149H118.699C118.595 149 118.501 148.987 118.416 148.961C118.338 148.928 118.263 148.87 118.191 148.785L117.586 148.004H117.518C117.433 148.134 117.28 148.3 117.059 148.502C116.844 148.697 116.528 148.87 116.111 149.02C115.701 149.169 115.154 149.244 114.471 149.244ZM115.418 146.744C116.004 146.744 116.463 146.633 116.795 146.412C117.133 146.191 117.374 145.911 117.518 145.572V141.48C117.413 141.415 117.241 141.337 117 141.246C116.759 141.155 116.421 141.109 115.984 141.109C115.177 141.109 114.572 141.373 114.168 141.9C113.764 142.428 113.562 143.137 113.562 144.029C113.562 144.954 113.732 145.637 114.07 146.08C114.409 146.523 114.858 146.744 115.418 146.744ZM128.035 149.244C126.395 149.244 125.096 148.808 124.139 147.936C123.182 147.063 122.703 145.764 122.703 144.039C122.703 142.268 123.198 140.947 124.188 140.074C125.184 139.195 126.512 138.756 128.172 138.756C129.773 138.756 131.056 139.189 132.02 140.055C132.983 140.914 133.465 142.184 133.465 143.863C133.465 145.615 132.983 146.949 132.02 147.867C131.056 148.785 129.728 149.244 128.035 149.244ZM128.133 146.881C128.849 146.881 129.389 146.66 129.754 146.217C130.118 145.768 130.301 145.003 130.301 143.922C130.301 142.893 130.115 142.171 129.744 141.754C129.38 141.331 128.836 141.119 128.113 141.119C127.417 141.119 126.867 141.347 126.463 141.803C126.066 142.252 125.867 142.984 125.867 144C125.867 145.061 126.056 145.807 126.434 146.236C126.818 146.666 127.384 146.881 128.133 146.881ZM138.348 149.244C137.651 149.244 137.072 149.186 136.609 149.068C136.154 148.951 135.786 148.811 135.506 148.648C135.232 148.479 135.018 148.326 134.861 148.189C134.744 148.079 134.731 147.955 134.822 147.818L135.818 146.344C135.962 146.135 136.124 146.122 136.307 146.305C136.495 146.487 136.749 146.666 137.068 146.842C137.394 147.011 137.798 147.096 138.279 147.096C138.709 147.096 139.061 147.024 139.334 146.881C139.614 146.731 139.754 146.516 139.754 146.236C139.754 146.041 139.692 145.882 139.568 145.758C139.445 145.634 139.227 145.507 138.914 145.377C138.602 145.247 138.165 145.081 137.605 144.879C136.779 144.579 136.154 144.218 135.73 143.795C135.307 143.372 135.096 142.753 135.096 141.939C135.096 141.191 135.301 140.582 135.711 140.113C136.128 139.645 136.658 139.303 137.303 139.088C137.954 138.867 138.631 138.756 139.334 138.756C140.226 138.756 140.851 138.84 141.209 139.01C141.574 139.173 141.808 139.299 141.912 139.391C142.01 139.475 142.078 139.573 142.117 139.684C142.202 139.938 142.267 140.273 142.312 140.689C142.339 140.93 142.277 141.09 142.127 141.168C142.049 141.214 141.925 141.262 141.756 141.314C141.587 141.367 141.417 141.412 141.248 141.451C141.079 141.49 140.952 141.51 140.867 141.51C140.841 141.51 140.812 141.503 140.779 141.49C140.753 141.471 140.704 141.428 140.633 141.363C140.548 141.279 140.402 141.181 140.193 141.07C139.992 140.96 139.712 140.904 139.354 140.904C139.002 140.904 138.706 140.963 138.465 141.08C138.23 141.191 138.113 141.389 138.113 141.676C138.113 141.988 138.263 142.223 138.562 142.379C138.868 142.535 139.37 142.737 140.066 142.984C140.613 143.173 141.089 143.382 141.492 143.609C141.902 143.831 142.218 144.124 142.439 144.488C142.661 144.846 142.771 145.331 142.771 145.943C142.771 146.738 142.553 147.379 142.117 147.867C141.688 148.349 141.134 148.701 140.457 148.922C139.786 149.137 139.083 149.244 138.348 149.244Z" fill="black"/>
<line x1="350.5" y1="-2.18557e-08" x2="350.5" y2="206" stroke="#EC6A00"/>
<line x1="0.5" y1="-2.18557e-08" x2="0.500009" y2="206" stroke="#EC6A00"/>
</svg>
