<svg width="1547" height="515" viewBox="0 0 1547 515" fill="none" xmlns="http://www.w3.org/2000/svg">
<path d="M85.9733 474.986C80.2065 478.278 63.0275 483.425 40.446 477.679C3.29577 468.342 2.50663 431.293 6.75584 413.935C11.6121 395.38 31.1584 365.094 70.494 392.388C17.6824 402.264 44.0881 457.928 75.0467 452.541C70.494 444.161 65.395 418.245 81.4205 381.614C101.453 335.826 149.711 316.074 179.759 287.344C203.798 264.36 235.303 228.687 248.05 213.724C218.306 200.855 179.213 156.264 260.798 80.8483C272.028 39.5492 315.977 -29.4024 401.932 25.1843C411.948 31.4691 440.175 9.02377 452.012 12.615C463.849 16.2062 459.297 32.3668 465.671 47.6295C472.044 62.8922 468.713 69.7679 456.565 81.7462C444.793 92.0992 372.795 150.877 365.511 172.425C358.226 193.972 374.616 218.213 380.079 228.089C385.543 237.965 389.257 248.625 391.006 267.592C392.827 287.344 386.453 302.607 380.079 316.074C374.899 327.019 336.373 398.672 351.852 424.709C362.051 440.51 376.134 444.461 381.9 444.461C385.543 444.461 389.185 467.803 360.047 458.825C355.495 474.986 347.3 478.577 343.658 482.168C340.015 485.76 309.057 493.84 291.756 468.701C274.456 443.563 286.293 412.139 284.472 412.139C282.651 412.139 238.034 413.935 225.287 457.03C239.855 454.336 267.172 463.314 268.993 472.292C270.814 481.27 269.903 493.839 250.782 500.124C231.66 506.409 127.858 527.058 89.6154 479.475L85.9733 474.986Z" fill="white"/>
<path d="M40.446 477.679L41.679 472.834L41.6719 472.832L41.6648 472.83L40.446 477.679ZM85.9733 474.986L89.8559 471.835L87.1811 468.539L83.4945 470.644L85.9733 474.986ZM70.494 392.388L71.4131 397.303L83.1775 395.103L73.3444 388.28L70.494 392.388ZM6.75584 413.935L1.91877 412.669L1.9087 412.708L1.89925 412.746L6.75584 413.935ZM351.852 424.709L347.555 427.264L347.602 427.343L347.651 427.42L351.852 424.709ZM380.079 316.074L375.56 313.935L375.56 313.935L380.079 316.074ZM391.006 267.592L386.027 268.051L386.027 268.051L391.006 267.592ZM465.671 47.6295L461.057 49.5563L461.057 49.5563L465.671 47.6295ZM401.932 25.1843L399.252 29.4051L399.263 29.4123L399.275 29.4195L401.932 25.1843ZM360.047 458.825L361.52 454.047L356.624 452.539L355.235 457.47L360.047 458.825ZM225.287 457.03L220.492 455.612L218.18 463.428L226.196 461.947L225.287 457.03ZM260.798 80.8483L264.192 84.5199L265.246 83.5455L265.623 82.1603L260.798 80.8483ZM248.05 213.724L251.856 216.966L256.241 211.82L250.036 209.135L248.05 213.724ZM179.759 287.344L183.215 290.958L183.215 290.958L179.759 287.344ZM81.4205 381.614L86.0013 383.618L86.0013 383.618L81.4205 381.614ZM75.0467 452.541L75.9039 457.467L82.7648 456.273L79.4402 450.154L75.0467 452.541ZM89.6154 479.475L93.5128 476.342L93.5054 476.333L93.4981 476.324L89.6154 479.475ZM489.41 185.459L485.899 181.899L485.899 181.899L489.41 185.459ZM478.483 183.664L473.606 184.763L473.767 185.479L474.127 186.118L478.483 183.664ZM486.776 171.72C488.609 169.654 488.42 166.494 486.355 164.661C484.289 162.828 481.129 163.017 479.296 165.082L486.776 171.72ZM488.031 150.215C487.904 147.456 485.564 145.323 482.806 145.45C480.047 145.577 477.914 147.917 478.041 150.675L488.031 150.215ZM492.142 430.561L496.365 433.238L492.142 430.561ZM404.729 127.596L401.371 123.891L399.729 125.38V127.596H404.729ZM861.823 380.284H856.823V385.284H861.823V380.284ZM861.823 143.262V138.262H856.823V143.262H861.823ZM558.611 76.8244L563.579 76.2591H553.643L558.611 76.8244ZM715.225 410.809L710.225 410.809L710.225 410.809L715.225 410.809ZM636.918 409.013L631.918 409.013V409.013L636.918 409.013ZM1283.41 410.362L1278.41 410.362V410.362L1283.41 410.362ZM1205.1 408.567L1200.1 408.567V408.567L1205.1 408.567ZM1542 410.362L1537 410.362V410.362L1542 410.362ZM1463.69 408.567L1458.69 408.567V408.567L1463.69 408.567ZM1079.44 439.539H1074.44V444.539H1079.44V439.539ZM983.836 382.079L978.906 382.912L988.768 382.899L983.836 382.079ZM826.312 283.32L831.312 283.32L831.312 283.32L826.312 283.32ZM39.213 482.525C62.9771 488.572 81.496 483.299 88.4521 479.328L83.4945 470.644C78.9169 473.257 63.078 478.279 41.679 472.834L39.213 482.525ZM73.3444 388.28C63.0146 381.112 53.6122 377.465 45.0974 376.653C36.5098 375.835 29.1393 377.936 23.0532 381.723C11.1301 389.144 4.51589 402.746 1.91877 412.669L11.5929 415.201C13.852 406.569 19.4391 395.751 28.3371 390.213C32.6616 387.522 37.8567 386.009 44.1489 386.608C50.5139 387.215 58.3056 390.016 67.6436 396.496L73.3444 388.28ZM1.89925 412.746C-0.390727 422.101 -1.34875 436.711 3.34527 450.433C8.1411 464.453 18.8319 477.402 39.2272 482.529L41.6648 472.83C24.9099 468.619 16.631 458.375 12.807 447.197C8.88118 435.72 9.6532 423.127 11.6124 415.124L1.89925 412.746ZM356.15 422.153C353.183 417.163 352.48 409.25 353.953 399.001C355.398 388.95 358.792 377.585 362.907 366.468C371.15 344.206 381.885 323.947 384.599 318.213L375.56 313.935C373.094 319.146 361.975 340.187 353.53 362.996C349.301 374.416 345.643 386.53 344.055 397.578C342.496 408.429 342.782 419.236 347.555 427.264L356.15 422.153ZM384.599 318.213C391.046 304.59 397.936 288.293 395.985 267.133L386.027 268.051C387.718 286.395 381.86 300.624 375.56 313.935L384.599 318.213ZM395.985 267.133C394.182 247.58 390.299 236.234 384.455 225.668L375.704 230.509C380.786 239.696 384.332 249.67 386.027 268.051L395.985 267.133ZM384.455 225.668C381.529 220.38 376.383 212.394 372.677 202.827C368.98 193.286 367.154 183.175 370.247 174.026L360.774 170.823C356.583 183.222 359.31 196.005 363.352 206.44C367.385 216.85 373.167 225.922 375.704 230.509L384.455 225.668ZM370.247 174.026C370.914 172.055 372.481 169.267 375.073 165.711C377.614 162.224 380.937 158.27 384.845 153.996C392.659 145.451 402.587 135.874 412.734 126.573C433.103 107.903 453.764 90.8684 459.867 85.5007L453.263 77.9916C447.595 82.977 426.37 100.508 405.977 119.202C395.741 128.583 385.568 138.388 377.466 147.248C373.416 151.676 369.827 155.93 366.991 159.822C364.205 163.645 361.929 167.407 360.774 170.823L370.247 174.026ZM460.076 85.3065C466.166 79.3011 470.893 73.8165 472.848 67.3711C474.888 60.6481 473.673 53.8169 470.284 45.7027L461.057 49.5563C464.042 56.7048 464.348 60.9428 463.279 64.4679C462.125 68.2705 459.112 72.2129 453.055 78.1858L460.076 85.3065ZM470.284 45.7027C467.381 38.7492 467.084 32.0137 465.813 24.8696C465.222 21.5464 464.361 17.9725 462.546 14.9072C460.604 11.6264 457.678 9.10888 453.464 7.83035L450.561 17.3996C452.265 17.9167 453.21 18.766 453.942 20.0023C454.801 21.4541 455.421 23.5476 455.968 26.6213C456.973 32.2709 457.587 41.2471 461.057 49.5563L470.284 45.7027ZM453.464 7.83035C448.866 6.43528 443.534 7.68805 439.01 9.20809C434.256 10.8054 429.033 13.2058 424.249 15.3453C419.297 17.5594 414.805 19.4987 410.994 20.5452C406.884 21.6739 405.147 21.2982 404.59 20.949L399.275 29.4195C403.726 32.2127 409.273 31.3881 413.642 30.1882C418.311 28.906 423.494 26.6369 428.33 24.4742C433.334 22.2368 438.014 20.092 442.195 18.6873C446.605 17.2053 449.241 16.9991 450.561 17.3996L453.464 7.83035ZM347.651 427.42C358.795 444.686 374.481 449.461 381.9 449.461V439.461C377.786 439.461 365.306 436.334 356.054 421.997L347.651 427.42ZM358.575 463.604C366.329 465.993 372.561 466.45 377.48 465.219C382.608 463.935 385.981 460.886 387.769 457.184C389.462 453.678 389.591 449.91 389.028 447.013C388.747 445.567 388.241 444.064 387.432 442.78C386.82 441.808 385.061 439.461 381.9 439.461V449.461C380.74 449.461 379.925 448.989 379.529 448.685C379.146 448.391 378.986 448.134 378.972 448.112C378.946 448.07 379.095 448.32 379.212 448.922C379.445 450.122 379.347 451.628 378.764 452.835C378.275 453.847 377.323 454.95 375.052 455.518C372.573 456.139 368.334 456.147 361.52 454.047L358.575 463.604ZM230.081 458.448C235.945 438.625 249.035 428.378 261.028 422.984C267.062 420.27 272.801 418.801 277.142 418.013C279.306 417.62 281.105 417.4 282.396 417.279C283.042 417.218 283.556 417.183 283.922 417.163C284.31 417.141 284.489 417.139 284.472 417.139V407.139C283.087 407.139 270.729 407.656 256.926 413.864C242.968 420.142 227.376 432.34 220.492 455.612L230.081 458.448ZM284.472 417.139C282.214 417.139 280.773 415.692 280.175 414.55C279.727 413.695 279.685 412.964 279.678 412.869C279.655 412.561 279.693 412.475 279.638 412.908C279.542 413.664 279.332 414.796 279.02 416.582C278.427 419.979 277.617 424.929 277.316 430.735C276.718 442.29 278.113 457.696 287.638 471.536L295.875 465.867C288.099 454.568 286.763 441.693 287.303 431.252C287.572 426.059 288.298 421.583 288.871 418.303C289.143 416.749 289.423 415.231 289.558 414.17C289.619 413.694 289.708 412.909 289.65 412.128C289.626 411.796 289.544 410.886 289.033 409.911C288.372 408.648 286.844 407.139 284.472 407.139V417.139ZM287.638 471.536C297.351 485.651 311 490.45 322.504 491.198C328.22 491.57 333.469 490.954 337.593 489.981C339.655 489.494 341.5 488.903 343.026 488.263C344.394 487.688 346.009 486.872 347.168 485.729L340.147 478.608C340.396 478.363 340.246 478.584 339.157 479.041C338.225 479.432 336.919 479.865 335.296 480.248C332.05 481.014 327.795 481.521 323.153 481.219C313.943 480.62 303.462 476.89 295.875 465.867L287.638 471.536ZM347.168 485.729C347.847 485.06 348.684 484.441 350.261 483.165C351.698 482.001 353.424 480.531 355.204 478.581C358.823 474.616 362.381 468.981 364.86 460.181L355.235 457.47C353.161 464.83 350.345 469.071 347.818 471.84C346.525 473.257 345.235 474.367 343.969 475.392C342.843 476.304 341.289 477.482 340.147 478.608L347.168 485.729ZM404.613 20.9635C382.569 6.96406 362.85 0.652985 345.37 0.0482986C327.839 -0.55814 312.911 4.58946 300.551 12.9116C276.049 29.4083 261.762 58.2472 255.973 79.5364L265.623 82.1603C271.064 62.1503 284.366 35.8638 306.136 21.2066C316.911 13.9518 329.788 9.51528 345.024 10.0423C360.31 10.5711 378.319 16.1111 399.252 29.4051L404.613 20.9635ZM257.404 77.1767C216.115 115.343 204.079 146.884 207.73 171.476C211.367 195.975 230.263 211.476 246.065 218.313L250.036 209.135C236.093 203.103 220.571 189.875 217.621 170.007C214.686 150.232 223.896 121.769 264.192 84.5199L257.404 77.1767ZM244.244 210.482C231.523 225.414 200.152 260.929 176.304 283.73L183.215 290.958C207.444 267.792 239.082 231.961 251.856 216.966L244.244 210.482ZM176.304 283.73C169.044 290.672 160.618 297.133 151.589 303.715C142.646 310.235 133.007 316.947 123.764 324.135C105.202 338.573 87.3525 355.58 76.8397 379.61L86.0013 383.618C95.5206 361.859 111.817 346.097 129.904 332.029C138.986 324.965 148.297 318.491 157.48 311.796C166.577 305.163 175.451 298.382 183.215 290.958L176.304 283.73ZM76.8397 379.61C60.3709 417.254 65.1773 444.849 70.6533 454.928L79.4402 450.154C75.8107 443.474 70.419 419.235 86.0013 383.618L76.8397 379.61ZM85.7181 482.607C106.383 508.319 144.044 515 177.369 515C211.016 515 242.275 508.183 252.343 504.874L249.221 495.374C240.168 498.35 209.964 505 177.369 505C144.453 505 111.091 498.214 93.5128 476.342L85.7181 482.607ZM252.343 504.874C262.864 501.416 269.145 495.938 272.26 489.357C275.302 482.931 274.909 476.308 273.893 471.298L264.093 473.286C264.898 477.254 264.96 481.405 263.221 485.079C261.556 488.598 257.822 492.547 249.221 495.374L252.343 504.874ZM273.893 471.298C273.027 467.028 269.522 463.818 266.248 461.601C262.724 459.215 258.246 457.16 253.535 455.552C244.252 452.384 232.845 450.548 224.378 452.113L226.196 461.947C232.297 460.819 241.833 462.124 250.305 465.016C254.472 466.438 258.075 468.143 260.64 469.881C263.456 471.788 264.048 473.067 264.093 473.286L273.893 471.298ZM69.5749 387.473C55.4897 390.107 45.8749 395.959 40.4466 403.885C35.0082 411.826 34.2872 421.103 36.5261 429.479C40.8529 445.666 57.1392 460.732 75.9039 457.467L74.1896 447.615C61.9957 449.737 49.5997 439.664 46.1869 426.897C44.556 420.795 45.2009 414.641 48.6972 409.536C52.2036 404.416 59.0925 399.607 71.4131 397.303L69.5749 387.473ZM93.4981 476.324L89.8559 471.835L82.0907 478.136L85.7328 482.625L93.4981 476.324ZM480.975 168.858C482.562 170.815 484.623 173.998 485.696 177.043C486.88 180.405 486.241 181.562 485.899 181.899L492.921 189.02C497.678 184.329 496.584 177.855 495.128 173.72C493.56 169.269 490.794 165.089 488.74 162.557L480.975 168.858ZM485.899 181.899C485.117 182.67 484.663 182.801 484.586 182.82C484.543 182.83 484.524 182.839 484.416 182.797C484.253 182.734 483.97 182.568 483.624 182.227C483.283 181.891 483.007 181.506 482.84 181.209L474.127 186.118C475.211 188.042 477.425 190.808 480.791 192.117C482.588 192.815 484.697 193.083 486.944 192.538C489.157 192.001 491.153 190.762 492.921 189.02L485.899 181.899ZM483.361 182.564C483.028 181.089 482.964 176.015 486.776 171.72L479.296 165.082C472.91 172.279 472.724 180.852 473.606 184.763L483.361 182.564ZM488.941 169.966L488.031 150.215L478.041 150.675L478.952 170.427L488.941 169.966ZM440.241 441.846C451.105 441.846 459.39 442.041 465.836 442.187C472.197 442.332 477 442.438 480.633 442.227C484.273 442.015 487.447 441.462 490.218 439.812C493.007 438.152 494.784 435.732 496.365 433.238L487.918 427.885C486.515 430.1 485.775 430.819 485.102 431.22C484.411 431.631 483.178 432.062 480.052 432.244C476.919 432.426 472.598 432.338 466.063 432.19C459.612 432.043 451.229 431.846 440.241 431.846V441.846ZM496.365 433.238C500.441 426.806 497.429 420.125 493.063 416.266C488.655 412.369 481.911 410.117 474.941 411.262L476.563 421.13C480.519 420.479 484.246 421.819 486.44 423.758C488.675 425.734 488.395 427.133 487.918 427.885L496.365 433.238ZM474.941 411.262C471.406 411.843 467.42 413.549 463.677 415.488C459.837 417.478 455.836 419.937 452.177 422.343C448.505 424.756 445.111 427.16 442.478 429.061C439.704 431.064 438.058 432.297 437.494 432.668L442.987 441.024C443.789 440.497 445.899 438.925 448.332 437.168C450.907 435.309 454.17 432.999 457.67 430.699C461.18 428.391 464.863 426.137 468.278 424.367C471.791 422.546 474.634 421.446 476.563 421.13L474.941 411.262ZM488.004 149.216C492.577 109.085 486.295 89.9733 476.494 81.4589C471.516 77.1343 466.111 76.0013 462.028 75.9634C460.004 75.9446 458.286 76.1919 457.054 76.4492C456.435 76.5785 455.928 76.7124 455.556 76.8215C455.37 76.8761 455.216 76.9248 455.097 76.964C455.038 76.9836 454.988 77.0009 454.946 77.0153C454.925 77.0226 454.907 77.0291 454.891 77.0349C454.883 77.0378 454.875 77.0405 454.868 77.043C454.865 77.0443 454.86 77.046 454.858 77.0466C454.853 77.0483 454.849 77.05 456.565 81.7462C458.281 86.4424 458.277 86.4439 458.273 86.4454C458.272 86.4459 458.268 86.4473 458.265 86.4482C458.261 86.4499 458.256 86.4514 458.253 86.4528C458.245 86.4555 458.239 86.4575 458.236 86.4588C458.228 86.4614 458.229 86.4612 458.236 86.4586C458.252 86.4535 458.297 86.4389 458.369 86.4178C458.513 86.3755 458.762 86.3081 459.098 86.238C459.776 86.0964 460.767 85.9521 461.935 85.963C464.238 85.9843 467.158 86.5949 469.936 89.0081C475.647 93.9691 482.601 108.309 478.068 148.083L488.004 149.216ZM456.565 81.7462C453.266 77.9895 453.265 77.9896 453.265 77.9899C453.265 77.9902 453.264 77.9906 453.264 77.9911C453.262 77.9922 453.261 77.9938 453.258 77.996C453.253 78.0003 453.246 78.0068 453.236 78.0153C453.217 78.0325 453.187 78.058 453.149 78.0918C453.072 78.1593 452.958 78.2597 452.809 78.391C452.51 78.6535 452.07 79.0399 451.506 79.5353C450.379 80.5261 448.756 81.953 446.772 83.6976C442.806 87.1867 437.397 91.9472 431.631 97.0321C420.111 107.19 407.123 118.678 401.371 123.891L408.087 131.301C413.777 126.144 426.706 114.707 438.244 104.533C444.007 99.4512 449.412 94.6936 453.377 91.2063C455.359 89.4626 456.981 88.0366 458.108 87.0466C458.671 86.5516 459.11 86.1656 459.409 85.9034C459.558 85.7723 459.672 85.6721 459.749 85.6047C459.787 85.571 459.816 85.5456 459.836 85.5285C459.845 85.52 459.853 85.5136 459.857 85.5093C459.86 85.5071 459.862 85.5055 459.863 85.5045C459.864 85.5039 459.864 85.5035 459.864 85.5033C459.865 85.503 459.865 85.5029 456.565 81.7462ZM399.729 127.596V406.32H409.729V127.596H399.729ZM399.729 406.32C399.729 413.344 401.203 422.351 407.408 429.648C413.745 437.1 424.216 441.846 440.241 441.846V431.846C426.217 431.846 418.933 427.764 415.026 423.17C410.987 418.42 409.729 412.165 409.729 406.32H399.729ZM861.823 385.284H915.545V375.284H861.823V385.284ZM861.823 148.262H915.545V138.262H861.823V148.262ZM856.823 143.262V261.773H866.823V143.262H856.823ZM856.823 261.773V380.284H866.823V261.773H856.823ZM861.823 266.773H910.992V256.773H861.823V266.773ZM519.172 49.385C533.444 39.3994 541.167 37.0746 545.593 37.2511C549.496 37.4067 551.678 39.4932 555.328 43.3775C558.765 47.0357 563.562 52.3411 572.138 52.9283C580.264 53.4846 590.68 49.7571 605.686 39.9568L600.218 31.5842C585.558 41.1585 577.507 43.2725 572.821 42.9516C568.585 42.6616 566.225 40.3713 562.615 36.5296C559.218 32.9141 554.461 27.5967 545.991 27.259C538.043 26.9421 527.956 31.0345 513.439 41.1913L519.172 49.385ZM536.758 288.32H580.464V278.32H536.758V288.32ZM553.643 76.2591L511.758 444.36L521.694 445.491L563.579 77.3897L553.643 76.2591ZM553.643 77.3897L595.529 445.491L605.464 444.36L563.579 76.2591L553.643 77.3897ZM641.918 105.556C641.918 95.1845 646.118 87.6885 652.292 82.7095C658.589 77.6318 667.194 74.9901 676.014 75.0912C684.831 75.1922 693.444 78.029 699.763 83.3665C705.97 88.6086 710.225 96.4652 710.225 107.351H720.225C720.225 93.5469 714.692 82.8859 706.216 75.7268C697.853 68.6631 686.889 65.2152 676.129 65.0919C665.373 64.9686 654.401 68.1628 646.015 74.9253C637.507 81.7865 631.918 92.1349 631.918 105.556H641.918ZM710.225 410.809C710.225 421.18 706.025 428.676 699.851 433.655C693.554 438.733 684.95 441.374 676.129 441.273C667.313 441.172 658.699 438.335 652.38 432.998C646.174 427.756 641.918 419.899 641.918 409.013L631.918 409.013C631.918 422.818 637.451 433.479 645.927 440.638C654.291 447.701 665.254 451.149 676.014 451.273C686.77 451.396 697.743 448.202 706.128 441.439C714.637 434.578 720.225 424.23 720.225 410.809L710.225 410.809ZM631.918 105.556V409.013H641.918V105.556H631.918ZM710.225 107.351V410.809H720.225V107.351H710.225ZM1210.1 105.11C1210.1 94.7382 1214.3 87.2422 1220.47 82.2633C1226.77 77.1856 1235.37 74.5438 1244.19 74.6449C1253.01 74.746 1261.62 77.5827 1267.94 82.9202C1274.15 88.1623 1278.41 96.0189 1278.41 106.905H1288.41C1288.41 93.1006 1282.87 82.4396 1274.4 75.2805C1266.03 68.2168 1255.07 64.7689 1244.31 64.6456C1233.55 64.5223 1222.58 67.7165 1214.2 74.479C1205.69 81.3402 1200.1 91.6886 1200.1 105.11H1210.1ZM1278.41 410.362C1278.41 420.734 1274.21 428.23 1268.03 433.209C1261.73 438.286 1253.13 440.928 1244.31 440.827C1235.49 440.726 1226.88 437.889 1220.56 432.552C1214.35 427.31 1210.1 419.453 1210.1 408.567L1200.1 408.567C1200.1 422.371 1205.63 433.032 1214.11 440.191C1222.47 447.255 1233.43 450.703 1244.19 450.826C1254.95 450.95 1265.92 447.755 1274.31 440.993C1282.82 434.132 1288.41 423.783 1288.41 410.362L1278.41 410.362ZM1200.1 105.11V408.567H1210.1V105.11H1200.1ZM1278.41 106.905V410.362H1288.41V106.905H1278.41ZM1468.69 105.11C1468.69 94.7382 1472.89 87.2422 1479.07 82.2633C1485.36 77.1856 1493.97 74.5438 1502.79 74.6449C1511.61 74.746 1520.22 77.5827 1526.54 82.9202C1532.74 88.1623 1537 96.0189 1537 106.905H1547C1547 93.1006 1541.47 82.4396 1532.99 75.2805C1524.63 68.2168 1513.66 64.7689 1502.9 64.6456C1492.15 64.5223 1481.18 67.7165 1472.79 74.479C1464.28 81.3402 1458.69 91.6886 1458.69 105.11H1468.69ZM1537 410.362C1537 420.734 1532.8 428.23 1526.63 433.209C1520.33 438.286 1511.72 440.928 1502.9 440.827C1494.09 440.726 1485.47 437.889 1479.15 432.552C1472.95 427.31 1468.69 419.453 1468.69 408.567L1458.69 408.567C1458.69 422.371 1464.23 433.032 1472.7 440.191C1481.07 447.255 1492.03 450.703 1502.79 450.826C1513.55 450.95 1524.52 447.755 1532.9 440.993C1541.41 434.132 1547 423.783 1547 410.362L1537 410.362ZM1458.69 105.11V408.567H1468.69V105.11H1458.69ZM1537 106.905V410.362H1547V106.905H1537ZM1161.84 405.422V101.963H1151.84V405.422H1161.84ZM1074.44 66.0509V72.3356H1084.44V66.0509H1074.44ZM1074.44 72.3356V439.539H1084.44V72.3356H1074.44ZM1079.44 444.539H1127.7V434.539H1079.44V444.539ZM1127.7 444.539C1134.29 444.539 1142.75 440.898 1149.47 434.525C1156.37 427.981 1161.84 418.186 1161.84 405.422H1151.84C1151.84 415.103 1147.75 422.367 1142.59 427.27C1137.24 432.344 1131.13 434.539 1127.7 434.539V444.539ZM1076.71 77.3356H1079.44V67.3356H1076.71V77.3356ZM1079.44 77.3356H1125.88V67.3356H1079.44V77.3356ZM1125.88 77.3356C1129.95 77.3356 1136.66 78.863 1142.22 82.8108C1147.57 86.6021 1151.84 92.5699 1151.84 101.963H1161.84C1161.84 88.9113 1155.64 80.0653 1148.01 74.654C1140.6 69.3994 1131.83 67.3356 1125.88 67.3356V77.3356ZM952.414 383.875V166.605H942.414V383.875H952.414ZM952.414 166.605V144.16H942.414V166.605H952.414ZM1024.35 382.977V168.401H1014.35V382.977H1024.35ZM1024.35 168.401V143.262H1014.35V168.401H1024.35ZM942.484 167.439L978.906 382.912L988.766 381.246L952.344 165.772L942.484 167.439ZM1014.41 167.581L978.904 381.259L988.768 382.899L1024.28 169.221L1014.41 167.581ZM778.5 162.116C778.5 156.686 780.907 152.746 784.688 150.003C788.616 147.154 794.128 145.569 799.906 145.569C805.683 145.569 811.196 147.154 815.124 150.003C818.905 152.746 821.312 156.686 821.312 162.116H831.312C831.312 153.182 827.117 146.348 820.996 141.908C815.021 137.575 807.331 135.569 799.906 135.569C792.48 135.569 784.79 137.575 778.816 141.908C772.695 146.348 768.5 153.182 768.5 162.116H778.5ZM768.5 360.532C768.5 369.466 772.695 376.3 778.816 380.74C784.79 385.073 792.48 387.079 799.906 387.079C807.331 387.079 815.021 385.073 820.996 380.74C827.117 376.3 831.312 369.466 831.312 360.532H821.312C821.312 365.962 818.905 369.902 815.124 372.645C811.196 375.494 805.683 377.079 799.906 377.079C794.128 377.079 788.616 375.494 784.688 372.645C780.907 369.902 778.5 365.962 778.5 360.532H768.5ZM768.5 233.043C768.5 240.267 773.28 246.091 778.47 250.605C783.804 255.245 790.786 259.528 797.322 263.473C804.057 267.537 810.305 271.236 814.932 274.946C819.839 278.881 821.312 281.595 821.312 283.32L831.312 283.32C831.312 276.516 826.183 271.15 821.188 267.145C815.913 262.915 808.958 258.815 802.489 254.911C795.822 250.887 789.602 247.035 785.033 243.06C780.321 238.961 778.5 235.695 778.5 233.043H768.5ZM768.5 162.116V233.043H778.5V162.116H768.5ZM768.5 233.043V234.839H778.5V233.043H768.5ZM821.312 283.32V360.532H831.312V283.32H821.312ZM768.5 328.211V360.532H778.5V328.211H768.5ZM821.312 161.218V162.116H831.312V161.218H821.312ZM821.312 162.116V193.54H831.312V162.116H821.312ZM1338.49 444.926V97.4742H1328.49V444.926H1338.49ZM1338.49 97.4742V67.8465H1328.49V97.4742H1338.49ZM1417.7 446.721V431.459H1407.7V446.721H1417.7ZM1417.7 431.459V69.6421H1407.7V431.459H1417.7ZM1328.62 98.6281L1407.84 432.612L1417.57 430.305L1338.35 96.3202L1328.62 98.6281Z" fill="white"/>
</svg>
