<svg width="204" height="200" viewBox="0 0 204 200" fill="none" xmlns="http://www.w3.org/2000/svg">
<path d="M179.07 0H24.2277C10.8833 0 0.0333862 10.6665 0.0333862 23.7782V175.957C0.0333862 189.069 10.8866 199.735 24.2277 199.735H179.07C192.411 199.735 203.265 189.069 203.265 175.957V23.7782C203.265 10.6633 192.411 0 179.07 0ZM159.744 87.1362C158.636 87.2436 157.523 87.2994 156.407 87.3037C150.386 87.305 144.461 85.8328 139.164 83.0201C133.868 80.2073 129.368 76.1426 126.07 71.1928V126.056C126.07 134.076 123.651 141.917 119.117 148.587C114.583 155.256 108.139 160.454 100.599 163.524C93.0591 166.594 84.7624 167.397 76.7579 165.833C68.7535 164.268 61.4009 160.406 55.63 154.734C49.8592 149.062 45.9292 141.836 44.3372 133.97C42.7452 126.103 43.5626 117.949 46.6861 110.539C49.8095 103.128 55.0988 96.7949 61.8849 92.3391C68.6709 87.8834 76.6491 85.5055 84.8103 85.5061C85.6724 85.5061 86.5148 85.5802 87.3605 85.635V105.618C86.5148 105.518 85.6822 105.367 84.8103 105.367C82.045 105.367 79.3068 105.902 76.752 106.942C74.1972 107.982 71.8758 109.507 69.9205 111.428C67.9651 113.35 66.414 115.632 65.3558 118.142C64.2976 120.653 63.7529 123.344 63.7529 126.062C63.7529 128.78 64.2976 131.471 65.3558 133.982C66.414 136.493 67.9651 138.774 69.9205 140.696C71.8758 142.618 74.1972 144.142 76.752 145.182C79.3068 146.222 82.045 146.757 84.8103 146.757C96.4436 146.757 106.717 137.75 106.717 126.32L106.92 33.1368H126.371C127.26 41.443 131.092 49.1778 137.196 54.9889C143.3 60.8 151.288 64.3177 159.763 64.9269V87.1362" fill="white"/>
</svg>
