<svg width="1920" height="391" viewBox="0 0 1920 391" fill="none" xmlns="http://www.w3.org/2000/svg">
<path d="M925.25 310.733C462.217 330.927 615.283 447.864 9.23967e-06 356.601V176.463H1920V280.432L1711.63 339.366C1422.75 421.072 1388.28 290.538 925.25 310.733Z" fill="#FFD4B0"/>
<path d="M925.25 295.11C462.217 315.304 615.283 441.17 9.23967e-06 349.907V152H1920V273.639L1711.63 322.295C1412.81 392.073 1388.28 274.916 925.25 295.11Z" fill="#FFB77B"/>
<path d="M877.5 278.246C398.5 298.414 636.5 435.713 9.23967e-06 344.568V152H1920L1920 257.689L1691 305.395C1378.44 370.509 1356.5 258.077 877.5 278.246Z" fill="#FF943C"/>
<path d="M994.75 80.2672C1457.78 60.0728 1304.72 -56.8643 1920 34.3986V214.537L9.23967e-06 214.537L1.50441e-07 110.568L208.367 51.6342C497.245 -30.0718 531.717 100.462 994.75 80.2672Z" fill="#FFD4B0"/>
<path d="M994.75 95.89C1457.78 75.6956 1304.72 -50.1704 1920 41.0926V239L0.00025338 239L0.000242746 117.361L208.367 68.7054C507.192 -1.07289 531.717 116.084 994.75 95.89Z" fill="#FFB77B"/>
<path d="M1042.5 112.754C1521.5 92.5861 1283.5 -44.7132 1920 46.4318V239L0.00025338 239L0 133.311L229 85.6049C541.563 20.4912 563.5 132.923 1042.5 112.754Z" fill="#FF943C"/>
</svg>
