<svg width="1920" height="427" viewBox="0 0 1920 427" fill="none" xmlns="http://www.w3.org/2000/svg">
<path d="M925.198 282.993C462.191 318.996 615.249 527.474 9.87189e-05 364.768V43.6136H1919.89V228.971L1711.54 334.04C1422.67 479.708 1388.21 246.99 925.198 282.993Z" fill="#FFD4B0"/>
<path d="M925.198 255.14C462.191 291.143 615.249 515.54 0 352.834V0H1919.89V216.861L1711.54 303.606C1412.73 428.008 1388.21 219.137 925.198 255.14Z" fill="#FFB77B"/>
<path d="M877.451 225.074C398.478 261.03 636.464 505.811 0 343.315V0H1919.89L1919.89 188.426L1690.91 273.477C1378.36 389.563 1356.42 189.117 877.451 225.074Z" fill="#FF943C"/>
</svg>
