<svg width="786" height="116" viewBox="0 0 786 116" fill="none" xmlns="http://www.w3.org/2000/svg">
<path d="M89.7878 31.4883C87.0794 31.4883 84.7227 30.9674 82.7175 29.9258C80.7122 28.8841 79.1563 27.3151 78.0495 25.2188C76.9557 23.1224 76.4089 20.5052 76.4089 17.3672C76.4089 12.3802 77.6263 8.66276 80.0612 6.21484C82.4961 3.75391 85.888 2.52344 90.237 2.52344C94.3125 2.52344 97.5352 3.72786 99.905 6.13672C102.275 8.53255 103.46 12.0872 103.46 16.8008C103.46 20.1341 102.906 22.888 101.799 25.0625C100.693 27.224 99.1172 28.8385 97.0729 29.9062C95.0287 30.9609 92.6003 31.4883 89.7878 31.4883ZM89.905 26.2148C92.2487 26.2148 93.987 25.375 95.1198 23.6953C96.2526 22.0156 96.819 19.8346 96.819 17.1523C96.819 14.0404 96.2852 11.7031 95.2175 10.1406C94.1497 8.57812 92.431 7.79688 90.0612 7.79688C85.3867 7.79688 83.0495 10.8763 83.0495 17.0352C83.0495 19.7826 83.6094 22.0026 84.7292 23.6953C85.862 25.375 87.5872 26.2148 89.905 26.2148Z" fill="#FFB77B"/>
<path d="M131.174 26.2148C132.125 26.2148 132.867 26.1172 133.401 25.9219C133.948 25.7266 134.371 25.4857 134.671 25.1992C134.97 24.9128 135.23 24.6263 135.452 24.3398C135.66 24.0794 135.829 23.8841 135.96 23.7539C136.103 23.6237 136.298 23.5326 136.546 23.4805C136.754 23.4154 137.086 23.3763 137.542 23.3633C138.01 23.3372 138.473 23.3242 138.928 23.3242C139.397 23.3242 139.723 23.3372 139.905 23.3633C140.178 23.3763 140.367 23.4284 140.471 23.5195C140.576 23.6107 140.641 23.806 140.667 24.1055C140.706 24.5221 140.725 25.0169 140.725 25.5898C140.738 26.1628 140.732 26.6576 140.706 27.0742C140.693 27.2044 140.667 27.3151 140.628 27.4062C140.602 27.4974 140.536 27.6341 140.432 27.8164C140.302 28.0247 140.048 28.3307 139.671 28.7344C139.293 29.125 138.74 29.5352 138.01 29.9648C137.281 30.3815 136.337 30.7396 135.178 31.0391C134.033 31.3385 132.62 31.4883 130.94 31.4883C129.143 31.4883 127.464 31.2604 125.901 30.8047C124.339 30.3359 122.965 29.5547 121.78 28.4609C120.608 27.3672 119.69 25.8893 119.026 24.0273C118.375 22.1654 118.049 19.8411 118.049 17.0547C118.049 13.9557 118.583 11.3255 119.651 9.16406C120.732 6.98958 122.262 5.33594 124.241 4.20312C126.22 3.07031 128.564 2.50391 131.272 2.50391C133.173 2.50391 134.697 2.69922 135.842 3.08984C137.001 3.48047 137.88 3.94271 138.479 4.47656C139.078 4.9974 139.501 5.45312 139.749 5.84375C139.84 5.98698 139.905 6.11719 139.944 6.23438C139.983 6.33854 140.009 6.50781 140.022 6.74219C140.061 7.05469 140.068 7.51042 140.042 8.10938C140.029 8.70833 139.983 9.23568 139.905 9.69141C139.853 9.97786 139.768 10.1667 139.651 10.2578C139.599 10.3099 139.508 10.3555 139.378 10.3945C139.247 10.4336 139.052 10.4531 138.792 10.4531C138.375 10.4531 137.906 10.4401 137.385 10.4141C136.865 10.375 136.474 10.3359 136.214 10.2969C135.901 10.2448 135.673 10.1732 135.53 10.082C135.387 9.97786 135.243 9.82161 135.1 9.61328C134.866 9.27474 134.462 8.88411 133.889 8.44141C133.316 7.9987 132.372 7.77734 131.057 7.77734C129.208 7.77734 127.685 8.49349 126.487 9.92578C125.289 11.3451 124.69 13.6497 124.69 16.8398C124.69 20.0169 125.315 22.3737 126.565 23.9102C127.828 25.4466 129.365 26.2148 131.174 26.2148Z" fill="#FFB77B"/>
<path d="M149.729 31.4883C147.815 31.4883 146.292 30.9544 145.159 29.8867C144.039 28.806 143.479 27.3216 143.479 25.4336C143.479 24.457 143.655 23.5521 144.007 22.7188C144.371 21.8724 144.996 21.1302 145.882 20.4922C146.78 19.8411 148.03 19.3203 149.632 18.9297C151.246 18.5391 153.303 18.3112 155.803 18.2461C155.803 17.0612 155.504 16.2083 154.905 15.6875C154.319 15.1667 153.434 14.9062 152.249 14.9062C151.181 14.9062 150.309 15.0885 149.632 15.4531C148.954 15.8177 148.531 16.0651 148.362 16.1953C148.18 16.3516 147.958 16.4102 147.698 16.3711C147.346 16.319 146.969 16.2279 146.565 16.0977C146.174 15.9674 145.751 15.8177 145.296 15.6484C145.23 15.6224 145.159 15.5833 145.081 15.5312C145.003 15.4661 144.957 15.375 144.944 15.2578C144.944 15.1927 144.951 15.1146 144.964 15.0234C144.977 14.9193 145.009 14.737 145.061 14.4766C145.113 14.2161 145.191 13.8971 145.296 13.5195C145.4 13.1289 145.497 12.8294 145.589 12.6211C145.706 12.3997 145.901 12.1914 146.174 11.9961C146.396 11.8138 147.066 11.5208 148.186 11.1172C149.306 10.7135 150.927 10.5117 153.049 10.5117C158.896 10.5117 161.819 13.3568 161.819 19.0469V30.1016C161.819 30.349 161.747 30.5638 161.604 30.7461C161.474 30.9154 161.246 31 160.921 31H157.991C157.783 31 157.594 30.974 157.424 30.9219C157.268 30.8568 157.118 30.7396 156.975 30.5703L155.764 29.0078H155.628C155.029 29.8802 154.221 30.5117 153.206 30.9023C152.203 31.293 151.044 31.4883 149.729 31.4883ZM151.878 26.957C153.076 26.957 153.98 26.651 154.592 26.0391C155.204 25.4271 155.595 24.7956 155.764 24.1445V21.9766C153.954 21.9766 152.594 22.1198 151.682 22.4062C150.784 22.6797 150.185 23.0443 149.885 23.5C149.586 23.9427 149.436 24.4245 149.436 24.9453C149.436 25.7005 149.671 26.2279 150.139 26.5273C150.608 26.8138 151.188 26.957 151.878 26.957Z" fill="#FFB77B"/>
<path d="M184.788 13.0508C185.27 12.4648 186.012 11.8984 187.014 11.3516C188.03 10.7917 189.456 10.5117 191.292 10.5117C193.896 10.5117 195.777 11.1823 196.936 12.5234C198.095 13.8646 198.674 15.8763 198.674 18.5586V29.9648C198.674 30.3555 198.59 30.6289 198.421 30.7852C198.264 30.9284 197.991 31 197.6 31H193.577C193.186 31 192.906 30.9284 192.737 30.7852C192.581 30.6289 192.503 30.3555 192.503 29.9648V19.5742C192.503 18.1159 192.236 17.0742 191.702 16.4492C191.168 15.8112 190.367 15.4922 189.299 15.4922C188.349 15.4922 187.594 15.707 187.034 16.1367C186.487 16.5534 186.096 17.1198 185.862 17.8359V29.9648C185.862 30.3555 185.777 30.6289 185.608 30.7852C185.452 30.9284 185.178 31 184.788 31H180.764C180.374 31 180.094 30.9284 179.924 30.7852C179.768 30.6289 179.69 30.3555 179.69 29.9648V19.5742C179.69 18.1549 179.397 17.1198 178.811 16.4688C178.225 15.8177 177.457 15.4922 176.507 15.4922C175.608 15.4922 174.885 15.7135 174.339 16.1562C173.792 16.599 173.368 17.1589 173.069 17.8359V29.9648C173.069 30.3555 172.984 30.6289 172.815 30.7852C172.659 30.9284 172.385 31 171.995 31H167.971C167.581 31 167.301 30.9284 167.132 30.7852C166.975 30.6289 166.897 30.3555 166.897 29.9648V13.5977C166.897 13.2852 166.962 13.0443 167.092 12.875C167.366 12.5104 167.691 12.1393 168.069 11.7617C168.46 11.3841 168.935 10.9805 169.495 10.5508C169.664 10.4206 169.827 10.3555 169.983 10.3555C170.126 10.3555 170.289 10.4206 170.471 10.5508C171.018 10.9805 171.487 11.3906 171.878 11.7812C172.268 12.1719 172.613 12.5755 172.913 12.9922H173.01C173.453 12.4323 174.143 11.8789 175.081 11.332C176.018 10.7852 177.359 10.5117 179.104 10.5117C180.771 10.5117 182.008 10.7656 182.815 11.2734C183.622 11.7682 184.28 12.3607 184.788 13.0508Z" fill="#FFB77B"/>
<path d="M203.069 4.4375C203.069 4.26823 203.121 4.11849 203.225 3.98828C203.329 3.85807 203.466 3.6888 203.635 3.48047C204 3.0638 204.423 2.6276 204.905 2.17188C205.387 1.70312 205.875 1.25391 206.37 0.824219C206.682 0.576823 206.917 0.453125 207.073 0.453125C207.229 0.453125 207.47 0.576823 207.796 0.824219C208.85 1.73568 209.749 2.62109 210.491 3.48047C210.66 3.67578 210.797 3.84505 210.901 3.98828C211.018 4.11849 211.077 4.26823 211.077 4.4375C211.077 4.60677 211.018 4.75651 210.901 4.88672C210.797 5.01693 210.654 5.19271 210.471 5.41406C210.12 5.81771 209.71 6.25391 209.241 6.72266C208.772 7.17839 208.29 7.61458 207.796 8.03125C207.613 8.1875 207.47 8.29167 207.366 8.34375C207.262 8.38281 207.164 8.40234 207.073 8.40234C206.982 8.40234 206.884 8.38281 206.78 8.34375C206.689 8.29167 206.539 8.1875 206.331 8.03125C205.81 7.61458 205.322 7.17839 204.866 6.72266C204.41 6.25391 204 5.80469 203.635 5.375C203.466 5.16667 203.329 5.00391 203.225 4.88672C203.121 4.75651 203.069 4.60677 203.069 4.4375ZM210.139 29.9648C210.139 30.3555 210.055 30.6289 209.885 30.7852C209.729 30.9284 209.456 31 209.065 31H205.042C204.651 31 204.371 30.9284 204.202 30.7852C204.046 30.6289 203.967 30.3555 203.967 29.9648V12.0352C203.967 11.6445 204.046 11.3776 204.202 11.2344C204.371 11.0781 204.651 11 205.042 11H209.065C209.456 11 209.729 11.0781 209.885 11.2344C210.055 11.3776 210.139 11.6445 210.139 12.0352V29.9648Z" fill="#FFB77B"/>
<path d="M234.788 18.5586V29.9648C234.788 30.3555 234.703 30.6289 234.534 30.7852C234.378 30.9284 234.104 31 233.714 31H229.69C229.299 31 229.02 30.9284 228.85 30.7852C228.694 30.6289 228.616 30.3555 228.616 29.9648V19.5742C228.616 18.1549 228.316 17.1198 227.717 16.4688C227.118 15.8177 226.305 15.4922 225.276 15.4922C224.247 15.4922 223.453 15.7135 222.893 16.1562C222.346 16.599 221.923 17.1589 221.624 17.8359V29.9648C221.624 30.3555 221.539 30.6289 221.37 30.7852C221.214 30.9284 220.94 31 220.549 31H216.526C216.135 31 215.855 30.9284 215.686 30.7852C215.53 30.6289 215.452 30.3555 215.452 29.9648V13.5977C215.452 13.2852 215.517 13.0443 215.647 12.875C215.921 12.5104 216.246 12.1393 216.624 11.7617C217.014 11.3841 217.49 10.9805 218.049 10.5508C218.219 10.4206 218.382 10.3555 218.538 10.3555C218.681 10.3555 218.844 10.4206 219.026 10.5508C219.573 10.9805 220.042 11.3906 220.432 11.7812C220.823 12.1719 221.168 12.5755 221.467 12.9922H221.565C221.786 12.7057 222.118 12.3737 222.561 11.9961C223.004 11.6055 223.622 11.2604 224.417 10.9609C225.224 10.6615 226.253 10.5117 227.503 10.5117C228.727 10.5117 229.892 10.7591 230.999 11.2539C232.105 11.7487 233.01 12.582 233.714 13.7539C234.43 14.9258 234.788 16.5273 234.788 18.5586Z" fill="#FFB77B"/>
<path d="M246.233 29.9648C246.233 30.3555 246.148 30.6289 245.979 30.7852C245.823 30.9284 245.549 31 245.159 31H241.135C240.745 31 240.465 30.9284 240.296 30.7852C240.139 30.6289 240.061 30.3555 240.061 29.9648V3.53906C240.061 3.22656 240.126 2.98568 240.257 2.81641C240.803 2.10026 241.604 1.32552 242.659 0.492188C242.841 0.361979 243.004 0.296875 243.147 0.296875C243.316 0.296875 243.479 0.361979 243.635 0.492188C244.195 0.921875 244.664 1.32552 245.042 1.70312C245.432 2.08073 245.764 2.45182 246.038 2.81641C246.168 2.98568 246.233 3.22656 246.233 3.53906V13.0117H246.311C246.598 12.6341 246.969 12.2565 247.424 11.8789C247.88 11.4883 248.486 11.1628 249.241 10.9023C250.009 10.6419 250.986 10.5117 252.171 10.5117C253.368 10.5117 254.521 10.7591 255.628 11.2539C256.734 11.7487 257.639 12.582 258.342 13.7539C259.046 14.9258 259.397 16.5273 259.397 18.5586V29.9648C259.397 30.3555 259.313 30.6289 259.143 30.7852C258.987 30.9284 258.714 31 258.323 31H254.299C253.909 31 253.629 30.9284 253.46 30.7852C253.303 30.6289 253.225 30.3555 253.225 29.9648V19.6328C253.225 18.1875 252.926 17.1393 252.327 16.4883C251.728 15.8242 250.914 15.4922 249.885 15.4922C248.87 15.4922 248.082 15.7135 247.522 16.1562C246.962 16.599 246.533 17.1589 246.233 17.8359V29.9648Z" fill="#FFB77B"/>
<path d="M274.26 31.4883C270.979 31.4883 268.382 30.6159 266.467 28.8711C264.553 27.1263 263.596 24.5286 263.596 21.0781C263.596 17.5365 264.586 14.8932 266.565 13.1484C268.557 11.3906 271.214 10.5117 274.534 10.5117C277.737 10.5117 280.302 11.3776 282.229 13.1094C284.156 14.8281 285.12 17.3672 285.12 20.7266C285.12 24.2292 284.156 26.8984 282.229 28.7344C280.302 30.5703 277.646 31.4883 274.26 31.4883ZM274.456 26.7617C275.888 26.7617 276.969 26.319 277.698 25.4336C278.427 24.5352 278.792 23.0052 278.792 20.8438C278.792 18.7865 278.421 17.3411 277.678 16.5078C276.949 15.6615 275.862 15.2383 274.417 15.2383C273.023 15.2383 271.923 15.694 271.116 16.6055C270.322 17.5039 269.924 18.9688 269.924 21C269.924 23.1224 270.302 24.6133 271.057 25.4727C271.826 26.332 272.958 26.7617 274.456 26.7617Z" fill="#FFB77B"/>
<path d="M312.815 10.5117C314.716 10.5117 316.279 10.9414 317.503 11.8008C318.74 12.6471 319.658 13.819 320.257 15.3164C320.869 16.8008 321.174 18.5065 321.174 20.4336C321.174 22.5169 320.816 24.3919 320.1 26.0586C319.397 27.7253 318.355 29.0469 316.975 30.0234C315.595 31 313.883 31.4883 311.839 31.4883C310.784 31.4883 309.911 31.3646 309.221 31.1172C308.544 30.8828 307.997 30.6029 307.581 30.2773C307.177 29.9388 306.858 29.6328 306.624 29.3594H306.546V37.6797C306.546 37.9922 306.48 38.2331 306.35 38.4023C305.803 39.1185 305.003 39.8932 303.948 40.7266C303.766 40.8568 303.603 40.9219 303.46 40.9219C303.303 40.9219 303.141 40.8568 302.971 40.7266C302.411 40.2969 301.936 39.8932 301.546 39.5156C301.168 39.138 300.842 38.7669 300.569 38.4023C300.439 38.2331 300.374 37.9922 300.374 37.6797V13.5977C300.374 13.2852 300.439 13.0443 300.569 12.875C300.842 12.5104 301.168 12.1393 301.546 11.7617C301.936 11.3841 302.411 10.9805 302.971 10.5508C303.141 10.4206 303.316 10.3555 303.499 10.3555C303.668 10.3555 303.844 10.4206 304.026 10.5508C304.573 10.9805 305.042 11.3906 305.432 11.7812C305.823 12.1719 306.168 12.5755 306.467 12.9922H306.565C306.786 12.7188 307.125 12.3867 307.581 11.9961C308.036 11.6055 308.681 11.2604 309.514 10.9609C310.361 10.6615 311.461 10.5117 312.815 10.5117ZM310.413 26.5078C311.819 26.5078 312.906 26.0195 313.674 25.043C314.456 24.0534 314.846 22.6276 314.846 20.7656C314.846 17.25 313.401 15.4922 310.51 15.4922C309.286 15.4922 308.382 15.7461 307.796 16.2539C307.21 16.7487 306.793 17.276 306.546 17.8359V22.0742C306.546 23.3372 306.871 24.3919 307.522 25.2383C308.173 26.0846 309.137 26.5078 310.413 26.5078Z" fill="#FFB77B"/>
<path d="M330.549 31.4883C328.635 31.4883 327.112 30.9544 325.979 29.8867C324.859 28.806 324.299 27.3216 324.299 25.4336C324.299 24.457 324.475 23.5521 324.827 22.7188C325.191 21.8724 325.816 21.1302 326.702 20.4922C327.6 19.8411 328.85 19.3203 330.452 18.9297C332.066 18.5391 334.124 18.3112 336.624 18.2461C336.624 17.0612 336.324 16.2083 335.725 15.6875C335.139 15.1667 334.254 14.9062 333.069 14.9062C332.001 14.9062 331.129 15.0885 330.452 15.4531C329.775 15.8177 329.352 16.0651 329.182 16.1953C329 16.3516 328.779 16.4102 328.518 16.3711C328.167 16.319 327.789 16.2279 327.385 16.0977C326.995 15.9674 326.572 15.8177 326.116 15.6484C326.051 15.6224 325.979 15.5833 325.901 15.5312C325.823 15.4661 325.777 15.375 325.764 15.2578C325.764 15.1927 325.771 15.1146 325.784 15.0234C325.797 14.9193 325.829 14.737 325.882 14.4766C325.934 14.2161 326.012 13.8971 326.116 13.5195C326.22 13.1289 326.318 12.8294 326.409 12.6211C326.526 12.3997 326.721 12.1914 326.995 11.9961C327.216 11.8138 327.887 11.5208 329.007 11.1172C330.126 10.7135 331.747 10.5117 333.87 10.5117C339.716 10.5117 342.639 13.3568 342.639 19.0469V30.1016C342.639 30.349 342.568 30.5638 342.424 30.7461C342.294 30.9154 342.066 31 341.741 31H338.811C338.603 31 338.414 30.974 338.245 30.9219C338.089 30.8568 337.939 30.7396 337.796 30.5703L336.585 29.0078H336.448C335.849 29.8802 335.042 30.5117 334.026 30.9023C333.023 31.293 331.865 31.4883 330.549 31.4883ZM332.698 26.957C333.896 26.957 334.801 26.651 335.413 26.0391C336.025 25.4271 336.415 24.7956 336.585 24.1445V21.9766C334.775 21.9766 333.414 22.1198 332.503 22.4062C331.604 22.6797 331.005 23.0443 330.706 23.5C330.406 23.9427 330.257 24.4245 330.257 24.9453C330.257 25.7005 330.491 26.2279 330.96 26.5273C331.428 26.8138 332.008 26.957 332.698 26.957Z" fill="#FFB77B"/>
<path d="M353.889 14.7109H353.967C354.944 12.0026 356.702 10.6484 359.241 10.6484C359.566 10.6484 359.833 10.668 360.042 10.707C360.25 10.7331 360.393 10.7591 360.471 10.7852C360.667 10.8503 360.764 11 360.764 11.2344V15.9414C360.764 16.3451 360.53 16.4557 360.061 16.2734C359.905 16.2083 359.677 16.1432 359.378 16.0781C359.091 16 358.688 15.9609 358.167 15.9609C356.826 15.9609 355.777 16.4557 355.022 17.4453C354.267 18.4219 353.889 19.7565 353.889 21.4492V29.9648C353.889 30.3555 353.805 30.6289 353.635 30.7852C353.479 30.9284 353.206 31 352.815 31H348.792C348.401 31 348.121 30.9284 347.952 30.7852C347.796 30.6289 347.717 30.3555 347.717 29.9648V13.5977C347.717 13.2852 347.783 13.0443 347.913 12.875C348.186 12.5104 348.512 12.1393 348.889 11.7617C349.28 11.3841 349.755 10.9805 350.315 10.5508C350.419 10.4727 350.523 10.4206 350.628 10.3945C350.732 10.3685 350.823 10.3555 350.901 10.3555C351.083 10.3555 351.266 10.4206 351.448 10.5508C352.529 11.3971 353.284 12.1198 353.714 12.7188C353.831 12.875 353.889 13.0573 353.889 13.2656V14.7109Z" fill="#FFB77B"/>
<path d="M368.674 31.4883C366.76 31.4883 365.237 30.9544 364.104 29.8867C362.984 28.806 362.424 27.3216 362.424 25.4336C362.424 24.457 362.6 23.5521 362.952 22.7188C363.316 21.8724 363.941 21.1302 364.827 20.4922C365.725 19.8411 366.975 19.3203 368.577 18.9297C370.191 18.5391 372.249 18.3112 374.749 18.2461C374.749 17.0612 374.449 16.2083 373.85 15.6875C373.264 15.1667 372.379 14.9062 371.194 14.9062C370.126 14.9062 369.254 15.0885 368.577 15.4531C367.9 15.8177 367.477 16.0651 367.307 16.1953C367.125 16.3516 366.904 16.4102 366.643 16.3711C366.292 16.319 365.914 16.2279 365.51 16.0977C365.12 15.9674 364.697 15.8177 364.241 15.6484C364.176 15.6224 364.104 15.5833 364.026 15.5312C363.948 15.4661 363.902 15.375 363.889 15.2578C363.889 15.1927 363.896 15.1146 363.909 15.0234C363.922 14.9193 363.954 14.737 364.007 14.4766C364.059 14.2161 364.137 13.8971 364.241 13.5195C364.345 13.1289 364.443 12.8294 364.534 12.6211C364.651 12.3997 364.846 12.1914 365.12 11.9961C365.341 11.8138 366.012 11.5208 367.132 11.1172C368.251 10.7135 369.872 10.5117 371.995 10.5117C377.841 10.5117 380.764 13.3568 380.764 19.0469V30.1016C380.764 30.349 380.693 30.5638 380.549 30.7461C380.419 30.9154 380.191 31 379.866 31H376.936C376.728 31 376.539 30.974 376.37 30.9219C376.214 30.8568 376.064 30.7396 375.921 30.5703L374.71 29.0078H374.573C373.974 29.8802 373.167 30.5117 372.151 30.9023C371.148 31.293 369.99 31.4883 368.674 31.4883ZM370.823 26.957C372.021 26.957 372.926 26.651 373.538 26.0391C374.15 25.4271 374.54 24.7956 374.71 24.1445V21.9766C372.9 21.9766 371.539 22.1198 370.628 22.4062C369.729 22.6797 369.13 23.0443 368.831 23.5C368.531 23.9427 368.382 24.4245 368.382 24.9453C368.382 25.7005 368.616 26.2279 369.085 26.5273C369.553 26.8138 370.133 26.957 370.823 26.957Z" fill="#FFB77B"/>
<path d="M404.065 31.4883C399.43 31.4883 397.112 28.6823 397.112 23.0703L397.092 13.1484C397.092 12.8359 397.158 12.5951 397.288 12.4258C397.835 11.7096 398.635 10.9349 399.69 10.1016C399.872 9.97135 400.035 9.90625 400.178 9.90625C400.348 9.90625 400.51 9.97135 400.667 10.1016C401.227 10.5312 401.695 10.9349 402.073 11.3125C402.464 11.6901 402.796 12.0612 403.069 12.4258C403.199 12.5951 403.264 12.8359 403.264 13.1484V22.5234C403.264 25.349 404.384 26.7617 406.624 26.7617C407.73 26.7617 408.616 26.3776 409.28 25.6094C409.944 24.8281 410.276 23.7734 410.276 22.4453V13.1484C410.276 12.8359 410.341 12.5951 410.471 12.4258C411.018 11.7096 411.819 10.9349 412.874 10.1016C413.056 9.97135 413.219 9.90625 413.362 9.90625C413.531 9.90625 413.694 9.97135 413.85 10.1016C414.41 10.5312 414.879 10.9349 415.257 11.3125C415.647 11.6901 415.979 12.0612 416.253 12.4258C416.383 12.5951 416.448 12.8359 416.448 13.1484V30.1016C416.448 30.349 416.363 30.5638 416.194 30.7461C416.025 30.9154 415.81 31 415.549 31H412.62C412.411 31 412.223 30.974 412.053 30.9219C411.897 30.8568 411.747 30.7396 411.604 30.5703L410.393 29.0078H410.257C410.048 29.3073 409.723 29.6523 409.28 30.043C408.85 30.4336 408.219 30.7721 407.385 31.0586C406.565 31.3451 405.458 31.4883 404.065 31.4883Z" fill="#FFB77B"/>
<path d="M439.632 13.0508C440.113 12.4648 440.855 11.8984 441.858 11.3516C442.874 10.7917 444.299 10.5117 446.135 10.5117C448.74 10.5117 450.621 11.1823 451.78 12.5234C452.939 13.8646 453.518 15.8763 453.518 18.5586V29.9648C453.518 30.3555 453.434 30.6289 453.264 30.7852C453.108 30.9284 452.835 31 452.444 31H448.421C448.03 31 447.75 30.9284 447.581 30.7852C447.424 30.6289 447.346 30.3555 447.346 29.9648V19.5742C447.346 18.1159 447.079 17.0742 446.546 16.4492C446.012 15.8112 445.211 15.4922 444.143 15.4922C443.193 15.4922 442.438 15.707 441.878 16.1367C441.331 16.5534 440.94 17.1198 440.706 17.8359V29.9648C440.706 30.3555 440.621 30.6289 440.452 30.7852C440.296 30.9284 440.022 31 439.632 31H435.608C435.217 31 434.938 30.9284 434.768 30.7852C434.612 30.6289 434.534 30.3555 434.534 29.9648V19.5742C434.534 18.1549 434.241 17.1198 433.655 16.4688C433.069 15.8177 432.301 15.4922 431.35 15.4922C430.452 15.4922 429.729 15.7135 429.182 16.1562C428.635 16.599 428.212 17.1589 427.913 17.8359V29.9648C427.913 30.3555 427.828 30.6289 427.659 30.7852C427.503 30.9284 427.229 31 426.839 31H422.815C422.424 31 422.145 30.9284 421.975 30.7852C421.819 30.6289 421.741 30.3555 421.741 29.9648V13.5977C421.741 13.2852 421.806 13.0443 421.936 12.875C422.21 12.5104 422.535 12.1393 422.913 11.7617C423.303 11.3841 423.779 10.9805 424.339 10.5508C424.508 10.4206 424.671 10.3555 424.827 10.3555C424.97 10.3555 425.133 10.4206 425.315 10.5508C425.862 10.9805 426.331 11.3906 426.721 11.7812C427.112 12.1719 427.457 12.5755 427.757 12.9922H427.854C428.297 12.4323 428.987 11.8789 429.924 11.332C430.862 10.7852 432.203 10.5117 433.948 10.5117C435.615 10.5117 436.852 10.7656 437.659 11.2734C438.466 11.7682 439.124 12.3607 439.632 13.0508Z" fill="#FFB77B"/>
<path d="M476.311 29.9648C476.311 30.3555 476.233 30.6289 476.077 30.7852C475.934 30.9284 475.673 31 475.296 31H471.37C471.005 31 470.745 30.9284 470.589 30.7852C470.432 30.6289 470.354 30.3555 470.354 29.9648V5.21875C470.354 4.45052 470.504 3.89062 470.803 3.53906C471.103 3.17448 471.63 2.99219 472.385 2.99219H474.202C474.866 2.99219 475.491 3.08333 476.077 3.26562C476.676 3.4349 477.307 3.82552 477.971 4.4375C478.648 5.04948 479.43 6 480.315 7.28906C481.214 8.5651 482.294 10.3099 483.557 12.5234C484.768 14.6328 485.738 16.319 486.467 17.582C487.21 18.8451 487.783 19.8086 488.186 20.4727C488.59 21.1367 488.889 21.612 489.085 21.8984C489.293 22.1849 489.462 22.4193 489.592 22.6016V6.11719C489.592 5.73958 489.651 5.45312 489.768 5.25781C490.328 4.39844 491.103 3.49349 492.092 2.54297C492.288 2.38672 492.451 2.30859 492.581 2.30859C492.724 2.30859 492.88 2.38672 493.049 2.54297C493.583 3.03776 494.033 3.51302 494.397 3.96875C494.775 4.41146 495.1 4.84115 495.374 5.25781C495.491 5.46615 495.549 5.7526 495.549 6.11719V29.3789C495.549 29.9648 495.439 30.3815 495.217 30.6289C494.996 30.8763 494.592 31 494.007 31H492.132C491.572 31 490.999 30.9089 490.413 30.7266C489.827 30.5312 489.163 30.1016 488.421 29.4375C487.678 28.7604 486.799 27.7122 485.784 26.293C484.768 24.8737 483.544 22.9336 482.112 20.4727C480.901 18.3763 479.931 16.7096 479.202 15.4727C478.486 14.2357 477.939 13.3047 477.561 12.6797C477.184 12.0417 476.91 11.599 476.741 11.3516C476.572 11.0911 476.428 10.8958 476.311 10.7656V29.9648Z" fill="#FFB77B"/>
<path d="M510.315 31.4883C507.034 31.4883 504.436 30.6159 502.522 28.8711C500.608 27.1263 499.651 24.5286 499.651 21.0781C499.651 17.5365 500.641 14.8932 502.62 13.1484C504.612 11.3906 507.268 10.5117 510.589 10.5117C513.792 10.5117 516.357 11.3776 518.284 13.1094C520.211 14.8281 521.174 17.3672 521.174 20.7266C521.174 24.2292 520.211 26.8984 518.284 28.7344C516.357 30.5703 513.701 31.4883 510.315 31.4883ZM510.51 26.7617C511.943 26.7617 513.023 26.319 513.753 25.4336C514.482 24.5352 514.846 23.0052 514.846 20.8438C514.846 18.7865 514.475 17.3411 513.733 16.5078C513.004 15.6615 511.917 15.2383 510.471 15.2383C509.078 15.2383 507.978 15.694 507.171 16.6055C506.376 17.5039 505.979 18.9688 505.979 21C505.979 23.1224 506.357 24.6133 507.112 25.4727C507.88 26.332 509.013 26.7617 510.51 26.7617Z" fill="#FFB77B"/>
<path d="M529.592 29.1836C528.876 28.0508 528.167 26.7487 527.464 25.2773C526.773 23.793 526.142 22.2956 525.569 20.7852C525.009 19.2617 524.56 17.875 524.221 16.625C523.883 15.362 523.714 14.3919 523.714 13.7148C523.714 13.4544 523.785 13.2396 523.928 13.0703C524.527 12.3281 525.38 11.5534 526.487 10.7461C526.682 10.6159 526.858 10.5508 527.014 10.5508C527.184 10.5508 527.359 10.6159 527.542 10.7461C528.141 11.1758 528.642 11.5794 529.046 11.957C529.462 12.3346 529.814 12.7057 530.1 13.0703C530.244 13.2396 530.315 13.4805 530.315 13.793V13.6953C530.315 14.5417 530.465 15.6549 530.764 17.0352C531.077 18.4023 531.5 19.8477 532.034 21.3711C532.568 22.8945 533.186 24.2943 533.889 25.5703H533.987C534.573 24.6068 535.094 23.5651 535.549 22.4453C536.005 21.3255 536.389 20.2057 536.702 19.0859C537.014 17.9661 537.249 16.9375 537.405 16C537.574 15.0625 537.659 14.3008 537.659 13.7148V13.793C537.659 13.4805 537.724 13.2396 537.854 13.0703C538.154 12.7057 538.505 12.3346 538.909 11.957C539.313 11.5794 539.801 11.1758 540.374 10.7461C540.556 10.6159 540.725 10.5508 540.882 10.5508C541.064 10.5508 541.233 10.6159 541.389 10.7461C541.975 11.1758 542.47 11.5794 542.874 11.957C543.277 12.3346 543.622 12.7057 543.909 13.0703C544.039 13.2396 544.104 13.4674 544.104 13.7539C544.091 14.457 543.909 15.4466 543.557 16.7227C543.206 17.9857 542.73 19.3789 542.132 20.9023C541.546 22.4128 540.888 23.9036 540.159 25.375C539.43 26.8333 538.688 28.1029 537.932 29.1836C537.477 29.8477 537.066 30.3164 536.702 30.5898C536.337 30.8633 535.706 31 534.807 31H532.737C531.799 31 531.148 30.8698 530.784 30.6094C530.432 30.349 530.035 29.8737 529.592 29.1836ZM523.714 13.6953V13.7148C523.714 13.7409 523.714 13.7669 523.714 13.793V13.6953ZM544.104 13.7148V13.793V13.7539C544.104 13.7409 544.104 13.7279 544.104 13.7148Z" fill="#FFB77B"/>
<path d="M557.307 31.4883C554.026 31.4883 551.428 30.6159 549.514 28.8711C547.6 27.1263 546.643 24.5286 546.643 21.0781C546.643 17.5365 547.633 14.8932 549.612 13.1484C551.604 11.3906 554.26 10.5117 557.581 10.5117C560.784 10.5117 563.349 11.3776 565.276 13.1094C567.203 14.8281 568.167 17.3672 568.167 20.7266C568.167 24.2292 567.203 26.8984 565.276 28.7344C563.349 30.5703 560.693 31.4883 557.307 31.4883ZM557.503 26.7617C558.935 26.7617 560.016 26.319 560.745 25.4336C561.474 24.5352 561.839 23.0052 561.839 20.8438C561.839 18.7865 561.467 17.3411 560.725 16.5078C559.996 15.6615 558.909 15.2383 557.464 15.2383C556.07 15.2383 554.97 15.694 554.163 16.6055C553.369 17.5039 552.971 18.9688 552.971 21C552.971 23.1224 553.349 24.6133 554.104 25.4727C554.872 26.332 556.005 26.7617 557.503 26.7617Z" fill="#FFB77B"/>
<path d="M598.987 4.53516C599.703 5.53776 600.432 6.83333 601.174 8.42188C601.93 9.9974 602.659 11.7292 603.362 13.6172C604.065 15.5052 604.697 17.4388 605.257 19.418C605.829 21.3841 606.298 23.2786 606.663 25.1016C607.027 26.9245 607.236 28.5456 607.288 29.9648C607.301 30.6549 606.988 31 606.35 31H601.624C601.012 31 600.693 30.694 600.667 30.082C600.615 28.6237 600.38 26.8529 599.964 24.7695H589.299C588.935 26.8008 588.727 28.5716 588.674 30.082C588.648 30.694 588.316 31 587.678 31H583.049C582.815 31 582.62 30.9349 582.464 30.8047C582.307 30.6615 582.236 30.4206 582.249 30.082C582.314 28.6367 582.522 26.9961 582.874 25.1602C583.238 23.3112 583.707 21.3971 584.28 19.418C584.853 17.4388 585.491 15.5052 586.194 13.6172C586.897 11.7161 587.626 9.97786 588.382 8.40234C589.137 6.82682 589.872 5.53776 590.589 4.53516C590.966 4.0013 591.363 3.61068 591.78 3.36328C592.21 3.11589 592.737 2.99219 593.362 2.99219H596.174C596.813 2.99219 597.346 3.11589 597.776 3.36328C598.206 3.61068 598.609 4.0013 598.987 4.53516ZM594.573 9.16406C593.714 10.5312 592.926 12.1654 592.21 14.0664C591.494 15.9674 590.875 17.9206 590.354 19.9258H598.831C598.284 17.9206 597.652 15.9674 596.936 14.0664C596.22 12.1654 595.471 10.5312 594.69 9.16406H594.573Z" fill="#FFB77B"/>
<path d="M628.889 13.0508C629.371 12.4648 630.113 11.8984 631.116 11.3516C632.132 10.7917 633.557 10.5117 635.393 10.5117C637.997 10.5117 639.879 11.1823 641.038 12.5234C642.197 13.8646 642.776 15.8763 642.776 18.5586V29.9648C642.776 30.3555 642.691 30.6289 642.522 30.7852C642.366 30.9284 642.092 31 641.702 31H637.678C637.288 31 637.008 30.9284 636.839 30.7852C636.682 30.6289 636.604 30.3555 636.604 29.9648V19.5742C636.604 18.1159 636.337 17.0742 635.803 16.4492C635.27 15.8112 634.469 15.4922 633.401 15.4922C632.451 15.4922 631.695 15.707 631.135 16.1367C630.589 16.5534 630.198 17.1198 629.964 17.8359V29.9648C629.964 30.3555 629.879 30.6289 629.71 30.7852C629.553 30.9284 629.28 31 628.889 31H624.866C624.475 31 624.195 30.9284 624.026 30.7852C623.87 30.6289 623.792 30.3555 623.792 29.9648V19.5742C623.792 18.1549 623.499 17.1198 622.913 16.4688C622.327 15.8177 621.559 15.4922 620.608 15.4922C619.71 15.4922 618.987 15.7135 618.44 16.1562C617.893 16.599 617.47 17.1589 617.171 17.8359V29.9648C617.171 30.3555 617.086 30.6289 616.917 30.7852C616.76 30.9284 616.487 31 616.096 31H612.073C611.682 31 611.402 30.9284 611.233 30.7852C611.077 30.6289 610.999 30.3555 610.999 29.9648V13.5977C610.999 13.2852 611.064 13.0443 611.194 12.875C611.467 12.5104 611.793 12.1393 612.171 11.7617C612.561 11.3841 613.036 10.9805 613.596 10.5508C613.766 10.4206 613.928 10.3555 614.085 10.3555C614.228 10.3555 614.391 10.4206 614.573 10.5508C615.12 10.9805 615.589 11.3906 615.979 11.7812C616.37 12.1719 616.715 12.5755 617.014 12.9922H617.112C617.555 12.4323 618.245 11.8789 619.182 11.332C620.12 10.7852 621.461 10.5117 623.206 10.5117C624.872 10.5117 626.109 10.7656 626.917 11.2734C627.724 11.7682 628.382 12.3607 628.889 13.0508Z" fill="#FFB77B"/>
<path d="M647.171 4.4375C647.171 4.26823 647.223 4.11849 647.327 3.98828C647.431 3.85807 647.568 3.6888 647.737 3.48047C648.102 3.0638 648.525 2.6276 649.007 2.17188C649.488 1.70312 649.977 1.25391 650.471 0.824219C650.784 0.576823 651.018 0.453125 651.174 0.453125C651.331 0.453125 651.572 0.576823 651.897 0.824219C652.952 1.73568 653.85 2.62109 654.592 3.48047C654.762 3.67578 654.898 3.84505 655.003 3.98828C655.12 4.11849 655.178 4.26823 655.178 4.4375C655.178 4.60677 655.12 4.75651 655.003 4.88672C654.898 5.01693 654.755 5.19271 654.573 5.41406C654.221 5.81771 653.811 6.25391 653.342 6.72266C652.874 7.17839 652.392 7.61458 651.897 8.03125C651.715 8.1875 651.572 8.29167 651.467 8.34375C651.363 8.38281 651.266 8.40234 651.174 8.40234C651.083 8.40234 650.986 8.38281 650.882 8.34375C650.79 8.29167 650.641 8.1875 650.432 8.03125C649.911 7.61458 649.423 7.17839 648.967 6.72266C648.512 6.25391 648.102 5.80469 647.737 5.375C647.568 5.16667 647.431 5.00391 647.327 4.88672C647.223 4.75651 647.171 4.60677 647.171 4.4375ZM654.241 29.9648C654.241 30.3555 654.156 30.6289 653.987 30.7852C653.831 30.9284 653.557 31 653.167 31H649.143C648.753 31 648.473 30.9284 648.303 30.7852C648.147 30.6289 648.069 30.3555 648.069 29.9648V12.0352C648.069 11.6445 648.147 11.3776 648.303 11.2344C648.473 11.0781 648.753 11 649.143 11H653.167C653.557 11 653.831 11.0781 653.987 11.2344C654.156 11.3776 654.241 11.6445 654.241 12.0352V29.9648Z" fill="#FFB77B"/>
<path d="M678.889 12.875V28.7148C678.889 32.5169 677.802 35.4141 675.628 37.4062C673.466 39.3984 670.497 40.3945 666.721 40.3945C665.159 40.3945 663.922 40.2773 663.01 40.043C662.099 39.8216 661.409 39.6068 660.94 39.3984C660.641 39.2552 660.445 39.1055 660.354 38.9492C660.224 38.7409 660.074 38.4349 659.905 38.0312C659.749 37.6276 659.599 37.1849 659.456 36.7031C659.417 36.5208 659.41 36.3841 659.436 36.293C659.488 36.1628 659.586 36.026 659.729 35.8828C659.964 35.6484 660.296 35.375 660.725 35.0625C661.168 34.75 661.507 34.5482 661.741 34.457C661.988 34.3659 662.216 34.3789 662.424 34.4961C662.763 34.6784 663.245 34.8802 663.87 35.1016C664.508 35.3359 665.4 35.4531 666.546 35.4531C668.369 35.4531 669.853 34.9844 670.999 34.0469C672.145 33.1094 672.717 31.6641 672.717 29.7109V29.0078H672.639C672.353 29.3724 671.982 29.7435 671.526 30.1211C671.07 30.4987 670.478 30.8177 669.749 31.0781C669.033 31.3385 668.108 31.4688 666.975 31.4688C665.009 31.4688 663.395 31.0456 662.132 30.1992C660.882 29.3398 659.957 28.1615 659.358 26.6641C658.772 25.1667 658.479 23.4609 658.479 21.5469C658.479 19.4505 658.824 17.569 659.514 15.9023C660.204 14.2357 661.363 12.9206 662.991 11.957C664.619 10.9805 666.845 10.4922 669.671 10.4922C671.363 10.4922 672.783 10.6159 673.928 10.8633C675.087 11.1107 676.057 11.4167 676.839 11.7812C677.62 12.1458 678.303 12.5104 678.889 12.875ZM669.456 15.2188C667.945 15.2188 666.793 15.7266 665.999 16.7422C665.204 17.7578 664.807 19.3333 664.807 21.4688C664.807 24.8151 666.188 26.4883 668.948 26.4883C670.029 26.4883 670.855 26.2669 671.428 25.8242C672.001 25.3815 672.431 24.8216 672.717 24.1445V16.0781C672.431 15.8698 672.027 15.6745 671.507 15.4922C670.986 15.3099 670.302 15.2188 669.456 15.2188Z" fill="#FFB77B"/>
<path d="M693.753 31.4883C690.471 31.4883 687.874 30.6159 685.96 28.8711C684.046 27.1263 683.089 24.5286 683.089 21.0781C683.089 17.5365 684.078 14.8932 686.057 13.1484C688.049 11.3906 690.706 10.5117 694.026 10.5117C697.229 10.5117 699.794 11.3776 701.721 13.1094C703.648 14.8281 704.612 17.3672 704.612 20.7266C704.612 24.2292 703.648 26.8984 701.721 28.7344C699.794 30.5703 697.138 31.4883 693.753 31.4883ZM693.948 26.7617C695.38 26.7617 696.461 26.319 697.19 25.4336C697.919 24.5352 698.284 23.0052 698.284 20.8438C698.284 18.7865 697.913 17.3411 697.171 16.5078C696.441 15.6615 695.354 15.2383 693.909 15.2383C692.516 15.2383 691.415 15.694 690.608 16.6055C689.814 17.5039 689.417 18.9688 689.417 21C689.417 23.1224 689.794 24.6133 690.549 25.4727C691.318 26.332 692.451 26.7617 693.948 26.7617Z" fill="#FFB77B"/>
<path d="M54.363 64.312C51.3161 64.312 48.6647 63.7261 46.4089 62.5542C44.153 61.3823 42.4025 59.6172 41.1574 57.2588C39.9269 54.9004 39.3117 51.9561 39.3117 48.4258C39.3117 42.8154 40.6813 38.6333 43.4206 35.8794C46.1598 33.1108 49.9758 31.7266 54.8683 31.7266C59.4533 31.7266 63.0788 33.0815 65.7448 35.7915C68.4108 38.4868 69.7438 42.4858 69.7438 47.7886C69.7438 51.5386 69.1213 54.6367 67.8762 57.083C66.631 59.5146 64.8586 61.3311 62.5588 62.5322C60.259 63.7188 57.527 64.312 54.363 64.312ZM54.4948 58.3794C57.1315 58.3794 59.0871 57.4346 60.3615 55.5449C61.6359 53.6553 62.2731 51.2017 62.2731 48.1841C62.2731 44.6831 61.6725 42.0537 60.4714 40.2959C59.2702 38.5381 57.3366 37.6592 54.6706 37.6592C49.4118 37.6592 46.7824 41.1235 46.7824 48.0522C46.7824 51.1431 47.4123 53.6406 48.6721 55.5449C49.9465 57.4346 51.8874 58.3794 54.4948 58.3794Z" fill="#FF7300" fill-opacity="0.7"/>
<path d="M100.923 58.3794C101.992 58.3794 102.827 58.2695 103.428 58.0498C104.043 57.8301 104.519 57.5591 104.856 57.2368C105.193 56.9146 105.486 56.5923 105.735 56.27C105.969 55.9771 106.16 55.7573 106.306 55.6108C106.467 55.4644 106.687 55.3618 106.966 55.3032C107.2 55.23 107.573 55.186 108.086 55.1714C108.613 55.1421 109.133 55.1274 109.646 55.1274C110.174 55.1274 110.54 55.1421 110.745 55.1714C111.052 55.186 111.265 55.2446 111.382 55.3472C111.499 55.4497 111.572 55.6694 111.602 56.0063C111.646 56.4751 111.668 57.0317 111.668 57.6763C111.682 58.3208 111.675 58.8774 111.646 59.3462C111.631 59.4927 111.602 59.6172 111.558 59.7197C111.528 59.8223 111.455 59.9761 111.338 60.1812C111.192 60.4155 110.906 60.7598 110.481 61.2139C110.056 61.6533 109.434 62.1147 108.613 62.5981C107.793 63.0669 106.731 63.4697 105.427 63.8066C104.138 64.1436 102.549 64.312 100.659 64.312C98.6379 64.312 96.7482 64.0557 94.9904 63.543C93.2326 63.0156 91.6872 62.1367 90.3542 60.9062C89.0358 59.6758 88.0031 58.0132 87.256 55.9185C86.5236 53.8237 86.1574 51.209 86.1574 48.0742C86.1574 44.5879 86.758 41.6289 87.9592 39.1973C89.175 36.751 90.8962 34.8906 93.1227 33.6162C95.3493 32.3418 97.986 31.7046 101.033 31.7046C103.172 31.7046 104.885 31.9243 106.174 32.3638C107.478 32.8032 108.467 33.3232 109.141 33.9238C109.815 34.5098 110.291 35.0225 110.569 35.4619C110.672 35.623 110.745 35.7695 110.789 35.9014C110.833 36.0186 110.862 36.209 110.877 36.4727C110.921 36.8242 110.928 37.3369 110.899 38.0107C110.884 38.6846 110.833 39.2778 110.745 39.7905C110.686 40.1128 110.591 40.3252 110.459 40.4277C110.401 40.4863 110.298 40.5376 110.152 40.5815C110.005 40.6255 109.785 40.6475 109.492 40.6475C109.024 40.6475 108.496 40.6328 107.91 40.6035C107.324 40.5596 106.885 40.5156 106.592 40.4717C106.24 40.4131 105.984 40.3325 105.823 40.23C105.662 40.1128 105.501 39.937 105.34 39.7026C105.076 39.3218 104.622 38.8823 103.977 38.3843C103.333 37.8862 102.271 37.6372 100.791 37.6372C98.7111 37.6372 96.9972 38.4429 95.6496 40.0542C94.3019 41.6509 93.6281 44.2437 93.6281 47.8325C93.6281 51.4067 94.3312 54.0581 95.7375 55.7866C97.1584 57.5151 98.8869 58.3794 100.923 58.3794Z" fill="#FF7300" fill-opacity="0.7"/>
<path d="M121.797 64.312C119.644 64.312 117.93 63.7114 116.655 62.5103C115.396 61.2944 114.766 59.6245 114.766 57.5005C114.766 56.4019 114.964 55.3838 115.359 54.4463C115.769 53.4941 116.472 52.6592 117.468 51.9414C118.479 51.209 119.885 50.623 121.687 50.1836C123.504 49.7441 125.818 49.4878 128.631 49.4146C128.631 48.0815 128.294 47.1221 127.62 46.5361C126.961 45.9502 125.965 45.6572 124.632 45.6572C123.43 45.6572 122.449 45.8623 121.687 46.2725C120.925 46.6826 120.449 46.9609 120.259 47.1074C120.054 47.2832 119.805 47.3491 119.512 47.3052C119.116 47.2466 118.692 47.144 118.237 46.9976C117.798 46.8511 117.322 46.6826 116.809 46.4922C116.736 46.4629 116.655 46.4189 116.568 46.3604C116.48 46.2871 116.428 46.1846 116.414 46.0527C116.414 45.9795 116.421 45.8916 116.436 45.7891C116.45 45.6719 116.487 45.4668 116.546 45.1738C116.604 44.8809 116.692 44.522 116.809 44.0972C116.926 43.6577 117.036 43.3208 117.139 43.0864C117.271 42.8374 117.49 42.603 117.798 42.3833C118.047 42.1782 118.801 41.8486 120.061 41.3945C121.321 40.9404 123.145 40.7134 125.532 40.7134C132.11 40.7134 135.398 43.9141 135.398 50.3154V62.752C135.398 63.0303 135.318 63.272 135.156 63.4771C135.01 63.6675 134.754 63.7627 134.387 63.7627H131.091C130.857 63.7627 130.645 63.7334 130.454 63.6748C130.279 63.6016 130.11 63.4697 129.949 63.2793L128.587 61.5215H128.433C127.759 62.5029 126.851 63.2134 125.708 63.6528C124.58 64.0923 123.277 64.312 121.797 64.312ZM124.214 59.2144C125.562 59.2144 126.58 58.8701 127.268 58.1816C127.957 57.4932 128.396 56.7827 128.587 56.0503V53.6113C126.55 53.6113 125.02 53.7725 123.994 54.0947C122.984 54.4023 122.31 54.8125 121.973 55.3252C121.636 55.8232 121.467 56.3652 121.467 56.9512C121.467 57.8008 121.731 58.394 122.258 58.731C122.786 59.0532 123.438 59.2144 124.214 59.2144Z" fill="#FF7300" fill-opacity="0.7"/>
<path d="M161.238 43.5698C161.78 42.9106 162.615 42.2734 163.743 41.6582C164.885 41.0283 166.489 40.7134 168.555 40.7134C171.485 40.7134 173.601 41.4678 174.905 42.9766C176.209 44.4854 176.861 46.7485 176.861 49.7661V62.5981C176.861 63.0376 176.765 63.3452 176.575 63.521C176.399 63.6821 176.091 63.7627 175.652 63.7627H171.126C170.686 63.7627 170.371 63.6821 170.181 63.521C170.005 63.3452 169.917 63.0376 169.917 62.5981V50.9087C169.917 49.2681 169.617 48.0962 169.016 47.3931C168.416 46.6753 167.515 46.3164 166.314 46.3164C165.244 46.3164 164.395 46.5581 163.765 47.0415C163.15 47.5103 162.71 48.1475 162.446 48.9531V62.5981C162.446 63.0376 162.351 63.3452 162.161 63.521C161.985 63.6821 161.677 63.7627 161.238 63.7627H156.712C156.272 63.7627 155.957 63.6821 155.767 63.521C155.591 63.3452 155.503 63.0376 155.503 62.5981V50.9087C155.503 49.312 155.174 48.1475 154.514 47.415C153.855 46.6826 152.991 46.3164 151.922 46.3164C150.911 46.3164 150.098 46.5654 149.483 47.0635C148.867 47.5615 148.391 48.1914 148.054 48.9531V62.5981C148.054 63.0376 147.959 63.3452 147.769 63.521C147.593 63.6821 147.285 63.7627 146.846 63.7627H142.32C141.88 63.7627 141.565 63.6821 141.375 63.521C141.199 63.3452 141.111 63.0376 141.111 62.5981V44.1851C141.111 43.8335 141.184 43.5625 141.331 43.3721C141.638 42.9619 142.005 42.5444 142.429 42.1196C142.869 41.6948 143.404 41.2407 144.033 40.7573C144.224 40.6108 144.407 40.5376 144.583 40.5376C144.744 40.5376 144.927 40.6108 145.132 40.7573C145.747 41.2407 146.275 41.7021 146.714 42.1416C147.154 42.5811 147.542 43.0352 147.879 43.5039H147.988C148.487 42.874 149.263 42.2515 150.318 41.6362C151.372 41.021 152.881 40.7134 154.844 40.7134C156.719 40.7134 158.111 40.999 159.019 41.5703C159.927 42.127 160.667 42.7935 161.238 43.5698Z" fill="#FF7300" fill-opacity="0.7"/>
<path d="M181.804 33.8799C181.804 33.6895 181.863 33.521 181.98 33.3745C182.097 33.228 182.251 33.0376 182.442 32.8032C182.852 32.3345 183.328 31.8438 183.87 31.3311C184.412 30.8037 184.961 30.2983 185.518 29.8149C185.869 29.5366 186.133 29.3975 186.309 29.3975C186.485 29.3975 186.756 29.5366 187.122 29.8149C188.308 30.8403 189.319 31.8364 190.154 32.8032C190.344 33.0229 190.498 33.2134 190.615 33.3745C190.747 33.521 190.813 33.6895 190.813 33.8799C190.813 34.0703 190.747 34.2388 190.615 34.3853C190.498 34.5317 190.337 34.7295 190.132 34.9785C189.737 35.4326 189.275 35.9233 188.748 36.4507C188.22 36.9634 187.678 37.4541 187.122 37.9229C186.917 38.0986 186.756 38.2158 186.638 38.2744C186.521 38.3184 186.411 38.3403 186.309 38.3403C186.206 38.3403 186.096 38.3184 185.979 38.2744C185.877 38.2158 185.708 38.0986 185.474 37.9229C184.888 37.4541 184.339 36.9634 183.826 36.4507C183.313 35.9233 182.852 35.418 182.442 34.9346C182.251 34.7002 182.097 34.5171 181.98 34.3853C181.863 34.2388 181.804 34.0703 181.804 33.8799ZM189.758 62.5981C189.758 63.0376 189.663 63.3452 189.473 63.521C189.297 63.6821 188.989 63.7627 188.55 63.7627H184.024C183.584 63.7627 183.269 63.6821 183.079 63.521C182.903 63.3452 182.815 63.0376 182.815 62.5981V42.4272C182.815 41.9878 182.903 41.6875 183.079 41.5264C183.269 41.3506 183.584 41.2627 184.024 41.2627H188.55C188.989 41.2627 189.297 41.3506 189.473 41.5264C189.663 41.6875 189.758 41.9878 189.758 42.4272V62.5981Z" fill="#FF7300" fill-opacity="0.7"/>
<path d="M217.488 49.7661V62.5981C217.488 63.0376 217.393 63.3452 217.202 63.521C217.027 63.6821 216.719 63.7627 216.279 63.7627H211.753C211.314 63.7627 210.999 63.6821 210.808 63.521C210.633 63.3452 210.545 63.0376 210.545 62.5981V50.9087C210.545 49.312 210.208 48.1475 209.534 47.415C208.86 46.6826 207.945 46.3164 206.787 46.3164C205.63 46.3164 204.737 46.5654 204.107 47.0635C203.491 47.5615 203.015 48.1914 202.678 48.9531V62.5981C202.678 63.0376 202.583 63.3452 202.393 63.521C202.217 63.6821 201.909 63.7627 201.47 63.7627H196.944C196.504 63.7627 196.189 63.6821 195.999 63.521C195.823 63.3452 195.735 63.0376 195.735 62.5981V44.1851C195.735 43.8335 195.808 43.5625 195.955 43.3721C196.262 42.9619 196.629 42.5444 197.053 42.1196C197.493 41.6948 198.028 41.2407 198.657 40.7573C198.848 40.6108 199.031 40.5376 199.207 40.5376C199.368 40.5376 199.551 40.6108 199.756 40.7573C200.371 41.2407 200.899 41.7021 201.338 42.1416C201.778 42.5811 202.166 43.0352 202.503 43.5039H202.612C202.862 43.1816 203.235 42.8081 203.733 42.3833C204.231 41.9438 204.927 41.5557 205.82 41.2188C206.729 40.8818 207.886 40.7134 209.292 40.7134C210.669 40.7134 211.98 40.9917 213.225 41.5483C214.47 42.105 215.488 43.0425 216.279 44.3608C217.085 45.6792 217.488 47.481 217.488 49.7661Z" fill="#FF7300" fill-opacity="0.7"/>
<path d="M230.364 62.5981C230.364 63.0376 230.269 63.3452 230.078 63.521C229.903 63.6821 229.595 63.7627 229.155 63.7627H224.629C224.19 63.7627 223.875 63.6821 223.684 63.521C223.508 63.3452 223.421 63.0376 223.421 62.5981V32.8691C223.421 32.5176 223.494 32.2466 223.64 32.0562C224.256 31.2505 225.156 30.3789 226.343 29.4414C226.548 29.2949 226.731 29.2217 226.892 29.2217C227.083 29.2217 227.266 29.2949 227.442 29.4414C228.071 29.9248 228.599 30.3789 229.024 30.8037C229.463 31.2285 229.837 31.646 230.144 32.0562C230.291 32.2466 230.364 32.5176 230.364 32.8691V43.5259H230.452C230.774 43.1011 231.192 42.6763 231.704 42.2515C232.217 41.812 232.898 41.4458 233.748 41.1528C234.612 40.8599 235.711 40.7134 237.044 40.7134C238.391 40.7134 239.688 40.9917 240.933 41.5483C242.178 42.105 243.196 43.0425 243.987 44.3608C244.778 45.6792 245.174 47.481 245.174 49.7661V62.5981C245.174 63.0376 245.078 63.3452 244.888 63.521C244.712 63.6821 244.404 63.7627 243.965 63.7627H239.439C238.999 63.7627 238.684 63.6821 238.494 63.521C238.318 63.3452 238.23 63.0376 238.23 62.5981V50.9746C238.23 49.3486 237.893 48.1694 237.219 47.437C236.546 46.6899 235.63 46.3164 234.473 46.3164C233.33 46.3164 232.444 46.5654 231.814 47.0635C231.184 47.5615 230.701 48.1914 230.364 48.9531V62.5981Z" fill="#FF7300" fill-opacity="0.7"/>
<path d="M261.895 64.312C258.203 64.312 255.281 63.3306 253.128 61.3677C250.974 59.4048 249.898 56.4824 249.898 52.6006C249.898 48.6162 251.011 45.6426 253.237 43.6797C255.479 41.7021 258.467 40.7134 262.202 40.7134C265.806 40.7134 268.692 41.6875 270.86 43.6357C273.028 45.5693 274.112 48.4258 274.112 52.2051C274.112 56.1455 273.028 59.1484 270.86 61.2139C268.692 63.2793 265.703 64.312 261.895 64.312ZM262.114 58.9946C263.726 58.9946 264.942 58.4966 265.762 57.5005C266.582 56.4897 266.992 54.7686 266.992 52.3369C266.992 50.0225 266.575 48.3965 265.74 47.459C264.92 46.5068 263.696 46.0308 262.07 46.0308C260.503 46.0308 259.265 46.5435 258.357 47.5688C257.464 48.5796 257.017 50.2275 257.017 52.5127C257.017 54.9004 257.442 56.5776 258.291 57.5444C259.155 58.5112 260.43 58.9946 262.114 58.9946Z" fill="#FF7300" fill-opacity="0.7"/>
<path d="M305.269 40.7134C307.407 40.7134 309.165 41.1968 310.542 42.1636C311.934 43.1157 312.966 44.4341 313.64 46.1187C314.329 47.7886 314.673 49.7075 314.673 51.8755C314.673 54.2192 314.27 56.3286 313.465 58.2036C312.674 60.0786 311.502 61.5654 309.949 62.6641C308.396 63.7627 306.47 64.312 304.17 64.312C302.984 64.312 302.002 64.1729 301.226 63.8945C300.464 63.6309 299.849 63.3159 299.38 62.9497C298.926 62.5688 298.567 62.2246 298.303 61.917H298.216V71.2773C298.216 71.6289 298.142 71.8999 297.996 72.0903C297.381 72.896 296.48 73.7676 295.293 74.7051C295.088 74.8516 294.905 74.9248 294.744 74.9248C294.568 74.9248 294.385 74.8516 294.195 74.7051C293.565 74.2217 293.03 73.7676 292.591 73.3428C292.166 72.918 291.799 72.5005 291.492 72.0903C291.345 71.8999 291.272 71.6289 291.272 71.2773V44.1851C291.272 43.8335 291.345 43.5625 291.492 43.3721C291.799 42.9619 292.166 42.5444 292.591 42.1196C293.03 41.6948 293.565 41.2407 294.195 40.7573C294.385 40.6108 294.583 40.5376 294.788 40.5376C294.978 40.5376 295.176 40.6108 295.381 40.7573C295.996 41.2407 296.524 41.7021 296.963 42.1416C297.403 42.5811 297.791 43.0352 298.128 43.5039H298.237C298.487 43.1963 298.867 42.8228 299.38 42.3833C299.893 41.9438 300.618 41.5557 301.555 41.2188C302.508 40.8818 303.745 40.7134 305.269 40.7134ZM302.566 58.709C304.148 58.709 305.371 58.1597 306.236 57.061C307.114 55.9478 307.554 54.3438 307.554 52.249C307.554 48.2939 305.928 46.3164 302.676 46.3164C301.299 46.3164 300.281 46.6021 299.622 47.1733C298.963 47.73 298.494 48.3232 298.216 48.9531V53.7212C298.216 55.1421 298.582 56.3286 299.314 57.2808C300.047 58.2329 301.131 58.709 302.566 58.709Z" fill="#FF7300" fill-opacity="0.7"/>
<path d="M325.22 64.312C323.067 64.312 321.353 63.7114 320.078 62.5103C318.819 61.2944 318.189 59.6245 318.189 57.5005C318.189 56.4019 318.386 55.3838 318.782 54.4463C319.192 53.4941 319.895 52.6592 320.891 51.9414C321.902 51.209 323.308 50.623 325.11 50.1836C326.926 49.7441 329.241 49.4878 332.053 49.4146C332.053 48.0815 331.716 47.1221 331.043 46.5361C330.383 45.9502 329.387 45.6572 328.054 45.6572C326.853 45.6572 325.872 45.8623 325.11 46.2725C324.348 46.6826 323.872 46.9609 323.682 47.1074C323.477 47.2832 323.228 47.3491 322.935 47.3052C322.539 47.2466 322.114 47.144 321.66 46.9976C321.221 46.8511 320.745 46.6826 320.232 46.4922C320.159 46.4629 320.078 46.4189 319.99 46.3604C319.903 46.2871 319.851 46.1846 319.837 46.0527C319.837 45.9795 319.844 45.8916 319.859 45.7891C319.873 45.6719 319.91 45.4668 319.968 45.1738C320.027 44.8809 320.115 44.522 320.232 44.0972C320.349 43.6577 320.459 43.3208 320.562 43.0864C320.694 42.8374 320.913 42.603 321.221 42.3833C321.47 42.1782 322.224 41.8486 323.484 41.3945C324.744 40.9404 326.568 40.7134 328.955 40.7134C335.532 40.7134 338.821 43.9141 338.821 50.3154V62.752C338.821 63.0303 338.74 63.272 338.579 63.4771C338.433 63.6675 338.176 63.7627 337.81 63.7627H334.514C334.28 63.7627 334.068 63.7334 333.877 63.6748C333.701 63.6016 333.533 63.4697 333.372 63.2793L332.009 61.5215H331.856C331.182 62.5029 330.274 63.2134 329.131 63.6528C328.003 64.0923 326.699 64.312 325.22 64.312ZM327.637 59.2144C328.985 59.2144 330.003 58.8701 330.691 58.1816C331.38 57.4932 331.819 56.7827 332.009 56.0503V53.6113C329.973 53.6113 328.443 53.7725 327.417 54.0947C326.406 54.4023 325.733 54.8125 325.396 55.3252C325.059 55.8232 324.89 56.3652 324.89 56.9512C324.89 57.8008 325.154 58.394 325.681 58.731C326.209 59.0532 326.861 59.2144 327.637 59.2144Z" fill="#FF7300" fill-opacity="0.7"/>
<path d="M351.477 45.4375H351.565C352.664 42.3906 354.641 40.8672 357.498 40.8672C357.864 40.8672 358.164 40.8892 358.399 40.9331C358.633 40.9624 358.794 40.9917 358.882 41.021C359.102 41.0942 359.212 41.2627 359.212 41.5264V46.8218C359.212 47.2759 358.948 47.4004 358.421 47.1953C358.245 47.1221 357.988 47.0488 357.652 46.9756C357.329 46.8877 356.875 46.8438 356.289 46.8438C354.78 46.8438 353.601 47.4004 352.752 48.5137C351.902 49.6123 351.477 51.1138 351.477 53.0181V62.5981C351.477 63.0376 351.382 63.3452 351.192 63.521C351.016 63.6821 350.708 63.7627 350.269 63.7627H345.742C345.303 63.7627 344.988 63.6821 344.798 63.521C344.622 63.3452 344.534 63.0376 344.534 62.5981V44.1851C344.534 43.8335 344.607 43.5625 344.754 43.3721C345.061 42.9619 345.427 42.5444 345.852 42.1196C346.292 41.6948 346.826 41.2407 347.456 40.7573C347.573 40.6694 347.691 40.6108 347.808 40.5815C347.925 40.5522 348.028 40.5376 348.115 40.5376C348.32 40.5376 348.526 40.6108 348.731 40.7573C349.946 41.7095 350.796 42.5225 351.279 43.1963C351.411 43.3721 351.477 43.5771 351.477 43.8115V45.4375Z" fill="#FF7300" fill-opacity="0.7"/>
<path d="M368.111 64.312C365.957 64.312 364.243 63.7114 362.969 62.5103C361.709 61.2944 361.079 59.6245 361.079 57.5005C361.079 56.4019 361.277 55.3838 361.673 54.4463C362.083 53.4941 362.786 52.6592 363.782 51.9414C364.793 51.209 366.199 50.623 368.001 50.1836C369.817 49.7441 372.132 49.4878 374.944 49.4146C374.944 48.0815 374.607 47.1221 373.933 46.5361C373.274 45.9502 372.278 45.6572 370.945 45.6572C369.744 45.6572 368.762 45.8623 368.001 46.2725C367.239 46.6826 366.763 46.9609 366.572 47.1074C366.367 47.2832 366.118 47.3491 365.825 47.3052C365.43 47.2466 365.005 47.144 364.551 46.9976C364.112 46.8511 363.635 46.6826 363.123 46.4922C363.049 46.4629 362.969 46.4189 362.881 46.3604C362.793 46.2871 362.742 46.1846 362.727 46.0527C362.727 45.9795 362.735 45.8916 362.749 45.7891C362.764 45.6719 362.8 45.4668 362.859 45.1738C362.918 44.8809 363.006 44.522 363.123 44.0972C363.24 43.6577 363.35 43.3208 363.452 43.0864C363.584 42.8374 363.804 42.603 364.112 42.3833C364.361 42.1782 365.115 41.8486 366.375 41.3945C367.634 40.9404 369.458 40.7134 371.846 40.7134C378.423 40.7134 381.712 43.9141 381.712 50.3154V62.752C381.712 63.0303 381.631 63.272 381.47 63.4771C381.323 63.6675 381.067 63.7627 380.701 63.7627H377.405C377.171 63.7627 376.958 63.7334 376.768 63.6748C376.592 63.6016 376.424 63.4697 376.262 63.2793L374.9 61.5215H374.746C374.072 62.5029 373.164 63.2134 372.022 63.6528C370.894 64.0923 369.59 64.312 368.111 64.312ZM370.528 59.2144C371.875 59.2144 372.893 58.8701 373.582 58.1816C374.27 57.4932 374.71 56.7827 374.9 56.0503V53.6113C372.864 53.6113 371.333 53.7725 370.308 54.0947C369.297 54.4023 368.623 54.8125 368.286 55.3252C367.949 55.8232 367.781 56.3652 367.781 56.9512C367.781 57.8008 368.045 58.394 368.572 58.731C369.099 59.0532 369.751 59.2144 370.528 59.2144Z" fill="#FF7300" fill-opacity="0.7"/>
<path d="M407.925 64.312C402.71 64.312 400.103 61.1553 400.103 54.8418L400.081 43.6797C400.081 43.3281 400.154 43.0571 400.3 42.8667C400.916 42.061 401.817 41.1895 403.003 40.252C403.208 40.1055 403.391 40.0322 403.552 40.0322C403.743 40.0322 403.926 40.1055 404.102 40.252C404.732 40.7354 405.259 41.1895 405.684 41.6143C406.123 42.0391 406.497 42.4565 406.804 42.8667C406.951 43.0571 407.024 43.3281 407.024 43.6797V54.2266C407.024 57.4053 408.284 58.9946 410.803 58.9946C412.049 58.9946 413.045 58.5625 413.792 57.6982C414.539 56.8193 414.912 55.6328 414.912 54.1387V43.6797C414.912 43.3281 414.986 43.0571 415.132 42.8667C415.747 42.061 416.648 41.1895 417.835 40.252C418.04 40.1055 418.223 40.0322 418.384 40.0322C418.574 40.0322 418.758 40.1055 418.933 40.252C419.563 40.7354 420.091 41.1895 420.515 41.6143C420.955 42.0391 421.328 42.4565 421.636 42.8667C421.782 43.0571 421.856 43.3281 421.856 43.6797V62.752C421.856 63.0303 421.76 63.272 421.57 63.4771C421.38 63.6675 421.138 63.7627 420.845 63.7627H417.549C417.315 63.7627 417.102 63.7334 416.912 63.6748C416.736 63.6016 416.568 63.4697 416.406 63.2793L415.044 61.5215H414.89C414.656 61.8584 414.29 62.2466 413.792 62.686C413.308 63.1255 412.598 63.5063 411.66 63.8286C410.737 64.1509 409.492 64.312 407.925 64.312Z" fill="#FF7300" fill-opacity="0.7"/>
<path d="M447.937 43.5698C448.479 42.9106 449.314 42.2734 450.442 41.6582C451.585 41.0283 453.189 40.7134 455.254 40.7134C458.184 40.7134 460.3 41.4678 461.604 42.9766C462.908 44.4854 463.56 46.7485 463.56 49.7661V62.5981C463.56 63.0376 463.465 63.3452 463.274 63.521C463.098 63.6821 462.791 63.7627 462.351 63.7627H457.825C457.385 63.7627 457.07 63.6821 456.88 63.521C456.704 63.3452 456.616 63.0376 456.616 62.5981V50.9087C456.616 49.2681 456.316 48.0962 455.716 47.3931C455.115 46.6753 454.214 46.3164 453.013 46.3164C451.944 46.3164 451.094 46.5581 450.464 47.0415C449.849 47.5103 449.409 48.1475 449.146 48.9531V62.5981C449.146 63.0376 449.05 63.3452 448.86 63.521C448.684 63.6821 448.377 63.7627 447.937 63.7627H443.411C442.971 63.7627 442.656 63.6821 442.466 63.521C442.29 63.3452 442.202 63.0376 442.202 62.5981V50.9087C442.202 49.312 441.873 48.1475 441.214 47.415C440.554 46.6826 439.69 46.3164 438.621 46.3164C437.61 46.3164 436.797 46.5654 436.182 47.0635C435.567 47.5615 435.091 48.1914 434.754 48.9531V62.5981C434.754 63.0376 434.658 63.3452 434.468 63.521C434.292 63.6821 433.985 63.7627 433.545 63.7627H429.019C428.579 63.7627 428.264 63.6821 428.074 63.521C427.898 63.3452 427.81 63.0376 427.81 62.5981V44.1851C427.81 43.8335 427.883 43.5625 428.03 43.3721C428.338 42.9619 428.704 42.5444 429.129 42.1196C429.568 41.6948 430.103 41.2407 430.733 40.7573C430.923 40.6108 431.106 40.5376 431.282 40.5376C431.443 40.5376 431.626 40.6108 431.831 40.7573C432.446 41.2407 432.974 41.7021 433.413 42.1416C433.853 42.5811 434.241 43.0352 434.578 43.5039H434.688C435.186 42.874 435.962 42.2515 437.017 41.6362C438.071 41.021 439.58 40.7134 441.543 40.7134C443.418 40.7134 444.81 40.999 445.718 41.5703C446.626 42.127 447.366 42.7935 447.937 43.5698Z" fill="#FF7300" fill-opacity="0.7"/>
<path d="M489.202 62.5981C489.202 63.0376 489.114 63.3452 488.938 63.521C488.777 63.6821 488.484 63.7627 488.059 63.7627H483.643C483.233 63.7627 482.94 63.6821 482.764 63.521C482.588 63.3452 482.5 63.0376 482.5 62.5981V34.7588C482.5 33.8945 482.669 33.2646 483.006 32.8691C483.342 32.459 483.936 32.2539 484.785 32.2539H486.829C487.576 32.2539 488.279 32.3564 488.938 32.5615C489.612 32.752 490.322 33.1914 491.07 33.8799C491.831 34.5684 492.71 35.6377 493.706 37.0879C494.717 38.5234 495.933 40.4863 497.354 42.9766C498.716 45.3496 499.807 47.2466 500.628 48.6675C501.463 50.0884 502.107 51.1724 502.561 51.9194C503.015 52.6665 503.352 53.2012 503.572 53.5234C503.806 53.8457 503.997 54.1094 504.143 54.3145V35.7695C504.143 35.3447 504.209 35.0225 504.341 34.8027C504.971 33.8359 505.842 32.8179 506.956 31.7485C507.175 31.5728 507.359 31.4849 507.505 31.4849C507.666 31.4849 507.842 31.5728 508.032 31.7485C508.633 32.3052 509.138 32.8398 509.549 33.3525C509.973 33.8506 510.34 34.334 510.647 34.8027C510.779 35.0371 510.845 35.3594 510.845 35.7695V61.939C510.845 62.5981 510.72 63.0669 510.471 63.3452C510.222 63.6235 509.768 63.7627 509.109 63.7627H507C506.37 63.7627 505.725 63.6602 505.066 63.4551C504.407 63.2354 503.66 62.752 502.825 62.0049C501.99 61.2432 501.001 60.064 499.859 58.4673C498.716 56.8706 497.339 54.688 495.728 51.9194C494.365 49.561 493.274 47.686 492.454 46.2944C491.648 44.9028 491.033 43.8555 490.608 43.1523C490.183 42.4346 489.876 41.9365 489.685 41.6582C489.495 41.3652 489.334 41.1455 489.202 40.999V62.5981Z" fill="#FF7300" fill-opacity="0.7"/>
<path d="M527.456 64.312C523.765 64.312 520.842 63.3306 518.689 61.3677C516.536 59.4048 515.459 56.4824 515.459 52.6006C515.459 48.6162 516.572 45.6426 518.799 43.6797C521.04 41.7021 524.029 40.7134 527.764 40.7134C531.367 40.7134 534.253 41.6875 536.421 43.6357C538.589 45.5693 539.673 48.4258 539.673 52.2051C539.673 56.1455 538.589 59.1484 536.421 61.2139C534.253 63.2793 531.265 64.312 527.456 64.312ZM527.676 58.9946C529.287 58.9946 530.503 58.4966 531.323 57.5005C532.144 56.4897 532.554 54.7686 532.554 52.3369C532.554 50.0225 532.136 48.3965 531.301 47.459C530.481 46.5068 529.258 46.0308 527.632 46.0308C526.065 46.0308 524.827 46.5435 523.919 47.5688C523.025 48.5796 522.578 50.2275 522.578 52.5127C522.578 54.9004 523.003 56.5776 523.853 57.5444C524.717 58.5112 525.991 58.9946 527.676 58.9946Z" fill="#FF7300" fill-opacity="0.7"/>
<path d="M549.143 61.7192C548.338 60.4448 547.539 58.98 546.748 57.3247C545.972 55.6548 545.261 53.9702 544.617 52.271C543.987 50.5571 543.482 48.9971 543.101 47.5908C542.72 46.1699 542.529 45.0786 542.529 44.3169C542.529 44.0239 542.61 43.7822 542.771 43.5918C543.445 42.7568 544.404 41.8853 545.65 40.9771C545.869 40.8306 546.067 40.7573 546.243 40.7573C546.433 40.7573 546.631 40.8306 546.836 40.9771C547.51 41.4604 548.074 41.9146 548.528 42.3394C548.997 42.7642 549.392 43.1816 549.715 43.5918C549.876 43.7822 549.956 44.0532 549.956 44.4048V44.2949C549.956 45.2471 550.125 46.4995 550.462 48.0522C550.813 49.5903 551.289 51.2163 551.89 52.9302C552.49 54.644 553.186 56.2188 553.977 57.6543H554.087C554.746 56.5703 555.332 55.3984 555.845 54.1387C556.358 52.8789 556.79 51.6191 557.141 50.3594C557.493 49.0996 557.757 47.9424 557.932 46.8877C558.123 45.833 558.218 44.9761 558.218 44.3169V44.4048C558.218 44.0532 558.291 43.7822 558.438 43.5918C558.775 43.1816 559.17 42.7642 559.624 42.3394C560.078 41.9146 560.628 41.4604 561.272 40.9771C561.477 40.8306 561.668 40.7573 561.843 40.7573C562.049 40.7573 562.239 40.8306 562.415 40.9771C563.074 41.4604 563.631 41.9146 564.085 42.3394C564.539 42.7642 564.927 43.1816 565.249 43.5918C565.396 43.7822 565.469 44.0386 565.469 44.3608C565.454 45.1519 565.249 46.2651 564.854 47.7007C564.458 49.1216 563.924 50.689 563.25 52.4028C562.591 54.1021 561.851 55.7793 561.03 57.4346C560.21 59.0752 559.375 60.5034 558.526 61.7192C558.013 62.4663 557.551 62.9937 557.141 63.3013C556.731 63.6089 556.021 63.7627 555.01 63.7627H552.681C551.626 63.7627 550.894 63.6162 550.484 63.3232C550.088 63.0303 549.641 62.4956 549.143 61.7192ZM542.529 44.2949V44.3169C542.529 44.3462 542.529 44.3755 542.529 44.4048V44.2949ZM565.469 44.3169V44.4048V44.3608C565.469 44.3462 565.469 44.3315 565.469 44.3169Z" fill="#FF7300" fill-opacity="0.7"/>
<path d="M580.322 64.312C576.631 64.312 573.709 63.3306 571.555 61.3677C569.402 59.4048 568.325 56.4824 568.325 52.6006C568.325 48.6162 569.439 45.6426 571.665 43.6797C573.906 41.7021 576.895 40.7134 580.63 40.7134C584.234 40.7134 587.119 41.6875 589.287 43.6357C591.455 45.5693 592.539 48.4258 592.539 52.2051C592.539 56.1455 591.455 59.1484 589.287 61.2139C587.119 63.2793 584.131 64.312 580.322 64.312ZM580.542 58.9946C582.154 58.9946 583.369 58.4966 584.19 57.5005C585.01 56.4897 585.42 54.7686 585.42 52.3369C585.42 50.0225 585.003 48.3965 584.168 47.459C583.347 46.5068 582.124 46.0308 580.498 46.0308C578.931 46.0308 577.693 46.5435 576.785 47.5688C575.891 48.5796 575.445 50.2275 575.445 52.5127C575.445 54.9004 575.869 56.5776 576.719 57.5444C577.583 58.5112 578.858 58.9946 580.542 58.9946Z" fill="#FF7300" fill-opacity="0.7"/>
<path d="M627.212 33.9897C628.018 35.1177 628.838 36.5752 629.673 38.3623C630.523 40.1348 631.343 42.083 632.134 44.207C632.925 46.3311 633.635 48.5063 634.265 50.7329C634.91 52.9448 635.437 55.0762 635.847 57.127C636.258 59.1777 636.492 61.0015 636.55 62.5981C636.565 63.3745 636.214 63.7627 635.496 63.7627H630.178C629.49 63.7627 629.131 63.4185 629.102 62.73C629.043 61.0894 628.779 59.0972 628.311 56.7534H616.314C615.904 59.0386 615.669 61.0308 615.611 62.73C615.581 63.4185 615.208 63.7627 614.49 63.7627H609.282C609.019 63.7627 608.799 63.6895 608.623 63.543C608.447 63.3818 608.367 63.1108 608.382 62.73C608.455 61.104 608.689 59.2583 609.085 57.1929C609.495 55.1128 610.022 52.9595 610.667 50.7329C611.311 48.5063 612.029 46.3311 612.82 44.207C613.611 42.0684 614.431 40.1128 615.281 38.3403C616.131 36.5679 616.958 35.1177 617.764 33.9897C618.189 33.3892 618.635 32.9497 619.104 32.6714C619.588 32.3931 620.181 32.2539 620.884 32.2539H624.048C624.766 32.2539 625.366 32.3931 625.85 32.6714C626.333 32.9497 626.787 33.3892 627.212 33.9897ZM622.246 39.1973C621.279 40.7354 620.393 42.5737 619.588 44.7124C618.782 46.8511 618.086 49.0483 617.5 51.3042H627.036C626.421 49.0483 625.711 46.8511 624.905 44.7124C624.099 42.5737 623.257 40.7354 622.378 39.1973H622.246Z" fill="#FF7300" fill-opacity="0.7"/>
<path d="M660.852 43.5698C661.394 42.9106 662.229 42.2734 663.357 41.6582C664.5 41.0283 666.104 40.7134 668.169 40.7134C671.099 40.7134 673.216 41.4678 674.519 42.9766C675.823 44.4854 676.475 46.7485 676.475 49.7661V62.5981C676.475 63.0376 676.38 63.3452 676.189 63.521C676.013 63.6821 675.706 63.7627 675.266 63.7627H670.74C670.3 63.7627 669.986 63.6821 669.795 63.521C669.619 63.3452 669.531 63.0376 669.531 62.5981V50.9087C669.531 49.2681 669.231 48.0962 668.631 47.3931C668.03 46.6753 667.129 46.3164 665.928 46.3164C664.859 46.3164 664.009 46.5581 663.379 47.0415C662.764 47.5103 662.324 48.1475 662.061 48.9531V62.5981C662.061 63.0376 661.966 63.3452 661.775 63.521C661.599 63.6821 661.292 63.7627 660.852 63.7627H656.326C655.886 63.7627 655.571 63.6821 655.381 63.521C655.205 63.3452 655.117 63.0376 655.117 62.5981V50.9087C655.117 49.312 654.788 48.1475 654.129 47.415C653.469 46.6826 652.605 46.3164 651.536 46.3164C650.525 46.3164 649.712 46.5654 649.097 47.0635C648.482 47.5615 648.006 48.1914 647.669 48.9531V62.5981C647.669 63.0376 647.573 63.3452 647.383 63.521C647.207 63.6821 646.9 63.7627 646.46 63.7627H641.934C641.494 63.7627 641.179 63.6821 640.989 63.521C640.813 63.3452 640.725 63.0376 640.725 62.5981V44.1851C640.725 43.8335 640.799 43.5625 640.945 43.3721C641.253 42.9619 641.619 42.5444 642.044 42.1196C642.483 41.6948 643.018 41.2407 643.648 40.7573C643.838 40.6108 644.021 40.5376 644.197 40.5376C644.358 40.5376 644.541 40.6108 644.746 40.7573C645.362 41.2407 645.889 41.7021 646.328 42.1416C646.768 42.5811 647.156 43.0352 647.493 43.5039H647.603C648.101 42.874 648.877 42.2515 649.932 41.6362C650.987 41.021 652.495 40.7134 654.458 40.7134C656.333 40.7134 657.725 40.999 658.633 41.5703C659.541 42.127 660.281 42.7935 660.852 43.5698Z" fill="#FF7300" fill-opacity="0.7"/>
<path d="M681.419 33.8799C681.419 33.6895 681.477 33.521 681.594 33.3745C681.712 33.228 681.865 33.0376 682.056 32.8032C682.466 32.3345 682.942 31.8438 683.484 31.3311C684.026 30.8037 684.575 30.2983 685.132 29.8149C685.484 29.5366 685.747 29.3975 685.923 29.3975C686.099 29.3975 686.37 29.5366 686.736 29.8149C687.923 30.8403 688.933 31.8364 689.768 32.8032C689.959 33.0229 690.112 33.2134 690.23 33.3745C690.362 33.521 690.427 33.6895 690.427 33.8799C690.427 34.0703 690.362 34.2388 690.23 34.3853C690.112 34.5317 689.951 34.7295 689.746 34.9785C689.351 35.4326 688.889 35.9233 688.362 36.4507C687.835 36.9634 687.293 37.4541 686.736 37.9229C686.531 38.0986 686.37 38.2158 686.253 38.2744C686.135 38.3184 686.026 38.3403 685.923 38.3403C685.82 38.3403 685.711 38.3184 685.593 38.2744C685.491 38.2158 685.322 38.0986 685.088 37.9229C684.502 37.4541 683.953 36.9634 683.44 36.4507C682.927 35.9233 682.466 35.418 682.056 34.9346C681.865 34.7002 681.712 34.5171 681.594 34.3853C681.477 34.2388 681.419 34.0703 681.419 33.8799ZM689.373 62.5981C689.373 63.0376 689.278 63.3452 689.087 63.521C688.911 63.6821 688.604 63.7627 688.164 63.7627H683.638C683.198 63.7627 682.883 63.6821 682.693 63.521C682.517 63.3452 682.429 63.0376 682.429 62.5981V42.4272C682.429 41.9878 682.517 41.6875 682.693 41.5264C682.883 41.3506 683.198 41.2627 683.638 41.2627H688.164C688.604 41.2627 688.911 41.3506 689.087 41.5264C689.278 41.6875 689.373 41.9878 689.373 42.4272V62.5981Z" fill="#FF7300" fill-opacity="0.7"/>
<path d="M717.102 43.3721V61.1919C717.102 65.4692 715.879 68.7285 713.433 70.9697C711.001 73.2109 707.661 74.3315 703.413 74.3315C701.655 74.3315 700.264 74.1997 699.238 73.936C698.213 73.687 697.437 73.4453 696.909 73.2109C696.572 73.0498 696.353 72.8813 696.25 72.7056C696.104 72.4712 695.935 72.127 695.745 71.6729C695.569 71.2188 695.401 70.7207 695.239 70.1787C695.195 69.9736 695.188 69.8198 695.217 69.7173C695.276 69.5708 695.386 69.417 695.547 69.2559C695.811 68.9922 696.184 68.6846 696.668 68.333C697.166 67.9814 697.547 67.7544 697.81 67.6519C698.089 67.5493 698.345 67.564 698.579 67.6958C698.96 67.9009 699.502 68.1279 700.205 68.377C700.923 68.6406 701.926 68.7725 703.216 68.7725C705.266 68.7725 706.936 68.2451 708.225 67.1904C709.514 66.1357 710.159 64.5098 710.159 62.3125V61.5215H710.071C709.749 61.9316 709.331 62.3491 708.819 62.7739C708.306 63.1987 707.639 63.5576 706.819 63.8506C706.013 64.1436 704.973 64.29 703.699 64.29C701.487 64.29 699.671 63.814 698.25 62.8618C696.843 61.895 695.803 60.5693 695.13 58.8848C694.47 57.2002 694.141 55.2812 694.141 53.1279C694.141 50.7695 694.529 48.6528 695.305 46.7778C696.082 44.9028 697.385 43.4233 699.216 42.3394C701.048 41.2407 703.552 40.6914 706.731 40.6914C708.635 40.6914 710.232 40.8306 711.521 41.1089C712.825 41.3872 713.916 41.7314 714.795 42.1416C715.674 42.5518 716.443 42.9619 717.102 43.3721ZM706.489 46.0088C704.79 46.0088 703.494 46.5801 702.6 47.7227C701.707 48.8652 701.26 50.6377 701.26 53.04C701.26 56.8047 702.813 58.687 705.918 58.687C707.134 58.687 708.064 58.438 708.709 57.9399C709.353 57.4419 709.837 56.812 710.159 56.0503V46.9756C709.837 46.7412 709.383 46.5215 708.797 46.3164C708.211 46.1113 707.442 46.0088 706.489 46.0088Z" fill="#FF7300" fill-opacity="0.7"/>
<path d="M733.823 64.312C730.132 64.312 727.21 63.3306 725.056 61.3677C722.903 59.4048 721.826 56.4824 721.826 52.6006C721.826 48.6162 722.94 45.6426 725.166 43.6797C727.407 41.7021 730.396 40.7134 734.131 40.7134C737.735 40.7134 740.62 41.6875 742.788 43.6357C744.956 45.5693 746.04 48.4258 746.04 52.2051C746.04 56.1455 744.956 59.1484 742.788 61.2139C740.62 63.2793 737.632 64.312 733.823 64.312ZM734.043 58.9946C735.654 58.9946 736.87 58.4966 737.691 57.5005C738.511 56.4897 738.921 54.7686 738.921 52.3369C738.921 50.0225 738.504 48.3965 737.669 47.459C736.848 46.5068 735.625 46.0308 733.999 46.0308C732.432 46.0308 731.194 46.5435 730.286 47.5688C729.392 48.5796 728.945 50.2275 728.945 52.5127C728.945 54.9004 729.37 56.5776 730.22 57.5444C731.084 58.5112 732.359 58.9946 734.043 58.9946Z" fill="#FF7300" fill-opacity="0.7"/>
<path d="M16.9208 103.957C13.5354 103.957 10.5895 103.306 8.08295 102.004C5.57644 100.702 3.63145 98.7405 2.24799 96.12C0.880798 93.4996 0.197205 90.2281 0.197205 86.3056C0.197205 80.0718 1.71901 75.425 4.76263 72.3651C7.80625 69.289 12.0462 67.7509 17.4824 67.7509C22.5768 67.7509 26.6051 69.2564 29.5673 72.2675C32.5296 75.2623 34.0107 79.7056 34.0107 85.5975C34.0107 89.7642 33.3189 93.2066 31.9355 95.9247C30.552 98.6265 28.5826 100.645 26.0273 101.979C23.4719 103.298 20.4365 103.957 16.9208 103.957ZM17.0673 97.3651C19.997 97.3651 22.1699 96.3153 23.5859 94.2157C25.0019 92.1161 25.7099 89.3899 25.7099 86.037C25.7099 82.147 25.0426 79.2255 23.7079 77.2724C22.3733 75.3192 20.2249 74.3427 17.2626 74.3427C11.4195 74.3427 8.49799 78.192 8.49799 85.8905C8.49799 89.3248 9.19786 92.0998 10.5976 94.2157C12.0136 96.3153 14.1702 97.3651 17.0673 97.3651Z" fill="#411D00"/>
<path d="M68.6542 97.3651C69.8424 97.3651 70.7701 97.2431 71.4374 96.9989C72.121 96.7548 72.65 96.4537 73.0244 96.0956C73.3987 95.7375 73.7242 95.3795 74.0009 95.0214C74.2613 94.6959 74.4729 94.4517 74.6357 94.289C74.8147 94.1262 75.0589 94.0123 75.3681 93.9472C75.6285 93.8658 76.0436 93.817 76.6132 93.8007C77.1992 93.7681 77.777 93.7518 78.3466 93.7518C78.9326 93.7518 79.3395 93.7681 79.5673 93.8007C79.9091 93.817 80.1451 93.8821 80.2753 93.996C80.4055 94.1099 80.4869 94.3541 80.5195 94.7284C80.5683 95.2492 80.5927 95.8677 80.5927 96.5839C80.609 97.3 80.6009 97.9185 80.5683 98.4393C80.552 98.6021 80.5195 98.7405 80.4706 98.8544C80.4381 98.9683 80.3567 99.1392 80.2265 99.3671C80.0637 99.6275 79.7464 100.01 79.2744 100.515C78.8023 101.003 78.1106 101.516 77.1992 102.053C76.2877 102.573 75.1077 103.021 73.6591 103.395C72.2268 103.77 70.4609 103.957 68.3613 103.957C66.1152 103.957 64.0156 103.672 62.0624 103.102C60.1093 102.516 58.3922 101.54 56.9111 100.173C55.4462 98.8056 54.2988 96.9582 53.4687 94.6308C52.6549 92.3033 52.248 89.398 52.248 85.9149C52.248 82.0412 52.9153 78.7535 54.2499 76.0517C55.6009 73.3336 57.5133 71.2665 59.9872 69.8505C62.4612 68.4345 65.3909 67.7265 68.7763 67.7265C71.1526 67.7265 73.0569 67.9706 74.4892 68.4589C75.9378 68.9472 77.0364 69.525 77.7851 70.1923C78.5338 70.8433 79.0628 71.413 79.372 71.9013C79.4859 72.0803 79.5673 72.2431 79.6161 72.3895C79.665 72.5197 79.6975 72.7313 79.7138 73.0243C79.7626 73.4149 79.7708 73.9846 79.7382 74.7333C79.7219 75.482 79.665 76.1412 79.5673 76.7108C79.5022 77.0689 79.3964 77.3049 79.2499 77.4188C79.1848 77.4839 79.0709 77.5409 78.9081 77.5897C78.7454 77.6386 78.5012 77.663 78.1757 77.663C77.6549 77.663 77.0689 77.6467 76.4179 77.6142C75.7669 77.5653 75.2786 77.5165 74.9531 77.4677C74.5624 77.4026 74.2776 77.313 74.0986 77.1991C73.9195 77.0689 73.7405 76.8736 73.5615 76.6132C73.2685 76.19 72.7639 75.7017 72.0478 75.1483C71.3316 74.5949 70.1516 74.3183 68.5078 74.3183C66.1966 74.3183 64.2923 75.2134 62.7949 77.0038C61.2975 78.7779 60.5488 81.6587 60.5488 85.6464C60.5488 89.6177 61.33 92.5637 62.8925 94.4843C64.4713 96.4048 66.3919 97.3651 68.6542 97.3651Z" fill="#411D00"/>
<path d="M91.8476 103.957C89.455 103.957 87.5507 103.29 86.1347 101.955C84.735 100.604 84.0351 98.7486 84.0351 96.3886C84.0351 95.1679 84.2548 94.0367 84.6943 92.995C85.15 91.9371 85.9313 91.0093 87.038 90.2118C88.1611 89.398 89.7236 88.747 91.7255 88.2587C93.7438 87.7704 96.3154 87.4856 99.4404 87.4042C99.4404 85.9231 99.066 84.857 98.3173 84.2059C97.5849 83.5549 96.4781 83.2294 94.997 83.2294C93.6624 83.2294 92.5719 83.4572 91.7255 83.913C90.8792 84.3687 90.3502 84.678 90.1386 84.8407C89.9107 85.036 89.6341 85.1093 89.3085 85.0604C88.8691 84.9953 88.3971 84.8814 87.8925 84.7186C87.4042 84.5559 86.8753 84.3687 86.3056 84.1571C86.2242 84.1246 86.1347 84.0757 86.037 84.0106C85.9394 83.9293 85.8824 83.8153 85.8661 83.6688C85.8661 83.5875 85.8743 83.4898 85.8906 83.3759C85.9068 83.2457 85.9475 83.0178 86.0126 82.6923C86.0777 82.3668 86.1754 81.968 86.3056 81.496C86.4358 81.0077 86.5579 80.6334 86.6718 80.3729C86.8183 80.0962 87.0624 79.8358 87.4042 79.5917C87.6809 79.3638 88.5191 78.9976 89.9189 78.4931C91.3186 77.9885 93.345 77.7362 95.998 77.7362C103.306 77.7362 106.96 81.2925 106.96 88.4052V102.224C106.96 102.533 106.87 102.801 106.691 103.029C106.529 103.241 106.244 103.347 105.837 103.347H102.175C101.914 103.347 101.678 103.314 101.467 103.249C101.271 103.168 101.084 103.021 100.905 102.809L99.3915 100.856H99.2206C98.4719 101.947 97.4628 102.736 96.1933 103.225C94.94 103.713 93.4915 103.957 91.8476 103.957ZM94.5331 98.2929C96.0305 98.2929 97.1617 97.9104 97.9267 97.1454C98.6917 96.3804 99.18 95.591 99.3915 94.7772V92.0673C97.1292 92.0673 95.4283 92.2463 94.289 92.6044C93.166 92.9462 92.4173 93.4019 92.0429 93.9716C91.6686 94.525 91.4814 95.1272 91.4814 95.7782C91.4814 96.7222 91.7744 97.3814 92.3603 97.7558C92.9462 98.1138 93.6705 98.2929 94.5331 98.2929Z" fill="#411D00"/>
<path d="M135.671 80.91C136.273 80.1776 137.201 79.4696 138.454 78.786C139.724 78.0862 141.506 77.7362 143.801 77.7362C147.056 77.7362 149.408 78.5744 150.856 80.2509C152.305 81.9273 153.029 84.442 153.029 87.7948V102.053C153.029 102.541 152.923 102.883 152.712 103.078C152.517 103.257 152.175 103.347 151.686 103.347H146.657C146.169 103.347 145.819 103.257 145.607 103.078C145.412 102.883 145.314 102.541 145.314 102.053V89.0643C145.314 87.2414 144.981 85.9393 144.313 85.1581C143.646 84.3606 142.645 83.9618 141.31 83.9618C140.122 83.9618 139.178 84.2304 138.478 84.7675C137.795 85.2883 137.307 85.9963 137.014 86.8915V102.053C137.014 102.541 136.908 102.883 136.696 103.078C136.501 103.257 136.159 103.347 135.671 103.347H130.642C130.153 103.347 129.803 103.257 129.592 103.078C129.396 102.883 129.299 102.541 129.299 102.053V89.0643C129.299 87.2903 128.933 85.9963 128.2 85.1825C127.468 84.3687 126.507 83.9618 125.319 83.9618C124.196 83.9618 123.293 84.2385 122.609 84.7919C121.926 85.3453 121.397 86.0451 121.022 86.8915V102.053C121.022 102.541 120.917 102.883 120.705 103.078C120.51 103.257 120.168 103.347 119.68 103.347H114.65C114.162 103.347 113.812 103.257 113.601 103.078C113.405 102.883 113.308 102.541 113.308 102.053V81.5936C113.308 81.203 113.389 80.9019 113.552 80.6903C113.893 80.2346 114.3 79.7707 114.772 79.2987C115.261 78.8267 115.855 78.3222 116.555 77.785C116.766 77.6223 116.97 77.5409 117.165 77.5409C117.344 77.5409 117.547 77.6223 117.775 77.785C118.459 78.3222 119.045 78.8349 119.533 79.3231C120.021 79.8114 120.453 80.316 120.827 80.8368H120.949C121.503 80.1369 122.365 79.4452 123.537 78.7616C124.709 78.078 126.385 77.7362 128.566 77.7362C130.65 77.7362 132.196 78.0536 133.205 78.6884C134.214 79.3069 135.036 80.0474 135.671 80.91Z" fill="#411D00"/>
<path d="M158.522 70.1434C158.522 69.9319 158.588 69.7447 158.718 69.5819C158.848 69.4192 159.019 69.2076 159.23 68.9472C159.686 68.4263 160.215 67.8811 160.817 67.3114C161.42 66.7255 162.03 66.164 162.648 65.6268C163.039 65.3176 163.332 65.163 163.527 65.163C163.723 65.163 164.024 65.3176 164.431 65.6268C165.749 66.7662 166.872 67.8729 167.8 68.9472C168.011 69.1913 168.182 69.4029 168.312 69.5819C168.459 69.7447 168.532 69.9319 168.532 70.1434C168.532 70.355 168.459 70.5422 168.312 70.705C168.182 70.8677 168.003 71.0875 167.775 71.3642C167.336 71.8687 166.823 72.414 166.237 72.9999C165.651 73.5696 165.049 74.1148 164.431 74.6356C164.203 74.8309 164.024 74.9612 163.893 75.0263C163.763 75.0751 163.641 75.0995 163.527 75.0995C163.413 75.0995 163.291 75.0751 163.161 75.0263C163.047 74.9612 162.86 74.8309 162.6 74.6356C161.949 74.1148 161.338 73.5696 160.768 72.9999C160.199 72.414 159.686 71.8524 159.23 71.3153C159.019 71.0549 158.848 70.8515 158.718 70.705C158.588 70.5422 158.522 70.355 158.522 70.1434ZM167.36 102.053C167.36 102.541 167.254 102.883 167.043 103.078C166.848 103.257 166.506 103.347 166.018 103.347H160.988C160.5 103.347 160.15 103.257 159.938 103.078C159.743 102.883 159.645 102.541 159.645 102.053V79.6405C159.645 79.1522 159.743 78.8186 159.938 78.6395C160.15 78.4442 160.5 78.3466 160.988 78.3466H166.018C166.506 78.3466 166.848 78.4442 167.043 78.6395C167.254 78.8186 167.36 79.1522 167.36 79.6405V102.053Z" fill="#411D00"/>
<path d="M198.171 87.7948V102.053C198.171 102.541 198.065 102.883 197.853 103.078C197.658 103.257 197.316 103.347 196.828 103.347H191.799C191.31 103.347 190.961 103.257 190.749 103.078C190.554 102.883 190.456 102.541 190.456 102.053V89.0643C190.456 87.2903 190.082 85.9963 189.333 85.1825C188.584 84.3687 187.567 83.9618 186.281 83.9618C184.995 83.9618 184.003 84.2385 183.303 84.7919C182.619 85.3453 182.09 86.0451 181.716 86.8915V102.053C181.716 102.541 181.61 102.883 181.398 103.078C181.203 103.257 180.861 103.347 180.373 103.347H175.344C174.855 103.347 174.505 103.257 174.294 103.078C174.099 102.883 174.001 102.541 174.001 102.053V81.5936C174.001 81.203 174.082 80.9019 174.245 80.6903C174.587 80.2346 174.994 79.7707 175.466 79.2987C175.954 78.8267 176.548 78.3222 177.248 77.785C177.46 77.6223 177.663 77.5409 177.858 77.5409C178.037 77.5409 178.241 77.6223 178.469 77.785C179.152 78.3222 179.738 78.8349 180.227 79.3231C180.715 79.8114 181.146 80.316 181.52 80.8368H181.643C181.919 80.4787 182.334 80.0637 182.888 79.5917C183.441 79.1034 184.214 78.6721 185.207 78.2977C186.216 77.9234 187.502 77.7362 189.064 77.7362C190.594 77.7362 192.051 78.0455 193.435 78.664C194.818 79.2824 195.949 80.3241 196.828 81.789C197.723 83.2538 198.171 85.2558 198.171 87.7948Z" fill="#411D00"/>
<path d="M212.477 102.053C212.477 102.541 212.372 102.883 212.16 103.078C211.965 103.257 211.623 103.347 211.135 103.347H206.105C205.617 103.347 205.267 103.257 205.056 103.078C204.86 102.883 204.763 102.541 204.763 102.053V69.0204C204.763 68.6298 204.844 68.3287 205.007 68.1171C205.69 67.2219 206.691 66.2535 208.01 65.2118C208.238 65.049 208.441 64.9677 208.62 64.9677C208.832 64.9677 209.035 65.049 209.23 65.2118C209.93 65.7489 210.516 66.2535 210.988 66.7255C211.477 67.1975 211.892 67.6614 212.233 68.1171C212.396 68.3287 212.477 68.6298 212.477 69.0204V80.8612H212.575C212.933 80.3892 213.397 79.9172 213.967 79.4452C214.536 78.9569 215.293 78.55 216.237 78.2245C217.198 77.899 218.418 77.7362 219.899 77.7362C221.397 77.7362 222.837 78.0455 224.221 78.664C225.604 79.2824 226.735 80.3241 227.614 81.789C228.493 83.2538 228.933 85.2558 228.933 87.7948V102.053C228.933 102.541 228.827 102.883 228.615 103.078C228.42 103.257 228.078 103.347 227.59 103.347H222.56C222.072 103.347 221.722 103.257 221.511 103.078C221.315 102.883 221.218 102.541 221.218 102.053V89.1376C221.218 87.3309 220.843 86.0207 220.095 85.2069C219.346 84.3768 218.329 83.9618 217.043 83.9618C215.773 83.9618 214.789 84.2385 214.089 84.7919C213.389 85.3453 212.852 86.0451 212.477 86.8915V102.053Z" fill="#411D00"/>
<path d="M247.512 103.957C243.41 103.957 240.163 102.866 237.77 100.685C235.378 98.5045 234.182 95.2574 234.182 90.9442C234.182 86.5171 235.419 83.2131 237.893 81.0321C240.383 78.8349 243.703 77.7362 247.853 77.7362C251.857 77.7362 255.064 78.8186 257.473 80.9833C259.881 83.1317 261.086 86.3056 261.086 90.5048C261.086 94.883 259.881 98.2196 257.473 100.515C255.064 102.809 251.743 103.957 247.512 103.957ZM247.756 98.0487C249.546 98.0487 250.897 97.4953 251.809 96.3886C252.72 95.2655 253.176 93.3531 253.176 90.6513C253.176 88.0796 252.712 86.273 251.784 85.2313C250.873 84.1734 249.514 83.6444 247.707 83.6444C245.965 83.6444 244.59 84.2141 243.581 85.3534C242.588 86.4765 242.092 88.3075 242.092 90.8466C242.092 93.4996 242.564 95.3632 243.508 96.4374C244.468 97.5116 245.884 98.0487 247.756 98.0487Z" fill="#411D00"/>
<path d="M295.705 77.7362C298.081 77.7362 300.034 78.2733 301.564 79.3475C303.111 80.4055 304.258 81.8703 305.007 83.7421C305.772 85.5975 306.154 87.7297 306.154 90.1386C306.154 92.7427 305.707 95.0865 304.811 97.1698C303.933 99.2531 302.63 100.905 300.905 102.126C299.18 103.347 297.04 103.957 294.484 103.957C293.166 103.957 292.075 103.802 291.213 103.493C290.366 103.2 289.683 102.85 289.162 102.443C288.657 102.02 288.259 101.638 287.966 101.296H287.868V111.696C287.868 112.087 287.787 112.388 287.624 112.6C286.94 113.495 285.939 114.463 284.621 115.505C284.393 115.668 284.19 115.749 284.011 115.749C283.815 115.749 283.612 115.668 283.4 115.505C282.7 114.968 282.106 114.463 281.618 113.991C281.146 113.519 280.739 113.055 280.397 112.6C280.235 112.388 280.153 112.087 280.153 111.696V81.5936C280.153 81.203 280.235 80.9019 280.397 80.6903C280.739 80.2346 281.146 79.7707 281.618 79.2987C282.106 78.8267 282.7 78.3222 283.4 77.785C283.612 77.6223 283.832 77.5409 284.06 77.5409C284.271 77.5409 284.491 77.6223 284.719 77.785C285.402 78.3222 285.988 78.8349 286.477 79.3231C286.965 79.8114 287.396 80.316 287.77 80.8368H287.893C288.169 80.495 288.592 80.08 289.162 79.5917C289.732 79.1034 290.537 78.6721 291.579 78.2977C292.637 77.9234 294.012 77.7362 295.705 77.7362ZM292.702 97.7313C294.46 97.7313 295.819 97.121 296.779 95.9003C297.756 94.6633 298.244 92.8811 298.244 90.5536C298.244 86.1591 296.437 83.9618 292.824 83.9618C291.294 83.9618 290.163 84.2792 289.431 84.914C288.698 85.5324 288.177 86.1916 287.868 86.8915V92.1893C287.868 93.7681 288.275 95.0865 289.089 96.1444C289.903 97.2024 291.107 97.7313 292.702 97.7313Z" fill="#411D00"/>
<path d="M317.873 103.957C315.48 103.957 313.576 103.29 312.16 101.955C310.76 100.604 310.06 98.7486 310.06 96.3886C310.06 95.1679 310.28 94.0367 310.72 92.995C311.175 91.9371 311.957 91.0093 313.063 90.2118C314.186 89.398 315.749 88.747 317.751 88.2587C319.769 87.7704 322.341 87.4856 325.466 87.4042C325.466 85.9231 325.091 84.857 324.343 84.2059C323.61 83.5549 322.504 83.2294 321.022 83.2294C319.688 83.2294 318.597 83.4572 317.751 83.913C316.905 84.3687 316.376 84.678 316.164 84.8407C315.936 85.036 315.659 85.1093 315.334 85.0604C314.894 84.9953 314.422 84.8814 313.918 84.7186C313.43 84.5559 312.901 84.3687 312.331 84.1571C312.25 84.1246 312.16 84.0757 312.062 84.0106C311.965 83.9293 311.908 83.8153 311.892 83.6688C311.892 83.5875 311.9 83.4898 311.916 83.3759C311.932 83.2457 311.973 83.0178 312.038 82.6923C312.103 82.3668 312.201 81.968 312.331 81.496C312.461 81.0077 312.583 80.6334 312.697 80.3729C312.844 80.0962 313.088 79.8358 313.43 79.5917C313.706 79.3638 314.545 78.9976 315.944 78.4931C317.344 77.9885 319.37 77.7362 322.023 77.7362C329.331 77.7362 332.985 81.2925 332.985 88.4052V102.224C332.985 102.533 332.896 102.801 332.717 103.029C332.554 103.241 332.269 103.347 331.862 103.347H328.2C327.94 103.347 327.704 103.314 327.492 103.249C327.297 103.168 327.11 103.021 326.931 102.809L325.417 100.856H325.246C324.497 101.947 323.488 102.736 322.219 103.225C320.965 103.713 319.517 103.957 317.873 103.957ZM320.559 98.2929C322.056 98.2929 323.187 97.9104 323.952 97.1454C324.717 96.3804 325.205 95.591 325.417 94.7772V92.0673C323.155 92.0673 321.454 92.2463 320.314 92.6044C319.191 92.9462 318.443 93.4019 318.068 93.9716C317.694 94.525 317.507 95.1272 317.507 95.7782C317.507 96.7222 317.8 97.3814 318.386 97.7558C318.972 98.1138 319.696 98.2929 320.559 98.2929Z" fill="#411D00"/>
<path d="M347.048 82.9852H347.145C348.366 79.5998 350.563 77.9071 353.737 77.9071C354.144 77.9071 354.478 77.9315 354.738 77.9804C354.999 78.0129 355.178 78.0455 355.275 78.078C355.519 78.1594 355.642 78.3466 355.642 78.6395V84.5233C355.642 85.0279 355.349 85.1662 354.763 84.9384C354.567 84.857 354.282 84.7756 353.908 84.6942C353.55 84.5966 353.046 84.5477 352.394 84.5477C350.718 84.5477 349.408 85.1662 348.464 86.4032C347.52 87.6239 347.048 89.2922 347.048 91.4081V102.053C347.048 102.541 346.942 102.883 346.73 103.078C346.535 103.257 346.193 103.347 345.705 103.347H340.676C340.187 103.347 339.838 103.257 339.626 103.078C339.431 102.883 339.333 102.541 339.333 102.053V81.5936C339.333 81.203 339.414 80.9019 339.577 80.6903C339.919 80.2346 340.326 79.7707 340.798 79.2987C341.286 78.8267 341.88 78.3222 342.58 77.785C342.71 77.6874 342.84 77.6223 342.971 77.5897C343.101 77.5572 343.215 77.5409 343.312 77.5409C343.54 77.5409 343.768 77.6223 343.996 77.785C345.347 78.843 346.291 79.7463 346.828 80.495C346.975 80.6903 347.048 80.9182 347.048 81.1786V82.9852Z" fill="#411D00"/>
<path d="M365.529 103.957C363.137 103.957 361.232 103.29 359.816 101.955C358.417 100.604 357.717 98.7486 357.717 96.3886C357.717 95.1679 357.936 94.0367 358.376 92.995C358.832 91.9371 359.613 91.0093 360.72 90.2118C361.843 89.398 363.405 88.747 365.407 88.2587C367.425 87.7704 369.997 87.4856 373.122 87.4042C373.122 85.9231 372.748 84.857 371.999 84.2059C371.267 83.5549 370.16 83.2294 368.679 83.2294C367.344 83.2294 366.254 83.4572 365.407 83.913C364.561 84.3687 364.032 84.678 363.82 84.8407C363.592 85.036 363.316 85.1093 362.99 85.0604C362.551 84.9953 362.079 84.8814 361.574 84.7186C361.086 84.5559 360.557 84.3687 359.987 84.1571C359.906 84.1246 359.816 84.0757 359.719 84.0106C359.621 83.9293 359.564 83.8153 359.548 83.6688C359.548 83.5875 359.556 83.4898 359.572 83.3759C359.588 83.2457 359.629 83.0178 359.694 82.6923C359.759 82.3668 359.857 81.968 359.987 81.496C360.117 81.0077 360.24 80.6334 360.353 80.3729C360.5 80.0962 360.744 79.8358 361.086 79.5917C361.363 79.3638 362.201 78.9976 363.601 78.4931C365 77.9885 367.027 77.7362 369.68 77.7362C376.988 77.7362 380.642 81.2925 380.642 88.4052V102.224C380.642 102.533 380.552 102.801 380.373 103.029C380.21 103.241 379.925 103.347 379.518 103.347H375.856C375.596 103.347 375.36 103.314 375.148 103.249C374.953 103.168 374.766 103.021 374.587 102.809L373.073 100.856H372.902C372.154 101.947 371.144 102.736 369.875 103.225C368.622 103.713 367.173 103.957 365.529 103.957ZM368.215 98.2929C369.712 98.2929 370.843 97.9104 371.608 97.1454C372.373 96.3804 372.862 95.591 373.073 94.7772V92.0673C370.811 92.0673 369.11 92.2463 367.971 92.6044C366.848 92.9462 366.099 93.4019 365.725 93.9716C365.35 94.525 365.163 95.1272 365.163 95.7782C365.163 96.7222 365.456 97.3814 366.042 97.7558C366.628 98.1138 367.352 98.2929 368.215 98.2929Z" fill="#411D00"/>
<path d="M409.768 103.957C403.973 103.957 401.076 100.449 401.076 93.4345L401.052 81.0321C401.052 80.6415 401.133 80.3404 401.296 80.1288C401.979 79.2336 402.98 78.2652 404.299 77.2235C404.527 77.0608 404.73 76.9794 404.909 76.9794C405.121 76.9794 405.324 77.0608 405.519 77.2235C406.219 77.7606 406.805 78.2652 407.277 78.7372C407.766 79.2092 408.181 79.6731 408.522 80.1288C408.685 80.3404 408.767 80.6415 408.767 81.0321V92.7509C408.767 96.2828 410.166 98.0487 412.966 98.0487C414.349 98.0487 415.456 97.5686 416.286 96.6083C417.116 95.6317 417.531 94.3134 417.531 92.6532V81.0321C417.531 80.6415 417.613 80.3404 417.775 80.1288C418.459 79.2336 419.46 78.2652 420.778 77.2235C421.006 77.0608 421.21 76.9794 421.389 76.9794C421.6 76.9794 421.804 77.0608 421.999 77.2235C422.699 77.7606 423.285 78.2652 423.757 78.7372C424.245 79.2092 424.66 79.6731 425.002 80.1288C425.165 80.3404 425.246 80.6415 425.246 81.0321V102.224C425.246 102.533 425.14 102.801 424.929 103.029C424.717 103.241 424.449 103.347 424.123 103.347H420.461C420.2 103.347 419.964 103.314 419.753 103.249C419.558 103.168 419.37 103.021 419.191 102.809L417.678 100.856H417.507C417.246 101.231 416.839 101.662 416.286 102.15C415.749 102.639 414.96 103.062 413.918 103.42C412.893 103.778 411.509 103.957 409.768 103.957Z" fill="#411D00"/>
<path d="M454.226 80.91C454.828 80.1776 455.755 79.4696 457.009 78.786C458.278 78.0862 460.06 77.7362 462.355 77.7362C465.611 77.7362 467.963 78.5744 469.411 80.2509C470.86 81.9273 471.584 84.442 471.584 87.7948V102.053C471.584 102.541 471.478 102.883 471.267 103.078C471.071 103.257 470.729 103.347 470.241 103.347H465.212C464.724 103.347 464.374 103.257 464.162 103.078C463.967 102.883 463.869 102.541 463.869 102.053V89.0643C463.869 87.2414 463.535 85.9393 462.868 85.1581C462.201 84.3606 461.2 83.9618 459.865 83.9618C458.677 83.9618 457.733 84.2304 457.033 84.7675C456.35 85.2883 455.861 85.9963 455.568 86.8915V102.053C455.568 102.541 455.463 102.883 455.251 103.078C455.056 103.257 454.714 103.347 454.226 103.347H449.196C448.708 103.347 448.358 103.257 448.146 103.078C447.951 102.883 447.853 102.541 447.853 102.053V89.0643C447.853 87.2903 447.487 85.9963 446.755 85.1825C446.022 84.3687 445.062 83.9618 443.874 83.9618C442.751 83.9618 441.848 84.2385 441.164 84.7919C440.48 85.3453 439.951 86.0451 439.577 86.8915V102.053C439.577 102.541 439.471 102.883 439.26 103.078C439.064 103.257 438.723 103.347 438.234 103.347H433.205C432.717 103.347 432.367 103.257 432.155 103.078C431.96 102.883 431.862 102.541 431.862 102.053V81.5936C431.862 81.203 431.944 80.9019 432.106 80.6903C432.448 80.2346 432.855 79.7707 433.327 79.2987C433.815 78.8267 434.409 78.3222 435.109 77.785C435.321 77.6223 435.524 77.5409 435.72 77.5409C435.899 77.5409 436.102 77.6223 436.33 77.785C437.014 78.3222 437.6 78.8349 438.088 79.3231C438.576 79.8114 439.007 80.316 439.382 80.8368H439.504C440.057 80.1369 440.92 79.4452 442.092 78.7616C443.264 78.078 444.94 77.7362 447.121 77.7362C449.204 77.7362 450.751 78.0536 451.76 78.6884C452.769 79.3069 453.591 80.0474 454.226 80.91Z" fill="#411D00"/>
<path d="M500.075 102.053C500.075 102.541 499.977 102.883 499.782 103.078C499.603 103.257 499.278 103.347 498.806 103.347H493.898C493.443 103.347 493.117 103.257 492.922 103.078C492.727 102.883 492.629 102.541 492.629 102.053V71.12C492.629 70.1597 492.816 69.4599 493.19 69.0204C493.565 68.5647 494.224 68.3368 495.168 68.3368H497.438C498.268 68.3368 499.05 68.4507 499.782 68.6786C500.531 68.8902 501.32 69.3785 502.15 70.1434C502.997 70.9084 503.973 72.0966 505.08 73.7079C506.203 75.303 507.554 77.4839 509.133 80.2509C510.646 82.8876 511.859 84.9953 512.77 86.5741C513.698 88.1529 514.414 89.3573 514.919 90.1874C515.423 91.0175 515.798 91.6115 516.042 91.9696C516.302 92.3277 516.514 92.6207 516.677 92.8485V72.2431C516.677 71.7711 516.75 71.413 516.896 71.1688C517.596 70.0946 518.565 68.9634 519.802 67.7753C520.046 67.58 520.249 67.4823 520.412 67.4823C520.591 67.4823 520.786 67.58 520.998 67.7753C521.665 68.3938 522.227 68.9878 522.683 69.5575C523.155 70.1109 523.561 70.648 523.903 71.1688C524.05 71.4293 524.123 71.7873 524.123 72.2431V101.32C524.123 102.053 523.985 102.573 523.708 102.883C523.431 103.192 522.927 103.347 522.194 103.347H519.851C519.151 103.347 518.435 103.233 517.702 103.005C516.97 102.761 516.14 102.224 515.212 101.393C514.284 100.547 513.185 99.2369 511.916 97.4628C510.646 95.6887 509.116 93.2636 507.326 90.1874C505.812 87.567 504.6 85.4836 503.688 83.9374C502.793 82.3912 502.11 81.2274 501.638 80.4462C501.166 79.6487 500.824 79.0953 500.612 78.786C500.401 78.4605 500.222 78.2164 500.075 78.0536V102.053Z" fill="#411D00"/>
<path d="M542.58 103.957C538.478 103.957 535.231 102.866 532.839 100.685C530.446 98.5045 529.25 95.2574 529.25 90.9442C529.25 86.5171 530.487 83.2131 532.961 81.0321C535.451 78.8349 538.771 77.7362 542.922 77.7362C546.926 77.7362 550.132 78.8186 552.541 80.9833C554.95 83.1317 556.154 86.3056 556.154 90.5048C556.154 94.883 554.95 98.2196 552.541 100.515C550.132 102.809 546.812 103.957 542.58 103.957ZM542.824 98.0487C544.615 98.0487 545.965 97.4953 546.877 96.3886C547.788 95.2655 548.244 93.3531 548.244 90.6513C548.244 88.0796 547.78 86.273 546.852 85.2313C545.941 84.1734 544.582 83.6444 542.775 83.6444C541.034 83.6444 539.658 84.2141 538.649 85.3534C537.657 86.4765 537.16 88.3075 537.16 90.8466C537.16 93.4996 537.632 95.3632 538.576 96.4374C539.536 97.5116 540.952 98.0487 542.824 98.0487Z" fill="#411D00"/>
<path d="M566.677 101.076C565.782 99.66 564.894 98.0324 564.016 96.1933C563.153 94.3378 562.364 92.466 561.647 90.578C560.948 88.6737 560.386 86.9403 559.963 85.3778C559.54 83.799 559.328 82.5865 559.328 81.7401C559.328 81.4146 559.418 81.1461 559.597 80.9345C560.345 80.0067 561.411 79.0383 562.795 78.0292C563.039 77.8664 563.259 77.785 563.454 77.785C563.666 77.785 563.885 77.8664 564.113 78.0292C564.862 78.5663 565.489 79.0709 565.993 79.5429C566.514 80.0149 566.953 80.4787 567.311 80.9345C567.49 81.1461 567.58 81.4472 567.58 81.8378V81.7157C567.58 82.7737 567.767 84.1653 568.142 85.8905C568.532 87.5995 569.061 89.4061 569.728 91.3104C570.396 93.2147 571.169 94.9644 572.048 96.5595H572.17C572.902 95.355 573.553 94.053 574.123 92.6532C574.693 91.2535 575.173 89.8537 575.563 88.454C575.954 87.0543 576.247 85.7684 576.442 84.5966C576.654 83.4247 576.76 82.4725 576.76 81.7401V81.8378C576.76 81.4472 576.841 81.1461 577.004 80.9345C577.378 80.4787 577.818 80.0149 578.322 79.5429C578.827 79.0709 579.437 78.5663 580.153 78.0292C580.381 77.8664 580.593 77.785 580.788 77.785C581.016 77.785 581.227 77.8664 581.423 78.0292C582.155 78.5663 582.774 79.0709 583.278 79.5429C583.783 80.0149 584.214 80.4787 584.572 80.9345C584.735 81.1461 584.816 81.4309 584.816 81.789C584.8 82.6679 584.572 83.9048 584.133 85.4999C583.693 87.0787 583.099 88.8202 582.351 90.7245C581.618 92.6125 580.796 94.4761 579.885 96.3153C578.973 98.1382 578.046 99.7252 577.102 101.076C576.532 101.906 576.019 102.492 575.563 102.834C575.108 103.176 574.318 103.347 573.195 103.347H570.607C569.435 103.347 568.622 103.184 568.166 102.858C567.727 102.533 567.23 101.939 566.677 101.076ZM559.328 81.7157V81.7401C559.328 81.7727 559.328 81.8052 559.328 81.8378V81.7157ZM584.816 81.7401V81.8378V81.789C584.816 81.7727 584.816 81.7564 584.816 81.7401Z" fill="#411D00"/>
<path d="M601.32 103.957C597.219 103.957 593.972 102.866 591.579 100.685C589.186 98.5045 587.99 95.2574 587.99 90.9442C587.99 86.5171 589.227 83.2131 591.701 81.0321C594.191 78.8349 597.512 77.7362 601.662 77.7362C605.666 77.7362 608.872 78.8186 611.281 80.9833C613.69 83.1317 614.894 86.3056 614.894 90.5048C614.894 94.883 613.69 98.2196 611.281 100.515C608.872 102.809 605.552 103.957 601.32 103.957ZM601.564 98.0487C603.355 98.0487 604.706 97.4953 605.617 96.3886C606.529 95.2655 606.984 93.3531 606.984 90.6513C606.984 88.0796 606.52 86.273 605.593 85.2313C604.681 84.1734 603.322 83.6444 601.516 83.6444C599.774 83.6444 598.399 84.2141 597.39 85.3534C596.397 86.4765 595.9 88.3075 595.9 90.8466C595.9 93.4996 596.372 95.3632 597.316 96.4374C598.277 97.5116 599.693 98.0487 601.564 98.0487Z" fill="#411D00"/>
<path d="M653.42 70.2655C654.315 71.5188 655.227 73.1382 656.154 75.1239C657.098 77.0933 658.01 79.258 658.889 81.6181C659.768 83.9781 660.557 86.3951 661.257 88.869C661.973 91.3267 662.559 93.6949 663.015 95.9735C663.47 98.2522 663.731 100.279 663.796 102.053C663.812 102.915 663.421 103.347 662.624 103.347H656.716C655.951 103.347 655.552 102.964 655.519 102.199C655.454 100.376 655.161 98.1627 654.641 95.5585H641.31C640.855 98.0975 640.594 100.311 640.529 102.199C640.497 102.964 640.082 103.347 639.284 103.347H633.498C633.205 103.347 632.961 103.265 632.766 103.102C632.57 102.923 632.481 102.622 632.497 102.199C632.578 100.392 632.839 98.3417 633.278 96.0468C633.734 93.7356 634.32 91.343 635.036 88.869C635.752 86.3951 636.55 83.9781 637.429 81.6181C638.308 79.2418 639.219 77.0689 640.163 75.0995C641.107 73.1301 642.027 71.5188 642.922 70.2655C643.394 69.5982 643.89 69.1099 644.411 68.8007C644.948 68.4914 645.607 68.3368 646.389 68.3368H649.904C650.702 68.3368 651.369 68.4914 651.906 68.8007C652.443 69.1099 652.948 69.5982 653.42 70.2655ZM647.902 76.0517C646.828 77.7606 645.843 79.8033 644.948 82.1796C644.053 84.5559 643.28 86.9973 642.629 89.5038H653.225C652.541 86.9973 651.752 84.5559 650.856 82.1796C649.961 79.8033 649.025 77.7606 648.049 76.0517H647.902Z" fill="#411D00"/>
<path d="M690.798 80.91C691.4 80.1776 692.328 79.4696 693.581 78.786C694.851 78.0862 696.633 77.7362 698.928 77.7362C702.183 77.7362 704.535 78.5744 705.983 80.2509C707.432 81.9273 708.156 84.442 708.156 87.7948V102.053C708.156 102.541 708.05 102.883 707.839 103.078C707.643 103.257 707.302 103.347 706.813 103.347H701.784C701.296 103.347 700.946 103.257 700.734 103.078C700.539 102.883 700.441 102.541 700.441 102.053V89.0643C700.441 87.2414 700.108 85.9393 699.44 85.1581C698.773 84.3606 697.772 83.9618 696.437 83.9618C695.249 83.9618 694.305 84.2304 693.605 84.7675C692.922 85.2883 692.434 85.9963 692.141 86.8915V102.053C692.141 102.541 692.035 102.883 691.823 103.078C691.628 103.257 691.286 103.347 690.798 103.347H685.768C685.28 103.347 684.93 103.257 684.719 103.078C684.523 102.883 684.426 102.541 684.426 102.053V89.0643C684.426 87.2903 684.06 85.9963 683.327 85.1825C682.595 84.3687 681.634 83.9618 680.446 83.9618C679.323 83.9618 678.42 84.2385 677.736 84.7919C677.053 85.3453 676.524 86.0451 676.149 86.8915V102.053C676.149 102.541 676.044 102.883 675.832 103.078C675.637 103.257 675.295 103.347 674.807 103.347H669.777C669.289 103.347 668.939 103.257 668.727 103.078C668.532 102.883 668.435 102.541 668.435 102.053V81.5936C668.435 81.203 668.516 80.9019 668.679 80.6903C669.02 80.2346 669.427 79.7707 669.899 79.2987C670.388 78.8267 670.982 78.3222 671.682 77.785C671.893 77.6223 672.097 77.5409 672.292 77.5409C672.471 77.5409 672.674 77.6223 672.902 77.785C673.586 78.3222 674.172 78.8349 674.66 79.3231C675.148 79.8114 675.58 80.316 675.954 80.8368H676.076C676.629 80.1369 677.492 79.4452 678.664 78.7616C679.836 78.078 681.512 77.7362 683.693 77.7362C685.777 77.7362 687.323 78.0536 688.332 78.6884C689.341 79.3069 690.163 80.0474 690.798 80.91Z" fill="#411D00"/>
<path d="M713.649 70.1434C713.649 69.9319 713.714 69.7447 713.845 69.5819C713.975 69.4192 714.146 69.2076 714.357 68.9472C714.813 68.4263 715.342 67.8811 715.944 67.3114C716.546 66.7255 717.157 66.164 717.775 65.6268C718.166 65.3176 718.459 65.163 718.654 65.163C718.85 65.163 719.151 65.3176 719.558 65.6268C720.876 66.7662 721.999 67.8729 722.927 68.9472C723.138 69.1913 723.309 69.4029 723.439 69.5819C723.586 69.7447 723.659 69.9319 723.659 70.1434C723.659 70.355 723.586 70.5422 723.439 70.705C723.309 70.8677 723.13 71.0875 722.902 71.3642C722.463 71.8687 721.95 72.414 721.364 72.9999C720.778 73.5696 720.176 74.1148 719.558 74.6356C719.33 74.8309 719.151 74.9612 719.02 75.0263C718.89 75.0751 718.768 75.0995 718.654 75.0995C718.54 75.0995 718.418 75.0751 718.288 75.0263C718.174 74.9612 717.987 74.8309 717.727 74.6356C717.075 74.1148 716.465 73.5696 715.895 72.9999C715.326 72.414 714.813 71.8524 714.357 71.3153C714.146 71.0549 713.975 70.8515 713.845 70.705C713.714 70.5422 713.649 70.355 713.649 70.1434ZM722.487 102.053C722.487 102.541 722.381 102.883 722.17 103.078C721.975 103.257 721.633 103.347 721.144 103.347H716.115C715.627 103.347 715.277 103.257 715.065 103.078C714.87 102.883 714.772 102.541 714.772 102.053V79.6405C714.772 79.1522 714.87 78.8186 715.065 78.6395C715.277 78.4442 715.627 78.3466 716.115 78.3466H721.144C721.633 78.3466 721.975 78.4442 722.17 78.6395C722.381 78.8186 722.487 79.1522 722.487 79.6405V102.053Z" fill="#411D00"/>
<path d="M753.298 80.6903V100.49C753.298 105.243 751.939 108.864 749.221 111.354C746.519 113.845 742.808 115.09 738.088 115.09C736.135 115.09 734.588 114.943 733.449 114.65C732.31 114.374 731.447 114.105 730.861 113.845C730.487 113.666 730.243 113.478 730.129 113.283C729.966 113.023 729.779 112.64 729.567 112.136C729.372 111.631 729.185 111.078 729.006 110.475C728.957 110.248 728.949 110.077 728.981 109.963C729.046 109.8 729.169 109.629 729.348 109.45C729.641 109.157 730.056 108.815 730.593 108.425C731.146 108.034 731.569 107.782 731.862 107.668C732.171 107.554 732.456 107.57 732.717 107.717C733.14 107.945 733.742 108.197 734.523 108.474C735.321 108.766 736.436 108.913 737.868 108.913C740.147 108.913 742.002 108.327 743.435 107.155C744.867 105.983 745.583 104.177 745.583 101.735V100.856H745.485C745.127 101.312 744.663 101.776 744.094 102.248C743.524 102.72 742.783 103.119 741.872 103.444C740.977 103.77 739.821 103.933 738.405 103.933C735.948 103.933 733.929 103.404 732.351 102.346C730.788 101.271 729.632 99.7984 728.884 97.9267C728.151 96.0549 727.785 93.9227 727.785 91.5302C727.785 88.9097 728.216 86.5578 729.079 84.4745C729.942 82.3912 731.39 80.7473 733.425 79.5429C735.459 78.3222 738.242 77.7118 741.774 77.7118C743.89 77.7118 745.664 77.8664 747.097 78.1757C748.545 78.4849 749.758 78.8674 750.734 79.3231C751.711 79.7789 752.565 80.2346 753.298 80.6903ZM741.506 83.62C739.618 83.62 738.177 84.2548 737.185 85.5243C736.192 86.7938 735.695 88.7632 735.695 91.4325C735.695 95.6155 737.421 97.7069 740.871 97.7069C742.222 97.7069 743.255 97.4302 743.972 96.8768C744.688 96.3235 745.225 95.6236 745.583 94.7772V84.6942C745.225 84.4338 744.72 84.1897 744.069 83.9618C743.418 83.7339 742.564 83.62 741.506 83.62Z" fill="#411D00"/>
<path d="M771.877 103.957C767.775 103.957 764.528 102.866 762.136 100.685C759.743 98.5045 758.547 95.2574 758.547 90.9442C758.547 86.5171 759.784 83.2131 762.258 81.0321C764.748 78.8349 768.068 77.7362 772.219 77.7362C776.223 77.7362 779.429 78.8186 781.838 80.9833C784.247 83.1317 785.451 86.3056 785.451 90.5048C785.451 94.883 784.247 98.2196 781.838 100.515C779.429 102.809 776.109 103.957 771.877 103.957ZM772.121 98.0487C773.911 98.0487 775.262 97.4953 776.174 96.3886C777.085 95.2655 777.541 93.3531 777.541 90.6513C777.541 88.0796 777.077 86.273 776.149 85.2313C775.238 84.1734 773.879 83.6444 772.072 83.6444C770.331 83.6444 768.955 84.2141 767.946 85.3534C766.953 86.4765 766.457 88.3075 766.457 90.8466C766.457 93.4996 766.929 95.3632 767.873 96.4374C768.833 97.5116 770.249 98.0487 772.121 98.0487Z" fill="#411D00"/>
</svg>
