<svg width="204" height="200" viewBox="0 0 204 200" fill="none" xmlns="http://www.w3.org/2000/svg">
<path d="M58.937 0H144.294C176.811 0 203.231 25.9656 203.231 57.9233V141.812C203.231 157.174 197.022 171.907 185.969 182.77C174.916 193.633 159.925 199.735 144.294 199.735H58.937C26.4201 199.735 0 173.77 0 141.812V57.9233C0 42.5611 6.20942 27.8281 17.2623 16.9653C28.3151 6.10262 43.306 0 58.937 0ZM56.9047 19.9735C47.2027 19.9735 37.898 23.7614 31.0376 30.5038C24.1772 37.2461 20.3231 46.3908 20.3231 55.9259V143.81C20.3231 163.683 36.6832 179.762 56.9047 179.762H146.326C156.028 179.762 165.333 175.974 172.194 169.232C179.054 162.489 182.908 153.345 182.908 143.81V55.9259C182.908 36.0523 166.548 19.9735 146.326 19.9735H56.9047ZM154.964 34.9537C158.333 34.9537 161.563 36.2689 163.945 38.61C166.327 40.9511 167.666 44.1264 167.666 47.4372C167.666 50.748 166.327 53.9232 163.945 56.2643C161.563 58.6054 158.333 59.9206 154.964 59.9206C151.595 59.9206 148.364 58.6054 145.982 56.2643C143.6 53.9232 142.262 50.748 142.262 47.4372C142.262 44.1264 143.6 40.9511 145.982 38.61C148.364 36.2689 151.595 34.9537 154.964 34.9537ZM101.616 49.9339C115.091 49.9339 128.014 55.1947 137.542 64.5592C147.07 73.9236 152.423 86.6244 152.423 99.8677C152.423 113.111 147.07 125.812 137.542 135.176C128.014 144.541 115.091 149.802 101.616 149.802C88.1405 149.802 75.2174 144.541 65.6891 135.176C56.1607 125.812 50.8078 113.111 50.8078 99.8677C50.8078 86.6244 56.1607 73.9236 65.6891 64.5592C75.2174 55.1947 88.1405 49.9339 101.616 49.9339ZM101.616 69.9074C93.5306 69.9074 85.7767 73.0639 80.0597 78.6826C74.3427 84.3012 71.1309 91.9218 71.1309 99.8677C71.1309 107.814 74.3427 115.434 80.0597 121.053C85.7767 126.672 93.5306 129.828 101.616 129.828C109.701 129.828 117.455 126.672 123.172 121.053C128.889 115.434 132.1 107.814 132.1 99.8677C132.1 91.9218 128.889 84.3012 123.172 78.6826C117.455 73.0639 109.701 69.9074 101.616 69.9074Z" fill="white"/>
</svg>
