<svg width="1920" height="960" viewBox="0 0 1920 960" fill="none" xmlns="http://www.w3.org/2000/svg">
<g clip-path="url(#clip0_36_6)">
<rect width="1920" height="960" fill="#FFEAD9"/>
<path d="M1693.57 155.502C1687.01 159.685 1682.15 166.437 1680.06 174.27C1677.97 182.104 1678.82 190.378 1682.43 197.273L1689.22 210.272C1692.82 217.167 1698.89 222.117 1706.07 224.034C1713.26 225.952 1720.98 224.678 1727.54 220.495C1734.1 216.311 1738.96 209.56 1741.05 201.727C1743.14 193.893 1742.29 185.618 1738.68 178.724L1731.89 165.725C1728.29 158.83 1722.23 153.88 1715.04 151.962C1707.85 150.045 1700.13 151.318 1693.57 155.502ZM1755.4 116.067C1748.84 120.25 1743.98 127.001 1741.89 134.835C1739.8 142.669 1740.65 150.943 1744.26 157.838L1751.05 170.837C1754.65 177.731 1760.71 182.682 1767.9 184.599C1775.09 186.516 1782.81 185.243 1789.37 181.06C1795.93 176.876 1800.78 170.125 1802.87 162.291C1804.96 154.458 1804.11 146.183 1800.51 139.288L1793.72 126.29C1790.11 119.395 1784.05 114.444 1776.87 112.527C1769.68 110.61 1761.96 111.883 1755.4 116.067ZM1690.44 244.156C1683.88 248.34 1679.02 255.091 1676.93 262.924C1674.84 270.758 1675.69 279.032 1679.3 285.927L1682.69 292.427C1686.3 299.321 1692.36 304.272 1699.54 306.189C1706.73 308.106 1714.45 306.833 1721.01 302.65C1727.57 298.466 1732.43 291.715 1734.52 283.881C1736.61 276.048 1735.76 267.773 1732.16 260.878L1728.76 254.379C1725.16 247.484 1719.09 242.534 1711.91 240.616C1704.72 238.699 1697 239.972 1690.44 244.156ZM1826.46 157.399C1819.9 161.582 1815.04 168.333 1812.95 176.167C1810.86 184.001 1811.71 192.275 1815.32 199.17L1818.71 205.669C1822.32 212.564 1828.38 217.515 1835.57 219.432C1842.75 221.349 1850.47 220.076 1857.03 215.892C1863.59 211.709 1868.45 204.958 1870.54 197.124C1872.63 189.29 1871.78 181.016 1868.18 174.121L1864.78 167.622C1861.18 160.727 1855.12 155.776 1847.93 153.859C1840.74 151.942 1833.02 153.215 1826.46 157.399ZM1803.46 220.235C1798.17 218.206 1792.47 217.486 1786.78 218.126C1781.09 218.766 1775.55 220.75 1770.56 223.936C1765.56 227.123 1761.23 231.432 1757.89 236.554C1754.54 241.677 1752.26 247.487 1751.2 253.566L1739.2 322.626C1734.22 351.231 1762.15 371.736 1785.64 356.751C1789 354.606 1791.89 351.673 1794.05 348.179L1797.28 343C1803.27 333.379 1811.21 325.301 1820.45 319.406C1829.69 313.511 1839.99 309.961 1850.53 309.038L1856.2 308.538C1860.02 308.216 1863.77 306.921 1867.13 304.776C1890.62 289.79 1888.51 252.816 1863.61 243.275L1803.46 220.235Z" fill="#FFE3CC"/>
<path d="M1856.92 14.4478C1853.57 13.5516 1849.9 13.9851 1846.7 15.6531C1843.5 17.3211 1841.04 20.0868 1839.86 23.3419L1837.63 29.4785C1836.45 32.7336 1836.65 36.2114 1838.18 39.1467C1839.71 42.0821 1842.44 44.2347 1845.79 45.1309C1849.13 46.0271 1852.81 45.5935 1856.01 43.9255C1859.21 42.2575 1861.67 39.4918 1862.85 36.2367L1865.08 30.1001C1866.26 26.845 1866.06 23.3673 1864.53 20.4319C1863 17.4965 1860.26 15.3439 1856.92 14.4478ZM1888.45 22.8955C1885.1 21.9993 1881.43 22.4329 1878.23 24.1009C1875.03 25.7689 1872.56 28.5346 1871.38 31.7897L1869.16 37.9263C1867.98 41.1814 1868.17 44.6591 1869.7 47.5945C1871.23 50.5299 1873.97 52.6824 1877.32 53.5786C1880.66 54.4748 1884.34 54.0412 1887.54 52.3733C1890.74 50.7053 1893.2 47.9396 1894.38 44.6845L1896.61 38.5479C1897.79 35.2928 1897.59 31.815 1896.06 28.8796C1894.53 25.9443 1891.79 23.7917 1888.45 22.8955ZM1826.87 40.0622C1823.53 39.166 1819.85 39.5996 1816.65 41.2676C1813.45 42.9356 1810.99 45.7013 1809.81 48.9564L1808.7 52.0247C1807.52 55.2798 1807.71 58.7575 1809.24 61.6929C1810.77 64.6283 1813.51 66.7808 1816.85 67.677C1820.2 68.5732 1823.88 68.1396 1827.08 66.4717C1830.28 64.8037 1832.74 62.038 1833.92 58.7829L1835.03 55.7146C1836.21 52.4595 1836.02 48.9818 1834.49 46.0464C1832.96 43.111 1830.22 40.9584 1826.87 40.0622ZM1896.23 58.6473C1892.89 57.7511 1889.21 58.1847 1886.01 59.8527C1882.81 61.5206 1880.35 64.2864 1879.17 67.5414L1878.06 70.6098C1876.88 73.8648 1877.07 77.3426 1878.6 80.278C1880.13 83.2133 1882.87 85.3659 1886.22 86.2621C1889.56 87.1583 1893.24 86.7247 1896.44 85.0567C1899.64 83.3888 1902.1 80.623 1903.28 77.368L1904.39 74.2996C1905.57 71.0446 1905.38 67.5668 1903.85 64.6314C1902.32 61.696 1899.58 59.5435 1896.23 58.6473ZM1868.69 69.9785C1867.76 67.6308 1866.29 65.5443 1864.37 63.8689C1862.45 62.1935 1860.13 60.9707 1857.59 60.2881C1855.04 59.6056 1852.32 59.4803 1849.64 59.9212C1846.95 60.3621 1844.36 61.3584 1842.04 62.8384L1815.76 79.6521C1804.87 86.6118 1806.53 101.944 1818.51 105.154C1820.23 105.613 1822.06 105.68 1823.86 105.34L1826.53 104.844C1831.49 103.92 1836.52 104.096 1841.24 105.359C1845.95 106.622 1850.21 108.936 1853.68 112.119L1855.55 113.832C1856.8 114.989 1858.35 115.829 1860.07 116.288C1872.05 119.498 1883.55 107.694 1879.2 96.6506L1868.69 69.9785Z" fill="#FFE3CC"/>
<path d="M1409.78 223.455C1402.03 218.511 1392.91 217.006 1384.41 219.272C1375.92 221.537 1368.76 227.388 1364.5 235.537L1356.47 250.899C1352.21 259.047 1351.21 268.826 1353.68 278.084C1356.15 287.342 1361.89 295.321 1369.64 300.265C1377.39 305.209 1386.52 306.714 1395.01 304.448C1403.5 302.182 1410.67 296.331 1414.93 288.183L1422.95 272.821C1427.21 264.672 1428.22 254.894 1425.75 245.636C1423.28 236.378 1417.53 228.399 1409.78 223.455ZM1482.85 270.06C1475.1 265.116 1465.97 263.611 1457.48 265.877C1448.99 268.143 1441.83 273.993 1437.57 282.142L1429.54 297.504C1425.28 305.652 1424.28 315.431 1426.75 324.689C1429.22 333.947 1434.96 341.926 1442.71 346.87C1450.46 351.814 1459.59 353.319 1468.08 351.053C1476.57 348.787 1483.74 342.937 1487.99 334.788L1496.02 319.426C1500.28 311.278 1501.29 301.499 1498.82 292.241C1496.35 282.983 1490.6 275.004 1482.85 270.06ZM1325.8 272.302C1318.05 267.357 1308.92 265.853 1300.43 268.119C1291.94 270.384 1284.77 276.235 1280.52 284.384L1276.5 292.064C1272.24 300.213 1271.24 309.992 1273.71 319.25C1276.18 328.508 1281.92 336.486 1289.67 341.431C1297.42 346.375 1306.55 347.879 1315.04 345.614C1323.53 343.348 1330.7 337.497 1334.96 329.349L1338.97 321.668C1343.23 313.519 1344.23 303.74 1341.76 294.482C1339.29 285.224 1333.55 277.246 1325.8 272.302ZM1486.55 374.833C1478.8 369.889 1469.67 368.384 1461.18 370.65C1452.69 372.916 1445.53 378.766 1441.27 386.915L1437.25 394.596C1432.99 402.744 1431.99 412.523 1434.46 421.781C1436.93 431.039 1442.67 439.018 1450.42 443.962C1458.18 448.906 1467.3 450.411 1475.79 448.145C1484.29 445.879 1491.45 440.029 1495.71 431.88L1499.72 424.199C1503.98 416.051 1504.99 406.272 1502.52 397.014C1500.05 387.756 1494.3 379.777 1486.55 374.833ZM1414.74 385.954C1413.5 378.769 1410.8 371.904 1406.84 365.849C1402.89 359.795 1397.78 354.703 1391.87 350.937C1385.97 347.172 1379.42 344.827 1372.7 344.07C1365.97 343.314 1359.24 344.165 1352.99 346.563L1281.91 373.801C1252.47 385.068 1249.97 428.764 1277.74 446.474C1281.71 449.01 1286.14 450.54 1290.65 450.921L1297.36 451.512C1309.81 452.602 1321.98 456.798 1332.91 463.764C1343.83 470.731 1353.2 480.279 1360.29 491.648L1364.1 497.769C1366.66 501.899 1370.07 505.365 1374.04 507.9C1401.81 525.61 1434.82 501.376 1428.94 467.58L1414.74 385.954Z" fill="#FFE3CC"/>
<path d="M292.209 169.169C289.868 159.515 291.094 149.23 295.617 140.574C300.14 131.919 307.59 125.604 316.329 123.017L332.802 118.14C341.541 115.554 350.851 116.908 358.686 121.905C366.52 126.902 372.237 135.133 374.578 144.786C376.92 154.44 375.694 164.726 371.171 173.381C366.647 182.036 359.197 188.351 350.459 190.938L333.985 195.815C325.247 198.401 315.936 197.047 308.102 192.05C300.267 187.053 294.551 178.822 292.209 169.169ZM314.28 260.166C311.939 250.512 313.164 240.226 317.688 231.571C322.211 222.916 329.661 216.601 338.399 214.014L354.873 209.137C363.611 206.551 372.922 207.905 380.756 212.902C388.591 217.899 394.308 226.13 396.649 235.783C398.991 245.437 397.765 255.722 393.242 264.378C388.718 273.033 381.268 279.348 372.53 281.935L356.056 286.811C347.318 289.398 338.007 288.044 330.173 283.047C322.338 278.05 316.621 269.819 314.28 260.166ZM361.336 90.1881C358.994 80.5345 360.22 70.2488 364.743 61.5937C369.267 52.9385 376.717 46.623 385.455 44.0363L393.692 41.598C402.43 39.0114 411.741 40.3655 419.575 45.3626C427.41 50.3596 433.127 58.5902 435.468 68.2438C437.81 77.8973 436.584 88.1831 432.061 96.8382C427.537 105.493 420.087 111.809 411.349 114.396L403.112 116.834C394.374 119.42 385.063 118.066 377.229 113.069C369.394 108.072 363.677 99.8416 361.336 90.1881ZM409.892 290.381C407.55 280.728 408.776 270.442 413.299 261.787C417.822 253.132 425.273 246.816 434.011 244.23L442.248 241.791C450.986 239.205 460.297 240.559 468.131 245.556C475.966 250.553 481.682 258.783 484.024 268.437C486.365 278.091 485.139 288.376 480.616 297.031C476.093 305.687 468.643 312.002 459.904 314.589L451.668 317.027C442.929 319.614 433.619 318.26 425.784 313.263C417.95 308.266 412.233 300.035 409.892 290.381ZM440.722 215.188C434.45 212.036 428.889 207.389 424.435 201.581C419.982 195.774 416.748 188.949 414.964 181.596C413.181 174.244 412.893 166.547 414.121 159.058C415.349 151.568 418.063 144.472 422.067 138.278L467.558 67.9125C486.389 38.7556 527.421 46.9738 535.807 81.5526C537.008 86.5028 537.153 91.6875 536.212 96.6867L534.835 104.116C532.274 117.912 532.659 132.177 535.958 145.78C539.257 159.384 545.381 171.95 553.843 182.483L558.397 188.157C561.475 191.966 563.696 196.536 564.897 201.487C573.284 236.065 541.468 265.848 511.969 251.017L440.722 215.188Z" fill="#FFE3CC"/>
<path d="M223.397 271.625C230.677 273.78 236.883 279.041 240.651 286.251C244.42 293.461 245.441 302.03 243.49 310.072L239.813 325.234C237.862 333.276 233.1 340.132 226.573 344.295C220.047 348.458 212.29 349.586 205.011 347.431C197.731 345.276 191.525 340.015 187.756 332.805C183.988 325.594 182.967 317.026 184.918 308.984L188.595 293.822C190.546 285.78 195.308 278.924 201.835 274.761C208.361 270.598 216.118 269.47 223.397 271.625ZM154.778 251.312C162.058 253.467 168.264 258.729 172.032 265.939C175.801 273.149 176.822 281.718 174.871 289.76L171.194 304.921C169.243 312.963 164.481 319.82 157.954 323.983C151.428 328.146 143.671 329.274 136.392 327.119C129.112 324.964 122.906 319.703 119.138 312.492C115.369 305.282 114.348 296.713 116.299 288.671L119.976 273.51C121.927 265.468 126.689 258.611 133.216 254.449C139.742 250.286 147.499 249.158 154.778 251.312ZM246.182 359.619C253.462 361.773 259.668 367.035 263.436 374.245C267.205 381.455 268.226 390.024 266.275 398.066L264.437 405.647C262.486 413.689 257.724 420.545 251.197 424.708C244.67 428.871 236.914 429.999 229.634 427.844C222.355 425.69 216.148 420.428 212.38 413.218C208.612 406.008 207.591 397.439 209.541 389.397L211.38 381.816C213.331 373.774 218.093 366.918 224.62 362.755C231.146 358.592 238.903 357.464 246.182 359.619ZM95.2204 314.932C102.5 317.086 108.706 322.348 112.475 329.558C116.243 336.768 117.264 345.337 115.313 353.379L113.475 360.96C111.524 369.002 106.762 375.858 100.235 380.021C93.7084 384.184 85.9522 385.312 78.6726 383.157C71.3931 381.003 65.1865 375.741 61.4184 368.531C57.6502 361.321 56.6291 352.752 58.5796 344.71L60.4182 337.129C62.3688 329.087 67.1313 322.231 73.6579 318.068C80.1846 313.905 87.9408 312.777 95.2204 314.932ZM131.484 370.824C136.154 367.139 141.506 364.642 147.154 363.511C152.801 362.381 158.606 362.646 164.15 364.287C169.694 365.928 174.84 368.905 179.22 373.004C183.599 377.102 187.103 382.221 189.48 387.992L216.484 453.559C227.682 480.712 205.224 509.992 179.148 502.274C175.415 501.169 171.969 499.125 169.097 496.292L164.818 492.101C156.875 484.313 147.399 478.677 137.142 475.641C126.884 472.604 116.126 472.251 105.723 474.608L100.121 475.874C96.3511 476.741 92.4414 476.607 88.7086 475.502C62.6333 467.784 56.4362 430.021 78.4091 412.687L131.484 370.824Z" fill="#FFE3CC"/>
<path d="M195.347 60.929C198.573 65.7521 199.65 71.8769 198.342 77.9558C197.034 84.0348 193.447 89.57 188.372 93.3437L178.803 100.458C173.727 104.232 167.578 105.935 161.708 105.193C155.838 104.451 150.728 101.324 147.502 96.5013C144.277 91.6781 143.199 85.5533 144.507 79.4744C145.815 73.3954 149.402 67.8603 154.477 64.0865L164.046 56.972C169.122 53.1983 175.271 51.4951 181.141 52.2372C187.011 52.9792 192.121 56.1058 195.347 60.929ZM164.94 15.4644C168.166 20.2875 169.243 26.4123 167.935 32.4912C166.627 38.5702 163.041 44.1054 157.965 47.8791L148.396 54.9936C143.32 58.7673 137.171 60.4705 131.301 59.7285C125.431 58.9864 120.321 55.8599 117.096 51.0367C113.87 46.2135 112.792 40.0887 114.101 34.0098C115.409 27.9309 118.995 22.3957 124.071 18.6219L133.639 11.5074C138.715 7.7337 144.864 6.03053 150.734 6.77259C156.604 7.51466 161.714 10.6412 164.94 15.4644ZM165.747 123.78C168.972 128.603 170.05 134.728 168.742 140.807C167.434 146.886 163.847 152.421 158.772 156.195L153.987 159.752C148.912 163.526 142.762 165.229 136.892 164.487C131.022 163.745 125.912 160.618 122.687 155.795C119.461 150.972 118.384 144.847 119.692 138.768C121 132.689 124.586 127.154 129.662 123.38L134.446 119.823C139.522 116.049 145.671 114.346 151.541 115.088C157.411 115.83 162.521 118.957 165.747 123.78ZM98.8515 23.7579C102.077 28.5811 103.155 34.7058 101.847 40.7848C100.538 46.8637 96.9521 52.3989 91.8765 56.1727L87.092 59.7299C82.0164 63.5037 75.8672 65.2068 69.9972 64.4648C64.1273 63.7227 59.0173 60.5962 55.7916 55.773C52.5658 50.9498 51.4885 44.8251 52.7965 38.7461C54.1046 32.6672 57.6909 27.132 62.7665 23.3582L67.551 19.801C72.6266 16.0272 78.7758 14.3241 84.6458 15.0661C90.5158 15.8082 95.6257 18.9347 98.8515 23.7579ZM92.8572 74.3267C97.403 74.4427 101.768 75.5894 105.64 77.6845C109.512 79.7796 112.794 82.7711 115.251 86.4445C117.707 90.1178 119.278 94.3819 119.85 98.9305C120.421 103.479 119.98 108.2 118.557 112.753L102.394 164.484C95.7088 185.914 68.2031 192.151 56.6485 174.875C54.9943 172.402 53.9674 169.516 53.6631 166.448L53.1962 161.894C52.3329 153.436 49.5167 145.494 44.9712 138.697C40.4257 131.901 34.2759 126.437 27.0098 122.74L23.0981 120.747C20.459 119.414 18.2263 117.426 16.5722 114.952C5.0176 97.6759 19.8254 72.4528 41.2092 73.0001L92.8572 74.3267Z" fill="#FFE3CC"/>
<path d="M365.745 470.624C370.816 467.6 376.767 466.926 382.288 468.75C387.809 470.574 392.448 474.746 395.185 480.348L400.344 490.91C403.081 496.513 403.691 503.087 402.04 509.186C400.389 515.286 396.613 520.411 391.541 523.434C386.47 526.457 380.519 527.131 374.998 525.308C369.477 523.484 364.838 519.312 362.102 513.709L356.942 503.147C354.206 497.545 353.596 490.971 355.246 484.871C356.897 478.772 360.674 473.647 365.745 470.624ZM317.942 499.122C323.013 496.099 328.964 495.425 334.485 497.249C340.006 499.073 344.645 503.245 347.382 508.847L352.541 519.409C355.278 525.012 355.888 531.586 354.237 537.685C352.586 543.784 348.81 548.909 343.738 551.933C338.667 554.956 332.716 555.63 327.195 553.806C321.674 551.982 317.035 547.81 314.298 542.208L309.139 531.646C306.402 526.043 305.792 519.469 307.443 513.37C309.094 507.271 312.87 502.146 317.942 499.122ZM420.223 506.335C425.295 503.311 431.245 502.638 436.766 504.461C442.287 506.285 446.927 510.457 449.663 516.06L452.243 521.341C454.98 526.943 455.59 533.517 453.939 539.616C452.288 545.716 448.512 550.841 443.44 553.864C438.369 556.887 432.418 557.561 426.897 555.738C421.376 553.914 416.737 549.742 414 544.139L411.421 538.858C408.684 533.256 408.074 526.682 409.725 520.583C411.376 514.483 415.152 509.358 420.223 506.335ZM315.056 569.032C320.128 566.009 326.078 565.335 331.599 567.158C337.12 568.982 341.76 573.154 344.496 578.757L347.076 584.038C349.813 589.64 350.423 596.214 348.772 602.313C347.121 608.413 343.345 613.538 338.273 616.561C333.202 619.584 327.251 620.258 321.73 618.435C316.209 616.611 311.57 612.439 308.833 606.836L306.254 601.555C303.517 595.953 302.907 589.379 304.558 583.28C306.209 577.18 309.985 572.055 315.056 569.032ZM361.776 579.079C362.622 574.321 364.41 569.83 367.014 565.926C369.617 562.022 372.97 558.804 376.832 556.501C380.694 554.199 384.97 552.869 389.352 552.608C393.735 552.347 398.115 553.161 402.179 554.992L448.347 575.787C467.475 584.391 468.901 613.694 450.735 624.523C448.135 626.074 445.248 626.936 442.304 627.027L437.934 627.177C429.818 627.453 421.871 629.815 414.725 634.075C407.579 638.336 401.43 644.377 396.766 651.72L394.253 655.673C392.568 658.341 390.331 660.534 387.731 662.085C369.565 672.914 348.177 655.512 352.157 633.132L361.776 579.079Z" fill="#FFE3CC"/>
<path d="M401.317 779.43C407.139 780.407 412.112 783.745 415.14 788.708C418.168 793.672 419.005 799.855 417.465 805.897L414.562 817.288C413.022 823.33 409.232 828.736 404.026 832.317C398.82 835.898 392.624 837.361 386.801 836.383C380.979 835.405 376.006 832.068 372.978 827.104C369.95 822.141 369.114 815.958 370.653 809.916L373.556 798.525C375.096 792.483 378.886 787.077 384.092 783.496C389.298 779.915 395.494 778.452 401.317 779.43ZM346.431 770.215C352.254 771.192 357.226 774.53 360.255 779.494C363.283 784.457 364.119 790.64 362.579 796.682L359.676 808.073C358.136 814.115 354.347 819.521 349.141 823.102C343.934 826.683 337.739 828.146 331.916 827.168C326.093 826.191 321.121 822.853 318.093 817.889C315.064 812.926 314.228 806.743 315.768 800.701L318.671 789.31C320.211 783.268 324.001 777.862 329.207 774.281C334.413 770.7 340.609 769.237 346.431 770.215ZM419.733 841.912C425.555 842.889 430.528 846.227 433.556 851.191C436.584 856.154 437.421 862.337 435.881 868.379L434.429 874.075C432.889 880.117 429.099 885.523 423.893 889.104C418.687 892.685 412.492 894.148 406.669 893.17C400.846 892.193 395.874 888.855 392.846 883.891C389.817 878.928 388.981 872.745 390.521 866.703L391.972 861.007C393.512 854.965 397.302 849.559 402.508 845.978C407.714 842.397 413.91 840.934 419.733 841.912ZM298.985 821.639C304.807 822.617 309.78 825.955 312.808 830.918C315.837 835.882 316.673 842.065 315.133 848.107L313.681 853.802C312.141 859.844 308.352 865.25 303.146 868.831C297.939 872.412 291.744 873.875 285.921 872.898C280.098 871.92 275.126 868.582 272.098 863.619C269.069 858.655 268.233 852.472 269.773 846.43L271.225 840.735C272.764 834.693 276.554 829.287 281.76 825.706C286.966 822.125 293.162 820.662 298.985 821.639ZM328.097 859.536C331.821 856.457 336.091 854.191 340.602 852.9C345.113 851.609 349.752 851.325 354.186 852.07C358.621 852.814 362.741 854.568 366.251 857.206C369.76 859.843 372.573 863.299 374.486 867.325L396.22 913.058C405.233 931.996 387.354 955.257 366.498 951.755C363.512 951.254 360.753 950.042 358.451 948.207L355.021 945.493C348.656 940.45 341.07 937.108 332.865 935.73C324.66 934.352 316.062 934.978 307.754 937.557L303.28 938.944C300.269 939.888 297.144 940.111 294.159 939.61C273.302 936.109 268.261 909 285.78 894.516L328.097 859.536Z" fill="#FFE3CC"/>
<path d="M119.468 823.796C122.343 824.533 124.836 826.502 126.396 829.27C127.957 832.037 128.459 835.376 127.792 838.553L126.533 844.541C125.866 847.717 124.083 850.47 121.578 852.194C119.073 853.919 116.051 854.473 113.176 853.736C110.3 852.998 107.808 851.029 106.247 848.262C104.686 845.494 104.185 842.155 104.852 838.979L106.111 832.991C106.778 829.815 108.561 827.062 111.066 825.337C113.571 823.613 116.593 823.058 119.468 823.796ZM92.3672 816.844C95.2422 817.581 97.7344 819.55 99.2953 822.318C100.856 825.085 101.358 828.424 100.691 831.601L99.4319 837.589C98.7643 840.765 96.982 843.518 94.4769 845.242C91.9719 846.967 88.9494 847.521 86.0743 846.784C83.1992 846.046 80.7071 844.077 79.1462 841.31C77.5853 838.542 77.0834 835.203 77.751 832.027L79.0095 826.039C79.6771 822.863 81.4595 820.11 83.9645 818.385C86.4696 816.661 89.4921 816.106 92.3672 816.844ZM129.436 857.907C132.311 858.644 134.803 860.614 136.364 863.381C137.925 866.148 138.427 869.487 137.76 872.664L137.13 875.658C136.463 878.834 134.68 881.587 132.175 883.312C129.67 885.036 126.648 885.59 123.773 884.853C120.898 884.115 118.405 882.146 116.845 879.379C115.284 876.611 114.782 873.272 115.449 870.096L116.079 867.102C116.746 863.926 118.529 861.173 121.034 859.448C123.539 857.724 126.561 857.169 129.436 857.907ZM69.8136 842.613C72.6887 843.35 75.1808 845.319 76.7417 848.087C78.3026 850.854 78.8045 854.193 78.1369 857.369L77.5076 860.363C76.8401 863.54 75.0577 866.293 72.5526 868.017C70.0476 869.742 67.0251 870.296 64.15 869.558C61.2749 868.821 58.7828 866.852 57.2219 864.084C55.661 861.317 55.1591 857.978 55.8267 854.802L56.456 851.808C57.1235 848.631 58.9059 845.878 61.411 844.154C63.916 842.429 66.9385 841.875 69.8136 842.613ZM84.6744 863.962C86.4587 862.452 88.5235 861.397 90.7207 860.872C92.9179 860.347 95.1929 860.367 97.3826 860.928C99.5722 861.49 101.622 862.58 103.385 864.121C105.148 865.661 106.581 867.614 107.58 869.838L118.932 895.109C123.639 905.575 115.197 917.363 104.899 914.721C103.425 914.343 102.051 913.593 100.893 912.526L99.1684 910.948C95.9666 908.015 92.1902 905.947 88.1389 904.908C84.0875 903.868 79.8727 903.886 75.8288 904.96L73.651 905.538C72.1857 905.932 70.6538 905.936 69.1795 905.558C58.881 902.916 56.005 888.225 64.399 881.121L84.6744 863.962Z" fill="#FFE3CC"/>
<path d="M1480.44 810.07C1485.01 811.241 1489 814.195 1491.54 818.283C1494.08 822.371 1494.96 827.258 1494 831.869L1492.17 840.561C1491.2 845.172 1488.46 849.129 1484.54 851.561C1480.63 853.994 1475.87 854.703 1471.31 853.532C1466.74 852.361 1462.75 849.407 1460.21 845.319C1457.67 841.231 1456.78 836.344 1457.75 831.733L1459.58 823.041C1460.55 818.43 1463.29 814.473 1467.2 812.041C1471.12 809.609 1475.88 808.9 1480.44 810.07ZM1437.42 799.035C1441.99 800.206 1445.98 803.16 1448.52 807.248C1451.06 811.336 1451.95 816.223 1450.98 820.834L1449.15 829.526C1448.18 834.137 1445.44 838.094 1441.53 840.526C1437.61 842.959 1432.85 843.668 1428.29 842.497C1423.72 841.326 1419.73 838.372 1417.19 834.284C1414.65 830.196 1413.77 825.309 1414.73 820.698L1416.56 812.006C1417.53 807.395 1420.27 803.438 1424.19 801.006C1428.1 798.573 1432.86 797.865 1437.42 799.035ZM1497.12 860.153C1501.68 861.324 1505.67 864.278 1508.22 868.366C1510.76 872.454 1511.64 877.341 1510.67 881.952L1509.76 886.298C1508.79 890.909 1506.05 894.866 1502.13 897.298C1498.22 899.731 1493.46 900.439 1488.9 899.269C1484.33 898.098 1480.34 895.144 1477.8 891.056C1475.26 886.968 1474.37 882.081 1475.34 877.47L1476.26 873.124C1477.23 868.513 1479.97 864.556 1483.88 862.124C1487.79 859.691 1492.55 858.983 1497.12 860.153ZM1402.48 835.876C1407.04 837.047 1411.03 840.001 1413.57 844.089C1416.12 848.177 1417 853.064 1416.03 857.675L1415.12 862.021C1414.15 866.632 1411.41 870.588 1407.49 873.021C1403.58 875.453 1398.82 876.162 1394.26 874.992C1389.69 873.821 1385.7 870.867 1383.16 866.778C1380.62 862.69 1379.73 857.803 1380.7 853.193L1381.62 848.847C1382.58 844.236 1385.33 840.279 1389.24 837.847C1393.15 835.414 1397.91 834.705 1402.48 835.876ZM1426.54 867.507C1429.32 865.363 1432.55 863.892 1436.01 863.199C1439.47 862.507 1443.07 862.61 1446.54 863.501C1450.02 864.393 1453.29 866.051 1456.12 868.356C1458.94 870.661 1461.26 873.556 1462.9 876.834L1481.52 914.069C1489.25 929.489 1476.22 946.404 1459.88 942.21C1457.54 941.61 1455.35 940.471 1453.49 938.876L1450.72 936.517C1445.58 932.134 1439.56 928.993 1433.12 927.343C1426.69 925.693 1420.03 925.581 1413.67 927.014L1410.24 927.784C1407.94 928.31 1405.52 928.266 1403.18 927.666C1386.83 923.473 1381.89 901.95 1394.96 891.864L1426.54 867.507Z" fill="#FFE3CC"/>
<path d="M446.88 735.564C447.644 732.414 449.509 729.729 452.065 728.098C454.622 726.468 457.659 726.026 460.51 726.87L465.885 728.461C468.736 729.305 471.167 731.366 472.643 734.189C474.118 737.013 474.518 740.369 473.754 743.519C472.99 746.668 471.125 749.354 468.569 750.984C466.013 752.615 462.975 753.056 460.124 752.212L454.749 750.621C451.898 749.777 449.468 747.717 447.992 744.893C446.516 742.069 446.116 738.713 446.88 735.564ZM439.679 765.253C440.443 762.103 442.308 759.418 444.864 757.787C447.421 756.157 450.458 755.715 453.309 756.559L458.684 758.15C461.535 758.994 463.966 761.055 465.442 763.879C466.917 766.702 467.317 770.058 466.553 773.208C465.789 776.358 463.924 779.043 461.368 780.673C458.812 782.304 455.774 782.745 452.923 781.902L447.549 780.311C444.698 779.467 442.267 777.406 440.791 774.582C439.315 771.758 438.915 768.402 439.679 765.253ZM478.075 725.705C478.839 722.556 480.704 719.87 483.26 718.24C485.816 716.61 488.854 716.168 491.705 717.012L494.392 717.807C497.243 718.651 499.674 720.712 501.15 723.536C502.626 726.36 503.026 729.715 502.262 732.865C501.498 736.015 499.633 738.7 497.076 740.33C494.52 741.961 491.483 742.403 488.632 741.559L485.944 740.763C483.093 739.919 480.662 737.859 479.187 735.035C477.711 732.211 477.311 728.855 478.075 725.705ZM462.233 791.021C462.997 787.872 464.862 785.186 467.418 783.556C469.974 781.926 473.012 781.484 475.863 782.328L478.55 783.123C481.401 783.967 483.832 786.028 485.308 788.852C486.784 791.676 487.184 795.031 486.42 798.181C485.656 801.331 483.791 804.016 481.234 805.646C478.678 807.277 475.641 807.719 472.79 806.875L470.102 806.079C467.251 805.235 464.82 803.175 463.345 800.351C461.869 797.527 461.469 794.171 462.233 791.021ZM482.047 775.332C480.741 773.311 479.856 770.995 479.455 768.552C479.054 766.108 479.148 763.597 479.73 761.198C480.312 758.799 481.367 756.573 482.82 754.678C484.273 752.783 486.088 751.267 488.134 750.238L511.378 738.555C521.004 733.71 531.384 743.427 528.648 754.709C528.256 756.324 527.531 757.815 526.527 759.058L525.041 760.909C522.28 764.345 520.282 768.445 519.206 772.884C518.129 777.322 518.004 781.976 518.84 786.477L519.289 788.901C519.596 790.532 519.549 792.224 519.157 793.839C516.42 805.121 503.033 807.802 496.888 798.295L482.047 775.332Z" fill="#FFE3CC"/>
<path d="M1802.78 667.872C1804.67 665.311 1807.42 663.701 1810.43 663.397C1813.44 663.092 1816.46 664.118 1818.82 666.247L1823.28 670.263C1825.64 672.393 1827.16 675.453 1827.5 678.77C1827.83 682.086 1826.96 685.388 1825.07 687.949C1823.18 690.51 1820.43 692.12 1817.42 692.424C1814.41 692.729 1811.39 691.704 1809.03 689.574L1804.57 685.558C1802.21 683.428 1800.69 680.368 1800.35 677.052C1800.02 673.735 1800.89 670.433 1802.78 667.872ZM1784.97 692.011C1786.86 689.45 1789.61 687.84 1792.62 687.535C1795.62 687.231 1798.64 688.256 1801.01 690.386L1805.47 694.401C1807.83 696.531 1809.35 699.591 1809.68 702.908C1810.02 706.225 1809.15 709.527 1807.26 712.088C1805.37 714.649 1802.62 716.258 1799.61 716.563C1796.6 716.868 1793.58 715.842 1791.21 713.712L1786.76 709.697C1784.39 707.567 1782.87 704.507 1782.54 701.19C1782.2 697.873 1783.08 694.571 1784.97 692.011ZM1835.76 673.466C1837.65 670.905 1840.4 669.296 1843.41 668.991C1846.42 668.686 1849.44 669.712 1851.8 671.842L1854.03 673.849C1856.39 675.979 1857.91 679.039 1858.25 682.356C1858.58 685.673 1857.71 688.975 1855.82 691.536C1853.93 694.096 1851.18 695.706 1848.17 696.011C1845.16 696.315 1842.14 695.29 1839.78 693.16L1837.55 691.152C1835.18 689.022 1833.67 685.963 1833.33 682.646C1833 679.329 1833.87 676.027 1835.76 673.466ZM1796.57 726.571C1798.46 724.01 1801.21 722.4 1804.22 722.096C1807.23 721.791 1810.25 722.816 1812.61 724.946L1814.84 726.954C1817.2 729.084 1818.72 732.144 1819.06 735.461C1819.39 738.778 1818.52 742.08 1816.63 744.64C1814.74 747.201 1811.99 748.811 1808.98 749.116C1805.97 749.42 1802.95 748.395 1800.59 746.265L1798.36 744.257C1795.99 742.127 1794.48 739.067 1794.14 735.751C1793.81 732.434 1794.68 729.132 1796.57 726.571ZM1821.03 721.378C1820.55 718.886 1820.58 716.32 1821.11 713.864C1821.64 711.408 1822.67 709.123 1824.11 707.173C1825.55 705.222 1827.37 703.655 1829.44 702.584C1831.51 701.513 1833.78 700.964 1836.08 700.976L1862.27 701.121C1873.12 701.175 1879.25 715.093 1872.49 724.266C1871.52 725.579 1870.28 726.62 1868.87 727.298L1866.79 728.313C1862.92 730.197 1859.51 733.056 1856.85 736.664C1854.19 740.273 1852.34 744.531 1851.45 749.101L1850.97 751.562C1850.65 753.22 1849.98 754.767 1849.01 756.08C1842.24 765.253 1828.66 761.415 1826.42 749.692L1821.03 721.378Z" fill="#FFE3CC"/>
<path d="M1708.11 454.371C1714.9 456.378 1720.74 461.034 1724.35 467.313C1727.97 473.593 1729.07 480.982 1727.4 487.855L1724.26 500.813C1722.59 507.686 1718.3 513.48 1712.32 516.921C1706.35 520.361 1699.18 521.166 1692.4 519.159C1685.62 517.152 1679.78 512.496 1676.16 506.216C1672.54 499.937 1671.45 492.548 1673.12 485.675L1676.26 472.717C1677.93 465.844 1682.22 460.05 1688.19 456.609C1694.17 453.168 1701.33 452.363 1708.11 454.371ZM1644.19 435.448C1650.97 437.455 1656.81 442.111 1660.43 448.391C1664.05 454.67 1665.14 462.059 1663.47 468.932L1660.33 481.89C1658.66 488.763 1654.37 494.557 1648.4 497.998C1642.42 501.439 1635.26 502.244 1628.48 500.236C1621.69 498.229 1615.85 493.573 1612.24 487.294C1608.62 481.014 1607.52 473.625 1609.19 466.752L1612.33 453.794C1614 446.921 1618.29 441.127 1624.27 437.686C1630.24 434.246 1637.41 433.441 1644.19 435.448ZM1730.76 530.513C1737.54 532.52 1743.38 537.176 1747 543.455C1750.61 549.735 1751.71 557.124 1750.04 563.997L1748.47 570.476C1746.8 577.349 1742.51 583.143 1736.53 586.584C1730.56 590.024 1723.39 590.829 1716.61 588.822C1709.83 586.815 1703.99 582.159 1700.37 575.879C1696.76 569.6 1695.66 562.211 1697.33 555.338L1698.9 548.859C1700.57 541.986 1704.86 536.191 1710.83 532.751C1716.81 529.31 1723.97 528.505 1730.76 530.513ZM1590.12 488.883C1596.9 490.89 1602.74 495.546 1606.36 501.825C1609.98 508.105 1611.07 515.494 1609.41 522.367L1607.83 528.846C1606.17 535.719 1601.87 541.513 1595.9 544.954C1589.93 548.394 1582.76 549.199 1575.98 547.192C1569.2 545.185 1563.36 540.529 1559.74 534.249C1556.12 527.97 1555.03 520.581 1556.69 513.708L1558.27 507.229C1559.93 500.356 1564.23 494.561 1570.2 491.121C1576.17 487.68 1583.34 486.875 1590.12 488.883ZM1624.69 537.71C1628.95 534.641 1633.87 532.607 1639.08 531.755C1644.29 530.904 1649.67 531.255 1654.84 532.784C1660 534.313 1664.82 536.981 1668.95 540.598C1673.08 544.215 1676.42 548.691 1678.72 553.704L1704.88 610.652C1715.72 634.236 1695.43 658.935 1671.14 651.744C1667.66 650.715 1664.43 648.884 1661.72 646.387L1657.68 642.693C1650.19 635.828 1641.31 630.781 1631.76 627.952C1622.2 625.123 1612.23 624.591 1602.63 626.396L1597.46 627.366C1593.99 628.031 1590.36 627.833 1586.88 626.804C1562.59 619.613 1556.19 587.013 1576.25 572.576L1624.69 537.71Z" fill="#FFE3CC"/>
<path d="M1361.83 627.391C1365.03 625.284 1369 624.491 1372.86 625.189C1376.73 625.886 1380.17 628.015 1382.44 631.108L1386.71 636.94C1388.97 640.033 1389.87 643.837 1389.21 647.514C1388.54 651.191 1386.37 654.441 1383.17 656.549C1379.97 658.656 1376 659.448 1372.13 658.751C1368.27 658.054 1364.82 655.924 1362.56 652.831L1358.29 647C1356.02 643.906 1355.13 640.103 1355.79 636.425C1356.45 632.748 1358.62 629.498 1361.83 627.391ZM1331.64 647.255C1334.84 645.148 1338.81 644.356 1342.68 645.053C1346.54 645.75 1349.99 647.879 1352.25 650.972L1356.52 656.804C1358.79 659.897 1359.68 663.701 1359.02 667.378C1358.36 671.056 1356.19 674.305 1352.98 676.413C1349.78 678.52 1345.81 679.312 1341.95 678.615C1338.08 677.918 1334.64 675.788 1332.37 672.695L1328.1 666.864C1325.84 663.771 1324.94 659.967 1325.6 656.29C1326.27 652.612 1328.44 649.362 1331.64 647.255ZM1401.28 644.63C1404.48 642.523 1408.45 641.731 1412.32 642.428C1416.18 643.125 1419.63 645.254 1421.89 648.347L1424.03 651.263C1426.29 654.356 1427.19 658.16 1426.53 661.837C1425.86 665.515 1423.69 668.765 1420.49 670.872C1417.29 672.979 1413.32 673.771 1409.45 673.074C1405.59 672.377 1402.14 670.248 1399.88 667.155L1397.74 664.239C1395.48 661.146 1394.58 657.342 1395.24 653.665C1395.91 649.987 1398.08 646.737 1401.28 644.63ZM1334.87 688.331C1338.08 686.224 1342.05 685.432 1345.91 686.129C1349.78 686.826 1353.22 688.955 1355.48 692.049L1357.62 694.964C1359.88 698.058 1360.78 701.861 1360.12 705.539C1359.46 709.216 1357.28 712.466 1354.08 714.573C1350.88 716.68 1346.91 717.472 1343.04 716.775C1339.18 716.078 1335.74 713.949 1333.47 710.856L1331.34 707.94C1329.07 704.847 1328.17 701.043 1328.84 697.366C1329.5 693.688 1331.67 690.438 1334.87 688.331ZM1367.18 691.081C1367.4 688.242 1368.28 685.496 1369.75 683.039C1371.22 680.582 1373.24 678.475 1375.68 676.87C1378.12 675.265 1380.91 674.202 1383.85 673.756C1386.79 673.31 1389.81 673.493 1392.7 674.292L1425.43 683.364C1438.99 687.116 1442.13 704.157 1430.66 711.705C1429.01 712.786 1427.13 713.483 1425.14 713.733L1422.2 714.114C1416.74 714.818 1411.55 716.731 1407.03 719.7C1402.52 722.67 1398.81 726.614 1396.21 731.221L1394.8 733.701C1393.86 735.374 1392.51 736.806 1390.87 737.886C1379.4 745.435 1363.66 736.689 1364.69 723.335L1367.18 691.081Z" fill="#FFE3CC"/>
<path d="M1321.09 153.159C1323.78 149.118 1325.27 143.623 1322.95 139.31L1297.8 92.5232C1295.48 88.21 1290.4 87.0281 1285.9 87.7058C1277.98 88.9111 1269.82 84.8754 1265.48 76.8095C1259.69 66.0387 1262.9 52.1334 1272.65 45.7362C1279.35 41.3363 1287.42 41.6434 1293.68 45.7816C1294.57 46.3839 1295.68 46.4476 1296.58 45.8542C1297.49 45.2608 1297.97 44.155 1297.91 43.0027C1297.61 34.9567 1301.23 26.9787 1307.94 22.5788C1317.69 16.1816 1330.28 19.7239 1336.07 30.4947C1340.4 38.5605 1339.7 48.4146 1334.96 55.517C1332.27 59.5576 1330.77 65.0526 1333.09 69.3657L1358.25 116.153C1360.57 120.466 1365.65 121.648 1370.15 120.97C1378.06 119.765 1386.23 123.801 1390.57 131.866C1396.36 142.637 1393.15 156.542 1383.4 162.94C1376.7 167.34 1368.62 167.032 1362.37 162.894C1361.48 162.292 1360.37 162.228 1359.47 162.822C1358.56 163.415 1358.08 164.521 1358.13 165.673C1358.43 173.719 1354.81 181.697 1348.11 186.097C1338.36 192.494 1325.77 188.952 1319.98 178.181C1315.65 170.115 1316.34 160.261 1321.09 153.159Z" fill="#FFE3CC"/>
<path d="M1574.54 337.343C1577.26 338.561 1580.61 338.716 1582.68 336.424L1605.19 311.557C1607.27 309.264 1607.13 305.56 1606.02 302.555C1604.08 297.271 1605.06 290.976 1608.94 286.689C1614.13 280.965 1622.52 280.965 1627.7 286.689C1631.27 290.627 1632.38 296.261 1631.03 301.247C1630.83 301.959 1630.97 302.736 1631.45 303.267C1631.93 303.798 1632.64 303.954 1633.28 303.734C1637.8 302.244 1642.9 303.475 1646.46 307.412C1651.64 313.137 1651.64 322.41 1646.46 328.135C1642.58 332.422 1636.88 333.51 1632.1 331.36C1629.38 330.142 1626.03 329.987 1623.95 332.279L1601.44 357.146C1599.37 359.439 1599.51 363.143 1600.61 366.148C1602.55 371.432 1601.57 377.727 1597.69 382.014C1592.51 387.738 1584.11 387.738 1578.93 382.014C1575.37 378.076 1574.25 372.442 1575.6 367.456C1575.8 366.744 1575.66 365.967 1575.18 365.436C1574.7 364.905 1574 364.749 1573.35 364.969C1568.84 366.459 1563.74 365.228 1560.17 361.291C1554.99 355.566 1554.99 346.293 1560.17 340.568C1564.05 336.281 1569.75 335.193 1574.54 337.343Z" fill="#FFE3CC"/>
<path d="M1480.59 138.296C1486.84 141.095 1494.55 141.452 1499.32 136.181L1551.08 79.0027C1555.85 73.7316 1555.53 65.2144 1552.99 58.3053C1548.52 46.1549 1550.78 31.6816 1559.71 21.8243C1571.62 8.66139 1590.92 8.66138 1602.84 21.8243C1611.03 30.8776 1613.59 43.832 1610.49 55.2975C1610.03 56.9354 1610.36 58.7222 1611.46 59.9432C1612.57 61.1642 1614.19 61.5216 1615.67 61.0153C1626.05 57.5906 1637.77 60.4197 1645.97 69.473C1657.88 82.6359 1657.88 103.959 1645.97 117.122C1637.04 126.979 1623.94 129.481 1612.95 124.537C1606.69 121.738 1598.98 121.38 1594.21 126.651L1542.45 183.83C1537.68 189.101 1538.01 197.618 1540.54 204.527C1545.01 216.678 1542.75 231.151 1533.83 241.008C1521.91 254.171 1502.61 254.171 1490.7 241.008C1482.5 231.955 1479.94 219 1483.04 207.535C1483.5 205.897 1483.18 204.11 1482.07 202.889C1480.96 201.668 1479.35 201.311 1477.86 201.817C1467.49 205.242 1455.76 202.413 1447.57 193.359C1435.65 180.197 1435.65 158.874 1447.57 145.711C1456.49 135.854 1469.59 133.352 1480.59 138.296Z" fill="#FFE3CC"/>
<path d="M1546.74 762.015C1549.46 763.233 1552.81 763.388 1554.89 761.096L1577.4 736.229C1579.47 733.936 1579.33 730.232 1578.23 727.227C1576.28 721.943 1577.27 715.648 1581.15 711.361C1586.33 705.637 1594.73 705.637 1599.91 711.361C1603.47 715.299 1604.59 720.933 1603.24 725.919C1603.04 726.631 1603.18 727.409 1603.66 727.94C1604.14 728.471 1604.84 728.626 1605.49 728.406C1610 726.916 1615.1 728.147 1618.67 732.084C1623.85 737.809 1623.85 747.082 1618.67 752.807C1614.78 757.094 1609.09 758.182 1604.3 756.032C1601.58 754.814 1598.23 754.659 1596.16 756.951L1573.65 781.819C1571.57 784.111 1571.71 787.815 1572.81 790.82C1574.76 796.104 1573.78 802.399 1569.89 806.686C1564.71 812.41 1556.32 812.41 1551.14 806.686C1547.57 802.749 1546.46 797.115 1547.81 792.128C1548.01 791.416 1547.87 790.639 1547.39 790.108C1546.9 789.577 1546.2 789.421 1545.56 789.641C1541.04 791.131 1535.94 789.9 1532.38 785.963C1527.2 780.239 1527.2 770.965 1532.38 765.24C1536.26 760.953 1541.96 759.866 1546.74 762.015Z" fill="#FFE3CC"/>
<path d="M1287.51 870.919C1290.01 869.294 1291.95 866.562 1291.15 863.575L1282.47 831.176C1281.67 828.189 1278.48 826.298 1275.36 825.594C1269.87 824.363 1265.11 820.121 1263.62 814.536C1261.62 807.077 1266.17 800.025 1273.79 798.777C1279.03 797.919 1284.37 800.039 1287.83 803.876C1288.32 804.43 1289.05 804.734 1289.75 804.618C1290.46 804.502 1290.97 803.995 1291.14 803.334C1292.34 798.734 1296.14 795.118 1301.38 794.259C1309 793.011 1316.79 798.041 1318.79 805.5C1320.28 811.085 1318.11 816.462 1313.7 819.314C1311.21 820.939 1309.26 823.671 1310.06 826.658L1318.74 859.057C1319.54 862.044 1322.73 863.935 1325.85 864.639C1331.34 865.87 1336.1 870.112 1337.59 875.697C1339.59 883.156 1335.04 890.208 1327.42 891.456C1322.18 892.314 1316.84 890.194 1313.38 886.357C1312.89 885.803 1312.16 885.499 1311.46 885.615C1310.75 885.731 1310.24 886.238 1310.07 886.899C1308.88 891.499 1305.08 895.115 1299.84 895.974C1292.22 897.222 1284.43 892.192 1282.43 884.733C1280.93 879.148 1283.11 873.771 1287.51 870.919Z" fill="#FFE3CC"/>
<path d="M1733.72 926.888C1736.32 923.087 1737.79 917.89 1735.64 913.766L1712.25 869.027C1710.1 864.903 1705.29 863.715 1701.01 864.3C1693.48 865.341 1685.77 861.404 1681.74 853.692C1676.36 843.392 1679.55 830.234 1688.87 824.288C1695.29 820.198 1702.95 820.594 1708.84 824.603C1709.68 825.187 1710.73 825.262 1711.59 824.71C1712.46 824.158 1712.92 823.115 1712.89 822.02C1712.69 814.379 1716.21 806.852 1722.62 802.763C1731.94 796.816 1743.86 800.342 1749.24 810.641C1753.27 818.354 1752.5 827.699 1747.92 834.38C1745.32 838.181 1743.85 843.377 1746 847.502L1769.38 892.241C1771.54 896.365 1776.35 897.553 1780.63 896.968C1788.16 895.926 1795.87 899.863 1799.9 907.576C1805.28 917.876 1802.09 931.034 1792.76 936.98C1786.35 941.07 1778.69 940.674 1772.8 936.664C1771.96 936.081 1770.91 936.006 1770.05 936.558C1769.18 937.109 1768.71 938.153 1768.75 939.247C1768.95 946.889 1765.43 954.415 1759.02 958.505C1749.69 964.452 1737.78 960.926 1732.4 950.627C1728.37 942.914 1729.14 933.569 1733.72 926.888Z" fill="#FFE3CC"/>
<path d="M1837.28 554.861C1840.07 550.779 1841.66 545.198 1839.34 540.769L1814.23 492.722C1811.92 488.292 1806.75 487.017 1802.15 487.645C1794.07 488.764 1785.79 484.536 1781.46 476.253C1775.68 465.192 1779.11 451.061 1789.12 444.675C1796.01 440.283 1804.23 440.708 1810.56 445.014C1811.46 445.64 1812.59 445.721 1813.52 445.128C1814.45 444.536 1814.95 443.415 1814.91 442.24C1814.7 434.033 1818.48 425.95 1825.36 421.558C1835.38 415.172 1848.17 418.959 1853.95 430.02C1858.28 438.303 1857.45 448.339 1852.53 455.513C1849.74 459.595 1848.16 465.176 1850.47 469.605L1875.58 517.652C1877.9 522.081 1883.07 523.357 1887.66 522.729C1895.74 521.61 1904.02 525.838 1908.35 534.121C1914.13 545.182 1910.71 559.313 1900.69 565.699C1893.81 570.091 1885.58 569.666 1879.25 565.36C1878.35 564.734 1877.22 564.653 1876.29 565.246C1875.37 565.838 1874.86 566.959 1874.9 568.134C1875.12 576.341 1871.34 584.424 1864.45 588.816C1854.44 595.202 1841.65 591.415 1835.87 580.354C1831.54 572.071 1832.36 562.035 1837.28 554.861Z" fill="#FFE3CC"/>
<path d="M185.74 177.015C188.46 178.233 191.813 178.388 193.888 176.096L216.398 151.228C218.473 148.936 218.332 145.232 217.23 142.227C215.284 136.943 216.269 130.648 220.149 126.361C225.331 120.637 233.726 120.637 238.907 126.361C242.471 130.299 243.585 135.932 242.237 140.919C242.038 141.631 242.178 142.408 242.659 142.939C243.14 143.47 243.843 143.626 244.488 143.406C249.001 141.916 254.101 143.147 257.665 147.084C262.847 152.809 262.847 162.082 257.665 167.807C253.785 172.094 248.087 173.182 243.304 171.032C240.584 169.814 237.231 169.659 235.156 171.951L212.646 196.818C210.571 199.111 210.712 202.815 211.814 205.82C213.76 211.104 212.775 217.399 208.895 221.686C203.713 227.41 195.319 227.41 190.137 221.686C186.573 217.748 185.459 212.114 186.807 207.128C187.007 206.416 186.866 205.638 186.385 205.107C185.905 204.576 185.201 204.421 184.556 204.641C180.043 206.131 174.943 204.9 171.379 200.963C166.197 195.238 166.197 185.965 171.379 180.24C175.259 175.953 180.957 174.865 185.74 177.015Z" fill="#FFE3CC"/>
<path d="M86.3774 590.767C90.0013 593.79 94.9565 595.506 98.889 592.997L141.548 565.789C145.48 563.28 146.613 557.682 146.055 552.703C145.062 543.944 148.815 534.971 156.17 530.281C165.99 524.017 178.536 527.731 184.206 538.58C188.106 546.042 187.728 554.955 183.905 561.812C183.349 562.788 183.278 564.012 183.803 565.018C184.329 566.025 185.324 566.568 186.368 566.524C193.654 566.295 200.831 570.391 204.73 577.852C210.4 588.701 207.038 602.562 197.218 608.825C189.864 613.516 180.953 612.621 174.583 607.292C170.959 604.268 166.004 602.553 162.072 605.061L119.413 632.27C115.481 634.778 114.348 640.377 114.906 645.355C115.899 654.114 112.145 663.087 104.791 667.778C94.9707 674.041 82.4244 670.327 76.7546 659.478C72.855 652.017 73.2328 643.103 77.0556 636.247C77.6117 635.27 77.6831 634.046 77.1572 633.04C76.6313 632.034 75.6363 631.49 74.5927 631.534C67.3065 631.763 60.1301 627.668 56.2305 620.206C50.5608 609.357 53.9225 595.497 63.7429 589.233C71.097 584.542 80.0075 585.437 86.3774 590.767Z" fill="#FFE3CC"/>
<path d="M224.244 770.137C227.117 769.694 230.057 767.996 230.807 764.901L238.951 731.325C239.702 728.23 237.924 725.136 235.637 723.165C231.607 719.704 229.634 713.779 231.038 707.99C232.913 700.261 240.098 695.678 247.095 697.749C251.907 699.173 255.381 703.388 256.457 708.392C256.605 709.111 257.073 709.699 257.722 709.891C258.371 710.084 259.043 709.833 259.497 709.292C262.694 705.553 267.61 703.822 272.422 705.246C279.419 707.317 283.567 715.255 281.692 722.985C280.289 728.773 275.898 732.815 270.842 733.586C267.969 734.029 265.029 735.727 264.278 738.822L256.135 772.398C255.384 775.494 257.161 778.588 259.449 780.558C263.479 784.019 265.452 789.945 264.048 795.733C262.173 803.463 254.988 808.046 247.991 805.975C243.179 804.55 239.705 800.336 238.628 795.331C238.48 794.612 238.012 794.024 237.363 793.832C236.714 793.64 236.043 793.891 235.589 794.431C232.392 798.171 227.476 799.902 222.664 798.477C215.667 796.406 211.518 788.468 213.393 780.739C214.797 774.95 219.188 770.908 224.244 770.137Z" fill="#FFE3CC"/>
<path d="M472.165 448.236C473.938 445.934 474.895 442.676 473.302 439.918L456.027 409.997C454.435 407.239 451.013 406.226 447.998 406.378C442.693 406.654 437.176 403.727 434.198 398.569C430.221 391.68 432.259 383.405 438.752 380.076C443.218 377.787 448.641 378.44 452.873 381.319C453.476 381.737 454.221 381.84 454.823 381.531C455.426 381.222 455.739 380.577 455.694 379.873C455.428 374.96 457.791 370.315 462.257 368.026C468.75 364.697 477.23 367.579 481.207 374.467C484.185 379.626 483.797 385.581 480.669 389.628C478.895 391.931 477.939 395.188 479.532 397.946L496.807 427.867C498.399 430.626 501.821 431.639 504.836 431.486C510.141 431.21 515.658 434.138 518.636 439.296C522.613 446.184 520.575 454.459 514.081 457.788C509.616 460.078 504.193 459.425 499.961 456.545C499.358 456.127 498.613 456.025 498.011 456.333C497.408 456.642 497.095 457.287 497.14 457.991C497.406 462.904 495.043 467.549 490.577 469.839C484.084 473.168 475.604 470.285 471.627 463.397C468.649 458.239 469.037 452.284 472.165 448.236Z" fill="#FFE3CC"/>
</g>
<defs>
<clipPath id="clip0_36_6">
<rect width="1920" height="960" fill="white"/>
</clipPath>
</defs>
</svg>
