<svg width="204" height="200" viewBox="0 0 204 200" fill="none" xmlns="http://www.w3.org/2000/svg">
<path d="M181.006 0H22.9368C10.5172 0 0.355591 9.98677 0.355591 22.1928V177.543C0.355591 189.76 10.5172 199.735 22.9368 199.735H101.971V122.061H79.3899V94.5969H101.971V71.8493C101.971 47.8366 115.655 30.9701 144.492 30.9701L164.849 30.9923V59.8984H151.334C140.111 59.8984 135.843 68.1764 135.843 75.8551V94.608H164.837L158.424 122.061H135.843V199.735H181.006C193.425 199.735 203.587 189.76 203.587 177.543V22.1928C203.587 9.98677 193.425 0 181.006 0Z" fill="white"/>
</svg>
